<svg width="198" height="199" fill="none" xmlns="http://www.w3.org/2000/svg"><path d="M98.893 198.358c54.617 0 98.893-44.276 98.893-98.893S153.51.572 98.893.572 0 44.848 0 99.465s44.276 98.893 98.893 98.893z" fill="#0E3460"/><path d="M98.893 198.358c54.617 0 98.893-44.276 98.893-98.893S153.51.572 98.893.572 0 44.848 0 99.465s44.276 98.893 98.893 98.893z" fill="url(#paint0_linear)"/><path d="M56.4 54.95v21.752m63.485 1.012v21.751" stroke="#FDEFE2" stroke-width="8.133" stroke-miterlimit="10" stroke-linecap="round"/><path d="M55.136 96.43l64.749 22.763c1.517.506 2.276 1.771 2.023 3.035-2.529 10.37-14.922 53.367-45.779 41.227-18.716-7.335-28.58-30.098-25.545-65.002.253-1.517 2.53-2.782 4.552-2.023z" fill="#FDEFE2"/><path d="M117.102 137.657c-6.324-5.312-14.67-8.6-23.775-8.6-14.923 0-27.569 8.853-33.639 21.499 4.3 6.323 9.864 10.875 16.44 13.405 22.004 8.346 34.65-10.876 40.974-26.304z" fill="#F1625B"/><defs><linearGradient id="paint0_linear" x1="-105.5" y1="-164" x2="123" y2="99" gradientUnits="userSpaceOnUse"><stop stop-color="#CAEEFD"/><stop offset="1" stop-color="#CAEEFD" stop-opacity="0"/></linearGradient></defs></svg>