<svg width="198" height="199" fill="none" xmlns="http://www.w3.org/2000/svg"><path d="M98.893 198.144c54.617 0 98.893-44.276 98.893-98.893S153.51.358 98.893.358 0 44.634 0 99.251s44.276 98.893 98.893 98.893z" fill="#F8D7D0"/><path d="M98.893 198.144c54.617 0 98.893-44.276 98.893-98.893S153.51.358 98.893.358 0 44.634 0 99.251s44.276 98.893 98.893 98.893z" fill="url(#paint0_linear)"/><path d="M56.4 54.737v21.751m63.485 1.012v21.75" stroke="#004D85" stroke-width="8.133" stroke-miterlimit="10" stroke-linecap="round"/><path d="M55.136 96.216l64.749 22.763c1.517.506 2.276 1.771 2.023 3.035-2.529 10.37-14.922 53.367-45.779 41.227-18.716-7.335-28.58-30.098-25.545-65.001.253-1.518 2.53-2.783 4.552-2.024z" fill="#004D85"/><path d="M117.102 137.443c-6.324-5.312-14.67-8.6-23.775-8.6-14.923 0-27.569 8.853-33.639 21.499 4.3 6.323 9.864 10.875 16.44 13.405 22.004 8.346 34.65-10.876 40.974-26.304z" fill="#F1625B"/><defs><linearGradient id="paint0_linear" x1="184" y1="304.5" x2="36.5" y2="99" gradientUnits="userSpaceOnUse"><stop stop-color="#F2445B"/><stop offset="1" stop-color="#F2445B" stop-opacity="0"/></linearGradient></defs></svg>