<svg width="206" height="207" fill="none" xmlns="http://www.w3.org/2000/svg"><g filter="url(#filter0_d)"><path d="M102.893 198.716c54.617 0 98.893-44.276 98.893-98.893S157.51.93 102.893.93 4 45.206 4 99.823s44.276 98.893 98.893 98.893z" fill="#F2445B"/><path d="M102.893 198.716c54.617 0 98.893-44.276 98.893-98.893S157.51.93 102.893.93 4 45.206 4 99.823s44.276 98.893 98.893 98.893z" fill="url(#paint0_linear)"/><path d="M60.4 55.309V77.06m63.485 1.012v21.751" stroke="#FDEFE2" stroke-width="8.133" stroke-miterlimit="10" stroke-linecap="round"/><path d="M59.136 96.788l64.749 22.763c1.517.506 2.276 1.771 2.023 3.035-2.529 10.37-14.922 53.367-45.779 41.227-18.716-7.335-28.58-30.098-25.545-65.001.253-1.518 2.53-2.783 4.552-2.024z" fill="#FDEFE2"/><path d="M121.102 138.015c-6.324-5.312-14.67-8.6-23.775-8.6-14.923 0-27.569 8.853-33.639 21.499 4.3 6.323 9.864 10.876 16.44 13.405 22.004 8.346 34.65-10.876 40.974-26.304z" fill="#F1625B"/></g><defs><linearGradient id="paint0_linear" x1="202" y1="254.93" x2="39" y2="18.93" gradientUnits="userSpaceOnUse"><stop offset=".113" stop-color="#004D85"/><stop offset="1" stop-color="#004D85" stop-opacity="0"/></linearGradient><filter id="filter0_d" x="0" y=".93" width="205.786" height="205.786" filterUnits="userSpaceOnUse" color-interpolation-filters="sRGB"><feFlood flood-opacity="0" result="BackgroundImageFix"/><feColorMatrix in="SourceAlpha" values="0 0 0 0 0 0 0 0 0 0 0 0 0 0 0 0 0 0 127 0"/><feOffset dy="4"/><feGaussianBlur stdDeviation="2"/><feColorMatrix values="0 0 0 0 0 0 0 0 0 0 0 0 0 0 0 0 0 0 0.25 0"/><feBlend in2="BackgroundImageFix" result="effect1_dropShadow"/><feBlend in="SourceGraphic" in2="effect1_dropShadow" result="shape"/></filter></defs></svg>