<?xml version="1.0" encoding="utf-8"?>
<!-- Generator: Adobe Illustrator 16.0.4, SVG Export Plug-In . SVG Version: 6.00 Build 0)  -->
<!DOCTYPE svg PUBLIC "-//W3C//DTD SVG 1.1//EN" "http://www.w3.org/Graphics/SVG/1.1/DTD/svg11.dtd">
<svg version="1.1" id="Layer_1" xmlns="http://www.w3.org/2000/svg" xmlns:xlink="http://www.w3.org/1999/xlink" x="0px" y="0px"
	 width="432px" height="180px" viewBox="0 0 432 180" enable-background="new 0 0 432 180" xml:space="preserve">
<g>
	<path fill="#951A30" d="M30.337,160.604l6.119-14.525l5.768,14.525l5.739-13.601h2.372l-8.169,19.068l-5.769-14.498l-6.148,14.498
		l-7.496-19.068h2.372L30.337,160.604z"/>
	<path fill="#951A30" d="M71.242,156.09c0,5.195-4.597,9.384-10.248,9.384c-2.782,0-5.622-1.196-7.555-3.182
		c-1.639-1.714-2.518-3.862-2.518-6.312c0-5.004,4.685-9.274,10.189-9.274C66.674,146.706,71.242,150.949,71.242,156.09z
		 M53.117,155.98c0,2.23,0.849,4.08,2.489,5.522c1.493,1.306,3.484,2.067,5.417,2.067c4.451,0,8.023-3.319,8.023-7.48
		c0-4.135-3.543-7.48-7.964-7.48C56.719,148.609,53.117,151.955,53.117,155.98z"/>
	<path fill="#951A30" d="M77.361,145.998l7.496,15.314l7.672-15.341l3.016,19.176h-2.226l-1.815-12.621l-6.646,13.383l-6.559-13.383
		l-1.933,12.621h-2.225L77.361,145.998z"/>
	<path fill="#951A30" d="M101.869,148.882v5.412h7.701v1.878h-7.701v7.098h7.906v1.878H99.673v-18.144h10.102v1.878H101.869z"/>
	<path fill="#951A30" d="M113.405,146.243l15.196,14.823v-14.062h2.196v18.96l-15.196-14.797v13.98h-2.196V146.243z"/>
	<path fill="#951A30" d="M144.998,165.147h-2.196v-18.144h2.196V165.147z"/>
	<path fill="#951A30" d="M149.683,146.243l15.196,14.823v-14.062h2.196v18.96l-15.197-14.797v13.98h-2.195V146.243z"/>
	<path fill="#951A30" d="M193.955,151.003c-1.904-1.659-3.689-2.394-5.915-2.394c-4.304,0-7.876,3.399-7.876,7.562
		c0,4.052,3.572,7.398,7.905,7.398c2.167,0,4.011-0.734,5.886-2.367v2.503c-1.904,1.224-3.748,1.768-5.886,1.768
		c-5.534,0-10.102-4.216-10.102-9.329c0-5.195,4.597-9.438,10.219-9.438c2.167,0,3.777,0.517,5.769,1.795V151.003z"/>
	<path fill="#951A30" d="M216.5,156.09c0,5.195-4.597,9.384-10.248,9.384c-2.782,0-5.622-1.196-7.554-3.182
		c-1.64-1.714-2.518-3.862-2.518-6.312c0-5.004,4.685-9.274,10.189-9.274C211.933,146.706,216.5,150.949,216.5,156.09z
		 M198.376,155.98c0,2.23,0.849,4.08,2.489,5.522c1.493,1.306,3.484,2.067,5.417,2.067c4.451,0,8.023-3.319,8.023-7.48
		c0-4.135-3.543-7.48-7.964-7.48C201.978,148.609,198.376,151.955,198.376,155.98z"/>
	<path fill="#951A30" d="M222.621,145.998l7.494,15.314l7.672-15.341l3.016,19.176h-2.225l-1.815-12.621l-6.647,13.383
		l-6.559-13.383l-1.932,12.621h-2.226L222.621,145.998z"/>
	<path fill="#951A30" d="M247.127,165.147h-2.195v-18.144h3.543c2.4,0,3.777,0.354,4.92,1.279c1.141,0.897,1.814,2.312,1.814,3.808
		c0,3.183-2.342,5.113-6.178,5.113h-1.904V165.147z M248.885,155.355c2.664,0,4.187-1.197,4.187-3.265
		c0-0.979-0.38-1.849-1.083-2.393c-0.732-0.572-1.67-0.816-3.25-0.816h-1.611v6.474H248.885z"/>
	<path fill="#951A30" d="M260.01,158.129c0,1.877,0.147,2.693,0.645,3.482c0.762,1.143,2.43,1.959,4.129,1.959
		c1.668,0,3.338-0.816,4.1-1.959c0.497-0.789,0.645-1.605,0.645-3.482v-11.125h2.195v11.669c0,1.96-0.352,3.183-1.288,4.299
		c-1.289,1.55-3.426,2.502-5.651,2.502c-2.255,0-4.422-0.952-5.681-2.502c-0.937-1.116-1.288-2.312-1.288-4.299v-11.669h2.195
		V158.129z"/>
	<path fill="#951A30" d="M281.121,165.147h-2.195v-16.266h-4.715v-1.878h11.654v1.878h-4.744V165.147z"/>
	<path fill="#951A30" d="M290.549,148.882v5.412h7.701v1.878h-7.701v7.098h7.906v1.878h-10.102v-18.144h10.102v1.878H290.549z"/>
	<path fill="#951A30" d="M313.389,165.147h-2.665l-5.886-7.943h-0.556v7.943h-2.196v-18.144h3.162c2.226,0,3.543,0.272,4.686,0.98
		c1.348,0.843,2.166,2.394,2.166,4.106c0,2.748-1.932,4.706-4.918,4.951L313.389,165.147z M305.658,155.409
		c2.753,0,4.305-1.196,4.305-3.318c0-1.114-0.527-2.095-1.435-2.61c-0.703-0.409-1.581-0.599-2.958-0.599h-1.288v6.527H305.658z"/>
	<path fill="#951A30" d="M332.42,150.568c-0.996-1.469-1.845-1.959-3.367-1.959c-1.814,0-3.221,1.196-3.221,2.801
		c0,0.789,0.41,1.442,1.23,1.96c0.701,0.435,0.701,0.435,3.367,1.522c3.162,1.279,4.42,2.721,4.42,5.006
		c0,3.128-2.693,5.575-6.207,5.575c-3.074,0-5.27-1.713-6.002-4.679l2.107-0.544c0.234,0.925,0.41,1.36,0.791,1.851
		c0.703,0.925,1.903,1.469,3.191,1.469c2.196,0,3.924-1.578,3.924-3.564c0-1.115-0.527-1.958-1.61-2.584
		c-0.731-0.435-0.731-0.435-3.456-1.577c-2.81-1.17-3.951-2.475-3.951-4.461c0-2.665,2.342-4.678,5.475-4.678
		c2.195,0,3.865,0.951,5.037,2.828L332.42,150.568z"/>
	<path fill="#951A30" d="M353.092,151.003c-1.902-1.659-3.688-2.394-5.914-2.394c-4.305,0-7.876,3.399-7.876,7.562
		c0,4.052,3.571,7.398,7.905,7.398c2.168,0,4.012-0.734,5.885-2.367v2.503c-1.902,1.224-3.747,1.768-5.885,1.768
		c-5.533,0-10.102-4.216-10.102-9.329c0-5.195,4.598-9.438,10.219-9.438c2.166,0,3.777,0.517,5.768,1.795V151.003z"/>
	<path fill="#951A30" d="M358.891,165.147h-2.197v-18.144h2.197V165.147z"/>
	<path fill="#951A30" d="M365.771,148.882v5.412h7.7v1.878h-7.7v7.098h7.905v1.878h-10.102v-18.144h10.102v1.878H365.771z"/>
	<path fill="#951A30" d="M377.307,146.243l15.197,14.823v-14.062h2.195v18.96l-15.197-14.797v13.98h-2.195V146.243z"/>
	<path fill="#951A30" d="M414.287,151.003c-1.903-1.659-3.689-2.394-5.914-2.394c-4.305,0-7.877,3.399-7.877,7.562
		c0,4.052,3.572,7.398,7.906,7.398c2.166,0,4.012-0.734,5.885-2.367v2.503c-1.903,1.224-3.748,1.768-5.885,1.768
		c-5.534,0-10.102-4.216-10.102-9.329c0-5.195,4.596-9.438,10.219-9.438c2.166,0,3.777,0.517,5.768,1.795V151.003z"/>
	<path fill="#951A30" d="M420.084,148.882v5.412h7.701v1.878h-7.701v7.098h7.906v1.878h-10.102v-18.144h10.102v1.878H420.084z"/>
</g>
<g>
	<defs>
		<path id="SVGID_1_" d="M318.981,62.102c-4.062-3.776-8.009-6.515-11.835-8.211c-3.986-1.851-8.205-2.776-12.656-2.776
			c-6.799,0-12.346,2.123-16.641,6.361c-4.219,4.164-6.328,9.756-6.328,16.774c0,6.863,2.031,12.298,6.094,16.309
			c3.982,4.091,9.335,6.132,16.054,6.132c3.828,0,7.969-0.848,12.422-2.545c3.984-1.619,8.594-4.358,13.828-8.214l-1.406,43.609
			c-4.609,1.929-9.219,3.316-13.828,4.164c-4.609,0.926-9.219,1.39-13.828,1.39c-5.938,0-11.446-0.617-16.522-1.852
			c-5.236-1.234-10.002-3.044-14.297-5.438c-10.393-5.781-18.283-13.262-23.672-22.441c-5.312-9.02-7.969-19.393-7.969-31.114
			c0-8.56,1.522-16.62,4.569-24.177c3.125-7.477,7.538-13.995,13.243-19.547c5.781-5.706,12.538-10.025,20.272-12.955
			c7.812-2.93,16.132-4.396,24.962-4.396c4.844,0,9.531,0.503,14.062,1.502c4.531,0.925,9.022,2.391,13.476,4.395V62.102z"/>
	</defs>
	<clipPath id="SVGID_2_">
		<use xlink:href="#SVGID_1_"  overflow="visible"/>
	</clipPath>
	<path clip-path="url(#SVGID_2_)" fill="#951A30" d="M318.981,62.365c-4.062-3.775-8.009-6.515-11.835-8.211
		c-3.986-1.851-8.205-2.776-12.656-2.776c-6.799,0-12.346,2.122-16.641,6.36c-4.219,4.164-6.328,9.757-6.328,16.774
		c0,6.863,2.031,12.298,6.094,16.308c3.982,4.09,9.335,6.133,16.054,6.133c3.828,0,7.969-0.849,12.422-2.546
		c3.984-1.618,8.594-4.358,13.828-8.214l-1.406,43.61c-4.609,1.928-9.219,3.316-13.828,4.164c-4.609,0.926-9.219,1.388-13.828,1.388
		c-5.938,0-11.446-0.617-16.522-1.851c-5.236-1.233-10.002-3.044-14.297-5.438c-10.393-5.78-18.283-13.261-23.672-22.44
		c-5.312-9.019-7.969-19.393-7.969-31.114c0-8.56,1.522-16.62,4.569-24.177c3.125-7.477,7.538-13.995,13.243-19.547
		c5.781-5.707,12.538-10.025,20.272-12.956c7.812-2.931,16.132-4.396,24.962-4.396c4.844,0,9.531,0.503,14.062,1.502
		c4.531,0.925,9.022,2.391,13.476,4.396V62.365z"/>
	<circle clip-path="url(#SVGID_2_)" fill="#FFFFFF" cx="245.572" cy="41.524" r="3.2"/>
	
		<line clip-path="url(#SVGID_2_)" fill="none" stroke="#FFFFFF" stroke-width="2" x1="233.973" y1="22.325" x2="245.505" y2="41.658"/>
	<g clip-path="url(#SVGID_2_)">
		<circle fill="#FFFFFF" cx="245.705" cy="41.524" r="3.2"/>
		<circle fill="#FFFFFF" cx="257.305" cy="60.725" r="3.2"/>
		<line fill="none" stroke="#FFFFFF" stroke-width="2" x1="245.705" y1="41.524" x2="257.238" y2="60.858"/>
		<circle fill="#FFFFFF" cx="234.104" cy="60.725" r="3.2"/>
		<line fill="none" stroke="#FFFFFF" stroke-width="2" x1="245.705" y1="41.524" x2="234.172" y2="60.858"/>
	</g>
	<circle clip-path="url(#SVGID_2_)" fill="#FFFFFF" cx="233.972" cy="60.725" r="3.2"/>
	<circle clip-path="url(#SVGID_2_)" fill="#FFFFFF" cx="245.572" cy="79.925" r="3.2"/>
	
		<line clip-path="url(#SVGID_2_)" fill="none" stroke="#FFFFFF" stroke-width="2" x1="233.973" y1="60.725" x2="245.505" y2="80.058"/>
	
		<line clip-path="url(#SVGID_2_)" fill="none" stroke="#FFFFFF" stroke-width="2" x1="233.973" y1="60.725" x2="222.439" y2="80.058"/>
	<circle clip-path="url(#SVGID_2_)" fill="#FFFFFF" cx="234.104" cy="99.125" r="3.2"/>
	<circle clip-path="url(#SVGID_2_)" fill="#FFFFFF" cx="245.705" cy="79.925" r="3.2"/>
	
		<line clip-path="url(#SVGID_2_)" fill="none" stroke="#FFFFFF" stroke-width="2" x1="245.705" y1="79.925" x2="257.238" y2="99.258"/>
	<circle clip-path="url(#SVGID_2_)" fill="#FFFFFF" cx="234.104" cy="99.125" r="3.2"/>
	
		<line clip-path="url(#SVGID_2_)" fill="none" stroke="#FFFFFF" stroke-width="2" x1="245.705" y1="79.925" x2="234.172" y2="99.258"/>
	<circle clip-path="url(#SVGID_2_)" fill="#FFFFFF" cx="257.172" cy="99.125" r="3.2"/>
	
		<line clip-path="url(#SVGID_2_)" fill="none" stroke="#FFFFFF" stroke-width="2" x1="245.572" y1="79.925" x2="257.105" y2="99.258"/>
	<circle clip-path="url(#SVGID_2_)" fill="#FFFFFF" cx="245.705" cy="118.324" r="3.2"/>
	<circle clip-path="url(#SVGID_2_)" fill="#FFFFFF" cx="245.705" cy="118.324" r="3.2"/>
	
		<line clip-path="url(#SVGID_2_)" fill="none" stroke="#FFFFFF" stroke-width="2" x1="257.305" y1="99.125" x2="245.771" y2="118.458"/>
</g>
<g>
	<defs>
		<path id="SVGID_3_" d="M332.766,122.4l13.478-32.505c5.781,4.09,11.172,7.134,16.172,9.14c4.531,1.927,8.944,2.89,13.241,2.89
			c2.891,0,5.196-0.539,6.915-1.619c1.638-1,2.46-2.465,2.46-4.396c0-3.159-4.141-5.626-12.422-7.403
			c-3.359-0.691-5.469-1.117-6.328-1.271c-8.828-2.159-15.547-5.938-20.156-11.336c-4.609-5.167-6.913-11.875-6.913-20.127
			c0-12.416,4.491-22.558,13.476-30.423s20.859-11.799,35.625-11.799c6.562,0,13.203,0.889,19.922,2.662
			c6.484,1.774,13.087,4.433,19.806,7.98l-12.891,30.306c-4.375-3.004-8.478-5.241-12.306-6.709
			c-3.906-1.542-7.854-2.313-11.835-2.313c-3.05,0-5.315,0.463-6.797,1.388c-1.644,0.925-2.462,2.276-2.462,4.05
			c0,3.393,5.859,6.286,17.578,8.674c2.188,0.543,3.631,0.888,4.337,1.042c7.888,1.774,14.257,5.398,19.101,10.873
			c4.688,5.552,7.031,12.301,7.031,20.242c0,12.801-4.729,23.288-14.179,31.463c-9.375,8.1-21.562,12.146-36.562,12.146
			c-7.894,0-15.628-1.079-23.203-3.238C348.428,130.188,340.734,126.95,332.766,122.4z"/>
	</defs>
	<clipPath id="SVGID_4_">
		<use xlink:href="#SVGID_3_"  overflow="visible"/>
	</clipPath>
	<path clip-path="url(#SVGID_4_)" fill="#951A30" d="M332.498,122.4l13.479-32.505c5.781,4.09,11.172,7.134,16.172,9.14
		c4.531,1.927,8.943,2.89,13.24,2.89c2.891,0,5.197-0.539,6.916-1.619c1.638-1,2.459-2.465,2.459-4.396
		c0-3.159-4.141-5.626-12.422-7.403c-3.359-0.691-5.469-1.117-6.328-1.271c-8.828-2.159-15.547-5.938-20.156-11.336
		c-4.609-5.167-6.912-11.875-6.912-20.127c0-12.416,4.49-22.558,13.475-30.423s20.859-11.799,35.625-11.799
		c6.562,0,13.203,0.889,19.922,2.662c6.484,1.774,13.088,4.433,19.807,7.98l-12.891,30.306c-4.375-3.004-8.479-5.241-12.307-6.709
		c-3.906-1.542-7.853-2.313-11.834-2.313c-3.05,0-5.315,0.463-6.797,1.388c-1.644,0.925-2.463,2.276-2.463,4.05
		c0,3.393,5.859,6.286,17.578,8.674c2.188,0.543,3.632,0.888,4.338,1.042c7.888,1.774,14.256,5.398,19.1,10.873
		c4.688,5.552,7.031,12.301,7.031,20.242c0,12.801-4.728,23.288-14.178,31.463c-9.375,8.1-21.562,12.146-36.562,12.146
		c-7.894,0-15.628-1.079-23.203-3.238C348.161,130.188,340.467,126.95,332.498,122.4z"/>
	<circle clip-path="url(#SVGID_4_)" fill="#FFFFFF" cx="366.772" cy="20.725" r="3.2"/>
	<circle clip-path="url(#SVGID_4_)" fill="#FFFFFF" cx="355.172" cy="39.925" r="3.2"/>
	
		<line clip-path="url(#SVGID_4_)" fill="none" stroke="#FFFFFF" stroke-width="2" x1="366.771" y1="20.725" x2="355.239" y2="40.058"/>
	<circle clip-path="url(#SVGID_4_)" fill="#FFFFFF" cx="378.372" cy="39.925" r="3.2"/>
	
		<line clip-path="url(#SVGID_4_)" fill="none" stroke="#FFFFFF" stroke-width="2" x1="366.771" y1="20.725" x2="378.305" y2="40.058"/>
	<g clip-path="url(#SVGID_4_)">
		<circle fill="#FFFFFF" cx="355.04" cy="39.925" r="3.2"/>
		<circle fill="#FFFFFF" cx="343.439" cy="59.125" r="3.2"/>
		<line fill="none" stroke="#FFFFFF" stroke-width="2" x1="355.039" y1="39.925" x2="343.506" y2="59.258"/>
		<circle fill="#FFFFFF" cx="366.64" cy="59.125" r="3.2"/>
		<line fill="none" stroke="#FFFFFF" stroke-width="2" x1="355.039" y1="39.925" x2="366.572" y2="59.258"/>
	</g>
	<circle clip-path="url(#SVGID_4_)" fill="#FFFFFF" cx="366.772" cy="59.125" r="3.2"/>
	<circle clip-path="url(#SVGID_4_)" fill="#FFFFFF" cx="355.172" cy="78.325" r="3.2"/>
	
		<line clip-path="url(#SVGID_4_)" fill="none" stroke="#FFFFFF" stroke-width="2" x1="366.771" y1="59.125" x2="355.239" y2="78.458"/>
	<circle clip-path="url(#SVGID_4_)" fill="#FFFFFF" cx="378.372" cy="78.325" r="3.2"/>
	
		<line clip-path="url(#SVGID_4_)" fill="none" stroke="#FFFFFF" stroke-width="2" x1="366.771" y1="59.125" x2="378.305" y2="78.458"/>
	<circle clip-path="url(#SVGID_4_)" fill="#FFFFFF" cx="378.239" cy="78.325" r="3.2"/>
	
		<line clip-path="url(#SVGID_4_)" fill="none" stroke="#FFFFFF" stroke-width="2" x1="378.239" y1="78.325" x2="366.705" y2="97.658"/>
	<circle clip-path="url(#SVGID_4_)" fill="#FFFFFF" cx="389.839" cy="97.524" r="3.2"/>
	
		<line clip-path="url(#SVGID_4_)" fill="none" stroke="#FFFFFF" stroke-width="2" x1="378.239" y1="78.325" x2="389.771" y2="97.658"/>
	<circle clip-path="url(#SVGID_4_)" fill="#FFFFFF" cx="378.772" cy="116.725" r="3.2"/>
	<circle clip-path="url(#SVGID_4_)" fill="#FFFFFF" cx="389.839" cy="97.524" r="3.2"/>
	<circle clip-path="url(#SVGID_4_)" fill="#FFFFFF" cx="355.04" cy="78.325" r="3.2"/>
	
		<line clip-path="url(#SVGID_4_)" fill="none" stroke="#FFFFFF" stroke-width="2" x1="355.039" y1="78.325" x2="366.572" y2="97.658"/>
	<circle clip-path="url(#SVGID_4_)" fill="#FFFFFF" cx="378.905" cy="116.725" r="3.2"/>
	
		<line clip-path="url(#SVGID_4_)" fill="none" stroke="#FFFFFF" stroke-width="2" x1="367.305" y1="97.524" x2="378.838" y2="116.858"/>
</g>
<g>
	<defs>
		<path id="SVGID_5_" d="M85.244,74.259c-0.156,3.519-1.016,9.104-2.578,16.76c-0.391,1.172-0.625,2.109-0.703,2.812l-8.787,40.078
			H36.259L1.925,16.253h42.422l9.256,51.797c0.312,2.344,0.625,4.553,0.938,6.622s0.584,4.041,0.822,5.916
			c0.387,3.363,0.662,6.878,0.818,10.547h0.938c0.078-4.688,0.938-10.818,2.578-18.396c0-0.234,0.019-0.51,0.06-0.822
			c0.038-0.312,0.097-0.584,0.175-0.818l11.25-54.844h29.766l11.135,54.959c0.075,0.394,0.193,0.9,0.35,1.525
			c1.484,7.812,2.307,13.947,2.463,18.396h1.053c0-2.031,0.234-5.547,0.703-10.547c0.469-4.293,1.094-8.475,1.875-12.537
			l9.26-51.797h42.422l-34.338,117.656H98.957L90.05,93.831l-0.588-2.932C87.9,84.262,87,78.715,86.769,74.259H85.244z"/>
	</defs>
	<clipPath id="SVGID_6_">
		<use xlink:href="#SVGID_5_"  overflow="visible"/>
	</clipPath>
	<path clip-path="url(#SVGID_6_)" fill="#951A30" d="M85.244,74.259c-0.156,3.519-1.016,9.104-2.578,16.76
		c-0.391,1.172-0.625,2.109-0.703,2.812l-8.788,40.078H36.26L1.925,16.253h42.422l9.256,51.797c0.312,2.344,0.625,4.553,0.938,6.622
		s0.584,4.041,0.822,5.916c0.388,3.363,0.663,6.878,0.819,10.547h0.938c0.078-4.688,0.938-10.818,2.578-18.396
		c0-0.234,0.019-0.51,0.06-0.822c0.038-0.312,0.097-0.584,0.175-0.818l11.25-54.844h29.765l11.135,54.959
		c0.075,0.394,0.193,0.9,0.35,1.525c1.484,7.812,2.307,13.947,2.463,18.396h1.053c0-2.031,0.234-5.547,0.703-10.547
		c0.469-4.293,1.094-8.475,1.875-12.537l9.26-51.797h42.422l-34.338,117.656H98.957L90.05,93.831l-0.588-2.932
		C87.9,84.262,87,78.715,86.769,74.259H85.244z"/>
	<circle clip-path="url(#SVGID_6_)" fill="#FFFFFF" cx="27.572" cy="19.125" r="3.2"/>
	<circle clip-path="url(#SVGID_6_)" fill="#FFFFFF" cx="15.972" cy="38.325" r="3.2"/>
	
		<line clip-path="url(#SVGID_6_)" fill="none" stroke="#FFFFFF" stroke-width="2" x1="27.572" y1="19.125" x2="16.039" y2="38.458"/>
	<circle clip-path="url(#SVGID_6_)" fill="#FFFFFF" cx="39.172" cy="38.325" r="3.2"/>
	
		<line clip-path="url(#SVGID_6_)" fill="none" stroke="#FFFFFF" stroke-width="2" x1="27.572" y1="19.125" x2="39.105" y2="38.458"/>
	<g clip-path="url(#SVGID_6_)">
		<circle fill="#FFFFFF" cx="15.839" cy="38.325" r="3.2"/>
		<line fill="none" stroke="#FFFFFF" stroke-width="2" x1="15.839" y1="38.325" x2="4.306" y2="57.658"/>
		<circle fill="#FFFFFF" cx="27.439" cy="57.524" r="3.2"/>
		<line fill="none" stroke="#FFFFFF" stroke-width="2" x1="15.839" y1="38.325" x2="27.372" y2="57.658"/>
	</g>
	<circle clip-path="url(#SVGID_6_)" fill="#FFFFFF" cx="27.572" cy="57.524" r="3.2"/>
	
		<line clip-path="url(#SVGID_6_)" fill="none" stroke="#FFFFFF" stroke-width="2" x1="27.572" y1="57.524" x2="16.039" y2="76.858"/>
	<circle clip-path="url(#SVGID_6_)" fill="#FFFFFF" cx="39.172" cy="76.725" r="3.2"/>
	
		<line clip-path="url(#SVGID_6_)" fill="none" stroke="#FFFFFF" stroke-width="2" x1="27.572" y1="57.524" x2="39.105" y2="76.858"/>
	<circle clip-path="url(#SVGID_6_)" fill="#FFFFFF" cx="39.039" cy="76.725" r="3.2"/>
	
		<line clip-path="url(#SVGID_6_)" fill="none" stroke="#FFFFFF" stroke-width="2" x1="39.039" y1="76.725" x2="27.505" y2="96.059"/>
	<circle clip-path="url(#SVGID_6_)" fill="#FFFFFF" cx="50.639" cy="95.925" r="3.2"/>
	
		<line clip-path="url(#SVGID_6_)" fill="none" stroke="#FFFFFF" stroke-width="2" x1="39.039" y1="76.725" x2="50.572" y2="96.059"/>
	<circle clip-path="url(#SVGID_6_)" fill="#FFFFFF" cx="39.572" cy="115.125" r="3.2"/>
	<circle clip-path="url(#SVGID_6_)" fill="#FFFFFF" cx="50.639" cy="95.925" r="3.2"/>
	
		<line clip-path="url(#SVGID_6_)" fill="none" stroke="#FFFFFF" stroke-width="2" x1="39.572" y1="115.125" x2="28.039" y2="134.458"/>
	<circle clip-path="url(#SVGID_6_)" fill="#FFFFFF" cx="28.105" cy="95.925" r="3.2"/>
	<circle clip-path="url(#SVGID_6_)" fill="#FFFFFF" cx="39.705" cy="115.125" r="3.2"/>
	
		<line clip-path="url(#SVGID_6_)" fill="none" stroke="#FFFFFF" stroke-width="2" x1="28.105" y1="95.925" x2="39.638" y2="115.258"/>
</g>
<g>
	<defs>
		<circle id="SVGID_7_" cx="197.571" cy="32.191" r="16.667"/>
	</defs>
	<clipPath id="SVGID_8_">
		<use xlink:href="#SVGID_7_"  overflow="visible"/>
	</clipPath>
	<g clip-path="url(#SVGID_8_)">
		<path fill="#951A30" d="M178.102,133.109V15.453h43.009v117.657H178.102z"/>
		<circle fill="#FFFFFF" cx="208.373" cy="57.125" r="3.2"/>
		<circle fill="#FFFFFF" cx="196.772" cy="37.925" r="3.2"/>
		<line fill="none" stroke="#FFFFFF" stroke-width="2" x1="196.772" y1="37.925" x2="208.306" y2="57.258"/>
		<circle fill="#FFFFFF" cx="185.172" cy="57.125" r="3.2"/>
		<line fill="none" stroke="#FFFFFF" stroke-width="2" x1="196.772" y1="37.925" x2="185.24" y2="57.258"/>
		<circle fill="#FFFFFF" cx="185.306" cy="57.125" r="3.2"/>
		<circle fill="#FFFFFF" cx="196.906" cy="76.325" r="3.2"/>
		<line fill="none" stroke="#FFFFFF" stroke-width="2" x1="185.306" y1="57.125" x2="196.839" y2="76.458"/>
		<line fill="none" stroke="#FFFFFF" stroke-width="2" x1="185.306" y1="57.125" x2="173.773" y2="76.458"/>
		<circle fill="#FFFFFF" cx="196.906" cy="37.925" r="3.2"/>
		<line fill="none" stroke="#FFFFFF" stroke-width="2" x1="185.306" y1="18.725" x2="196.839" y2="38.058"/>
		<line fill="none" stroke="#FFFFFF" stroke-width="2" x1="185.306" y1="18.725" x2="173.773" y2="38.058"/>
		<rect x="178.102" y="15.453" fill="none" width="43.009" height="117.657"/>
	</g>
</g>
<g>
	<defs>
		<rect id="SVGID_9_" x="181.305" y="53.658" width="32.933" height="81.067"/>
	</defs>
	<clipPath id="SVGID_10_">
		<use xlink:href="#SVGID_9_"  overflow="visible"/>
	</clipPath>
	<g clip-path="url(#SVGID_10_)">
		<path fill="#951A30" d="M178.102,133.909V16.253h43.009v117.656H178.102z"/>
		<circle fill="#FFFFFF" cx="208.372" cy="57.925" r="3.2"/>
		<circle fill="#FFFFFF" cx="196.772" cy="38.725" r="3.2"/>
		<line fill="none" stroke="#FFFFFF" stroke-width="2" x1="196.772" y1="38.725" x2="208.305" y2="58.058"/>
		<circle fill="#FFFFFF" cx="185.172" cy="57.925" r="3.2"/>
		<line fill="none" stroke="#FFFFFF" stroke-width="2" x1="196.772" y1="38.725" x2="185.24" y2="58.058"/>
		<circle fill="#FFFFFF" cx="185.306" cy="57.925" r="3.2"/>
		<circle fill="#FFFFFF" cx="196.906" cy="77.125" r="3.2"/>
		<line fill="none" stroke="#FFFFFF" stroke-width="2" x1="185.306" y1="57.925" x2="196.839" y2="77.258"/>
		<line fill="none" stroke="#FFFFFF" stroke-width="2" x1="185.306" y1="57.925" x2="173.773" y2="77.258"/>
		<circle fill="#FFFFFF" cx="196.906" cy="38.725" r="3.2"/>
		<line fill="none" stroke="#FFFFFF" stroke-width="2" x1="185.306" y1="19.524" x2="196.839" y2="38.858"/>
		<line fill="none" stroke="#FFFFFF" stroke-width="2" x1="185.306" y1="19.524" x2="173.773" y2="38.858"/>
		<rect x="178.102" y="16.253" fill="none" width="43.009" height="117.656"/>
	</g>
</g>
</svg>
