<svg clip-rule="evenodd" fill-rule="evenodd" height="653.333" image-rendering="optimizeQuality" shape-rendering="geometricPrecision" text-rendering="geometricPrecision" viewBox="0 0 14556 6806" width="1397.338" xmlns="http://www.w3.org/2000/svg" xmlns:xlink="http://www.w3.org/1999/xlink"><linearGradient id="a" gradientUnits="userSpaceOnUse" x1="12227.1" x2="12147.3" y1="4420.87" y2="4282.76"><stop offset="0" stop-color="#f26b35"/><stop offset="1" stop-color="#c0333d"/></linearGradient><linearGradient id="ag" gradientUnits="userSpaceOnUse" x1="13887.2" x2="10679" xlink:href="#a" y1="5546.86" y2="-10"/><linearGradient id="af" gradientUnits="userSpaceOnUse" x1="13712.5" x2="10504.3" xlink:href="#a" y1="5546.85" y2="-10.012"/><linearGradient id="c" gradientUnits="userSpaceOnUse" x1="5799.27" x2="3257.73" xlink:href="#a" y1="5599.13" y2="1197.06"/><linearGradient id="aG" gradientUnits="userSpaceOnUse" x1="11130.9" x2="10872.4" xlink:href="#a" y1="4683.87" y2="4236.24"/><linearGradient id="aH" gradientUnits="userSpaceOnUse" x1="10810.3" x2="10551.8" xlink:href="#a" y1="5252.7" y2="4805.07"/><linearGradient id="at" gradientUnits="userSpaceOnUse" x1="12782.5" x2="12524" xlink:href="#a" y1="2940.05" y2="2492.42"/><linearGradient id="aL" gradientUnits="userSpaceOnUse" x1="10840.1" x2="10580.7" xlink:href="#a" y1="4883.67" y2="4434.34"/><linearGradient id="ao" gradientUnits="userSpaceOnUse" x1="11168.8" x2="10909.4" xlink:href="#a" y1="4300.42" y2="3851.09"/><linearGradient id="ap" gradientUnits="userSpaceOnUse" x1="11524.8" x2="11265.4" xlink:href="#a" y1="4855.82" y2="4406.48"/><linearGradient id="az" gradientUnits="userSpaceOnUse" x1="12140" x2="11880.5" xlink:href="#a" y1="2576.85" y2="2127.52"/><linearGradient id="ay" gradientUnits="userSpaceOnUse" x1="12464.9" x2="12205.5" xlink:href="#a" y1="2000.28" y2="1550.94"/><linearGradient id="al" gradientUnits="userSpaceOnUse" x1="11482.6" x2="11224.1" xlink:href="#a" y1="5246.87" y2="4799.22"/><linearGradient id="ae" gradientUnits="userSpaceOnUse" x1="11814.7" x2="11555.3" xlink:href="#a" y1="3154.47" y2="2705.13"/><linearGradient id="ar" gradientUnits="userSpaceOnUse" x1="12178.8" x2="11919.4" xlink:href="#a" y1="3695.44" y2="3246.12"/><linearGradient id="aC" gradientUnits="userSpaceOnUse" x1="12785.9" x2="12526.4" xlink:href="#a" y1="1430.92" y2="981.579"/><linearGradient id="aD" gradientUnits="userSpaceOnUse" x1="13114.6" x2="12855.2" xlink:href="#a" y1="847.661" y2="398.323"/><linearGradient id="ai" gradientUnits="userSpaceOnUse" x1="13150" x2="12890.5" xlink:href="#a" y1="1971.89" y2="1522.56"/><linearGradient id="ac" gradientUnits="userSpaceOnUse" x1="11464" x2="11205.5" xlink:href="#a" y1="4092.88" y2="3645.24"/><linearGradient id="am" gradientUnits="userSpaceOnUse" x1="12136.3" x2="11877.8" xlink:href="#a" y1="4087.03" y2="3639.4"/><linearGradient id="aE" gradientUnits="userSpaceOnUse" x1="12756" x2="12497.6" xlink:href="#a" y1="1799.95" y2="1352.31"/><linearGradient id="aF" gradientUnits="userSpaceOnUse" x1="13076.6" x2="12818.2" xlink:href="#a" y1="1231.11" y2="783.476"/><linearGradient id="q" gradientUnits="userSpaceOnUse" x1="10724.5" x2="10398" xlink:href="#a" y1="4685.65" y2="4120.08"/><linearGradient id="an" gradientUnits="userSpaceOnUse" x1="11811.3" x2="11552.9" xlink:href="#a" y1="4663.6" y2="4215.97"/><linearGradient id="aA" gradientUnits="userSpaceOnUse" x1="12435.1" x2="12176.7" xlink:href="#a" y1="2369.31" y2="1921.69"/><linearGradient id="ax" gradientUnits="userSpaceOnUse" x1="13409.7" x2="13151.3" xlink:href="#a" y1="640.118" y2="192.488"/><linearGradient id="i" gradientUnits="userSpaceOnUse" x1="10393" x2="10064.4" xlink:href="#a" y1="5274.02" y2="4704.93"/><linearGradient id="ad" gradientUnits="userSpaceOnUse" x1="12103.4" x2="11843.2" xlink:href="#a" y1="2960.02" y2="2509.34"/><linearGradient id="j" gradientUnits="userSpaceOnUse" x1="11054.3" x2="10729.8" xlink:href="#a" y1="4100.23" y2="3538.14"/><linearGradient id="aI" gradientUnits="userSpaceOnUse" x1="10519.2" x2="10259.8" xlink:href="#a" y1="5453.04" y2="5003.7"/><linearGradient id="as" gradientUnits="userSpaceOnUse" x1="13107.4" x2="12849" xlink:href="#a" y1="2363.47" y2="1915.84"/><linearGradient id="f" gradientUnits="userSpaceOnUse" x1="12386.1" x2="12069.7" xlink:href="#a" y1="1736.67" y2="1188.66"/><linearGradient id="au" gradientUnits="userSpaceOnUse" x1="12497.3" x2="12236.2" xlink:href="#a" y1="3131.96" y2="2679.61"/><linearGradient id="r" gradientUnits="userSpaceOnUse" x1="11222.8" x2="10899.3" xlink:href="#a" y1="3801.25" y2="3240.95"/><linearGradient id="J" gradientUnits="userSpaceOnUse" x1="12883" x2="12569.7" xlink:href="#a" y1="854.673" y2="311.909"/><linearGradient id="aa" gradientUnits="userSpaceOnUse" x1="11493.8" x2="11234.4" xlink:href="#a" y1="3723.83" y2="3274.5"/><linearGradient id="aq" gradientUnits="userSpaceOnUse" x1="12829.1" x2="12569.6" xlink:href="#a" y1="2541.26" y2="2091.94"/><linearGradient id="e" gradientUnits="userSpaceOnUse" x1="12553.2" x2="12237.8" xlink:href="#a" y1="1440.09" y2="893.843"/><linearGradient id="X" gradientUnits="userSpaceOnUse" x1="13803.6" x2="13544.2" xlink:href="#a" y1="812.055" y2="362.732"/><linearGradient id="E" gradientUnits="userSpaceOnUse" x1="12717.6" x2="12403.2" xlink:href="#a" y1="1148.32" y2="603.807"/><linearGradient id="k" gradientUnits="userSpaceOnUse" x1="11387.2" x2="11064.7" xlink:href="#a" y1="3509.48" y2="2950.91"/><linearGradient id="o" gradientUnits="userSpaceOnUse" x1="11888.8" x2="11569.4" xlink:href="#a" y1="2619.21" y2="2065.94"/><linearGradient id="n" gradientUnits="userSpaceOnUse" x1="12053.2" x2="11734.8" xlink:href="#a" y1="2327.42" y2="1775.89"/><linearGradient id="h" gradientUnits="userSpaceOnUse" x1="12221.7" x2="11904.3" xlink:href="#a" y1="2028.45" y2="1478.7"/><linearGradient id="V" gradientUnits="userSpaceOnUse" x1="13470.6" x2="13211.1" xlink:href="#a" y1="1403.06" y2="953.732"/><linearGradient id="l" gradientUnits="userSpaceOnUse" x1="10560.1" x2="10232.6" xlink:href="#a" y1="4977.43" y2="4410.12"/><linearGradient id="m" gradientUnits="userSpaceOnUse" x1="11718.4" x2="11398.5" xlink:href="#a" y1="2921.3" y2="2367.17"/><linearGradient id="Z" gradientUnits="userSpaceOnUse" x1="14082.1" x2="13823.6" xlink:href="#a" y1="634.272" y2="186.642"/><linearGradient id="g" gradientUnits="userSpaceOnUse" x1="10889.9" x2="10564.4" xlink:href="#a" y1="4392.01" y2="3828.18"/><linearGradient id="aj" gradientUnits="userSpaceOnUse" x1="11204.2" x2="10944.8" xlink:href="#a" y1="5424.65" y2="4975.32"/><linearGradient id="p" gradientUnits="userSpaceOnUse" x1="11554.3" x2="11232.8" xlink:href="#a" y1="3212.89" y2="2656.09"/><linearGradient id="ak" gradientUnits="userSpaceOnUse" x1="11857.9" x2="11598.5" xlink:href="#a" y1="4264.82" y2="3815.5"/><linearGradient id="aK" gradientUnits="userSpaceOnUse" x1="10218.8" x2="9908.8" xlink:href="#a" y1="5525.35" y2="4988.39"/><linearGradient id="K" gradientUnits="userSpaceOnUse" x1="13047.4" x2="12735.1" xlink:href="#a" y1="562.894" y2="21.87"/><linearGradient id="ab" gradientUnits="userSpaceOnUse" x1="11784.9" x2="11526.4" xlink:href="#a" y1="3523.5" y2="3075.87"/><linearGradient id="U" gradientUnits="userSpaceOnUse" x1="13428.3" x2="13169.9" xlink:href="#a" y1="1794.1" y2="1346.46"/><linearGradient id="Y" gradientUnits="userSpaceOnUse" x1="13757.1" x2="13498.6" xlink:href="#a" y1="1210.85" y2="763.209"/><linearGradient id="av" gradientUnits="userSpaceOnUse" x1="12457.2" x2="12198.7" xlink:href="#a" y1="3517.68" y2="3070.03"/><linearGradient id="M" gradientUnits="userSpaceOnUse" x1="13544.2" x2="13498.6" xlink:href="#a" y1="68.819" y2="-10.126"/><linearGradient id="Q" gradientUnits="userSpaceOnUse" x1="14213.6" x2="14171.5" xlink:href="#a" y1="62.929" y2="-9.89"/><linearGradient id="I" gradientUnits="userSpaceOnUse" x1="13158.5" x2="12980.5" xlink:href="#a" y1="294.126" y2="-14.236"/><linearGradient id="d" gradientUnits="userSpaceOnUse" x1="9000.72" x2="6268.51" xlink:href="#a" y1="5788.36" y2="1056.04"/><linearGradient id="aM" gradientUnits="userSpaceOnUse" x1="10824.7" x2="8826.53" xlink:href="#a" y1="5191.13" y2="1730.12"/><linearGradient id="b" gradientUnits="userSpaceOnUse" x1="4219.31" x2="901.571" xlink:href="#a" y1="6900.41" y2="1153.93"/><linearGradient id="L" gradientUnits="userSpaceOnUse" x1="13226.4" x2="13221.8" xlink:href="#a" y1="-2.102" y2="-9.898"/><linearGradient id="aJ" gradientUnits="userSpaceOnUse" x1="9947.83" x2="9780.52" xlink:href="#a" y1="5550.3" y2="5260.51"/><linearGradient id="H" gradientUnits="userSpaceOnUse" x1="13393.3" x2="13226.4" xlink:href="#a" y1="273.575" y2="-15.449"/><linearGradient id="P" gradientUnits="userSpaceOnUse" x1="14071.3" x2="13918.5" xlink:href="#a" y1="247.244" y2="-17.402"/><linearGradient id="G" gradientUnits="userSpaceOnUse" x1="14214.4" x2="14017.7" xlink:href="#a" y1="719.315" y2="378.685"/><linearGradient id="v" gradientUnits="userSpaceOnUse" x1="13727.6" x2="13525.9" xlink:href="#a" y1="1606.38" y2="1257.06"/><linearGradient id="N" gradientUnits="userSpaceOnUse" x1="14374.9" x2="14179.9" xlink:href="#a" y1="426.669" y2="88.882"/><linearGradient id="x" gradientUnits="userSpaceOnUse" x1="13889.2" x2="13689.2" xlink:href="#a" y1="1311.86" y2="965.413"/><linearGradient id="t" gradientUnits="userSpaceOnUse" x1="14049.8" x2="13851.4" xlink:href="#a" y1="1019.2" y2="675.618"/><linearGradient id="u" gradientUnits="userSpaceOnUse" x1="13567" x2="13363.6" xlink:href="#a" y1="1899.04" y2="1546.84"/><linearGradient id="s" gradientUnits="userSpaceOnUse" x1="13403.7" x2="13198.7" xlink:href="#a" y1="2196.51" y2="1841.42"/><linearGradient id="D" gradientUnits="userSpaceOnUse" x1="12749.1" x2="12542.7" xlink:href="#a" y1="3379.83" y2="3022.48"/><linearGradient id="T" gradientUnits="userSpaceOnUse" x1="11939.3" x2="11724.9" xlink:href="#a" y1="4854.98" y2="4483.54"/><linearGradient id="aw" gradientUnits="userSpaceOnUse" x1="11617.1" x2="11399.4" xlink:href="#a" y1="5442.09" y2="5065.05"/><linearGradient id="y" gradientUnits="userSpaceOnUse" x1="13240.5" x2="13039.1" xlink:href="#a" y1="2484.58" y2="2135.79"/><linearGradient id="ah" gradientUnits="userSpaceOnUse" x1="11777.7" x2="11561.6" xlink:href="#a" y1="5149.47" y2="4775.22"/><linearGradient id="w" gradientUnits="userSpaceOnUse" x1="13075.9" x2="12872.9" xlink:href="#a" y1="2784.42" y2="2432.77"/><linearGradient id="C" gradientUnits="userSpaceOnUse" x1="12588.4" x2="12380.5" xlink:href="#a" y1="3672.46" y2="3312.31"/><linearGradient id="B" gradientUnits="userSpaceOnUse" x1="12099.9" x2="11887.1" xlink:href="#a" y1="4562.35" y2="4193.71"/><linearGradient id="R" gradientUnits="userSpaceOnUse" x1="12425.2" x2="12215.6" xlink:href="#a" y1="3969.89" y2="3606.9"/><linearGradient id="z" gradientUnits="userSpaceOnUse" x1="12264.6" x2="12053.4" xlink:href="#a" y1="4262.51" y2="3896.73"/><linearGradient id="F" gradientUnits="userSpaceOnUse" x1="12915.3" x2="12710.6" xlink:href="#a" y1="3077.05" y2="2722.6"/><linearGradient id="A" gradientUnits="userSpaceOnUse" x1="12123.6" x2="12090.4" xlink:href="#a" y1="4473.78" y2="4416.26"/><linearGradient id="W" gradientUnits="userSpaceOnUse" x1="11089.2" x2="10975.7" xlink:href="#a" y1="5557.09" y2="5360.41"/><linearGradient id="aB" gradientUnits="userSpaceOnUse" x1="10414.5" x2="10305.8" xlink:href="#a" y1="5555.77" y2="5367.57"/><linearGradient id="O" gradientUnits="userSpaceOnUse" x1="14436.5" x2="14345.4" xlink:href="#a" y1="133.291" y2="-24.528"/><linearGradient id="S" gradientUnits="userSpaceOnUse" x1="11453.5" x2="11332.1" xlink:href="#a" y1="5568.52" y2="5358.3"/><path d="M3452 1249L0 6806h1806l3315-5556z" fill="url(#b)"/><path d="M5555 4607c-98-247-148-525-148-827s42-592 125-865l-286-1666-29 48-997 1672 99 860h-612l-644 1080h1372l95 638h1464l-62-352c-161-166-288-364-377-588z" fill="url(#c)"/><path d="M7656 2541c126-63 266-95 421-95 150 0 286 25 406 76s217 131 290 236l981-1014c-151-171-368-314-653-430s-614-174-988-174c-378 0-726 69-1043 207s-592 327-824 567-412 521-540 842-192 667-192 1037c0 289 47 551 140 787 94 236 229 437 406 604s392 295 647 384c254 89 544 134 869 134 216 0 412-18 589-55s336-83 479-140c142-57 269-123 381-198s210-149 296-223l-695-1037c-98 94-214 173-348 238s-279 98-433 98c-264 0-463-73-595-220-132-146-198-325-198-537 0-163 24-315 73-458 49-142 118-267 207-375s197-193 323-256z" fill="url(#d)"/><path d="M12288 1191l25 63 24 62 25 63 24 63 10 24 25-45 64-113 49-87-6-15-24-63-25-62-24-63-25-63-24-62-10-25-26 45-65 114-48 85 6 16z" fill="url(#e)"/><path d="M12130 1512l25 63 24 63 25 62 25 63 64-114 64-114 10-18-21-52-24-63-25-63-24-62-25-63-20-52-54 94-65 115-20 35 17 44z" fill="url(#f)"/><path d="M10625 4148l25 63 24 63 25 62 24 63 8 20 21-37 65-114 53-94-4-11-25-63-25-62-24-63-25-63-24-62-19-49-50 88-66 114-23 42 16 41z" fill="url(#g)"/><path d="M11952 1769l25 63 24 62 25 63 24 63 14 35 36-64 64-114 38-68-10-25-24-63-25-62-24-63-25-63-24-62-7-19-19 33-65 115-55 96 4 10z" fill="url(#h)"/><path d="M10134 5046l25 63 24 63 25 62 24 63 2 5 5-9 64-114 64-114 5-9-22-57-25-63-24-63-25-62-24-63-25-63-3-8-6 10-65 114-64 114-4 6 25 63z" fill="url(#i)"/><path d="M10779 3829l25 63 24 62 25 63 24 63 19 47 49-87 64-113 25-45-15-38-24-63-25-62-24-63-25-63-24-62-8-20-20 34-65 115-54 95 4 11z" fill="url(#j)"/><path d="M11117 3250l24 63 25 62 24 63 25 63 14 35 37-65 64-114 37-66-10-26-24-63-25-63-25-62-24-63-25-62-10-28-28 49-66 114-45 81 7 19z" fill="url(#k)"/><path d="M10292 4725l24 63 25 62 24 63 25 63 11 29 30-54 65-113 44-79-8-19-25-63-24-63-25-62-24-63-25-62-17-44-44 76-65 114-30 53 14 36z" fill="url(#l)"/><path d="M11453 2672l24 63 25 62 24 63 25 62 10 26 26-46 64-114 48-86-6-15-25-63-24-63-25-62-24-63-25-63-14-32-34 60-65 114-39 68 10 26z" fill="url(#m)"/><path d="M11793 2091l24 63 25 63 24 62 25 63 4 12 13-22 64-113 62-111-1-2-25-62-24-63-25-63-24-62-25-63-17-44-45 79-65 115-29 50 14 36z" fill="url(#n)"/><path d="M11614 2348l25 63 24 62 25 63 24 63 19 47 48-86 64-114 26-46-14-37-25-63-24-62-25-63-24-63-25-62-4-11-10 18-66 115-63 111 1 2z" fill="url(#o)"/><path d="M11299 2991l24 63 25 62 24 63 24 61 62-110 65-114 12-22-20-51-25-62-24-63-25-63-24-62-25-64-66 115-65 115-8 14 21 55z" fill="url(#p)"/><path d="M10445 4406l25 62 24 63 25 63 25 62 22 57 58-103 64-114 16-28-18-47-25-63-24-63-25-62-24-63-25-63-6-14-14 25-65 114-60 104 3 7z" fill="url(#q)"/><path d="M10963 3569l24 63 25 62 25 63 24 63 3 8 9-15 64-114 65-114 1-2-24-62-25-62-24-63-25-63-24-62-23-57-58 102-65 115-16 27 19 48z" fill="url(#r)"/><path d="M13303 1911l-110 24-33 58-64 114-41 73 76-16 214-47 70-15 20-37 61-112 52-95-32 7z" fill="url(#s)"/><path d="M13855 760l-53 95-64 114-21 37 143-31 192-42 54-101 62-112 17-31-154 33z" fill="url(#t)"/><path d="M13386 1632l-26 6-7 14-65 114-64 114-2 3 206-44 147-32 43-78 61-112 30-55-110 24z" fill="url(#u)"/><path d="M13525 1346l-44 78-64 114-31 54 113-25 213-46 22-5 6-11 61-112 61-112 5-9-196 42z" fill="url(#v)"/><path d="M12930 2511l-70 15-21 37-64 114-53 94 36-8 213-46 123-27 35-64 61-112 37-68-84 18z" fill="url(#w)"/><path d="M13747 1040l-57 12-17 30-64 114-57 102 23-5 213-46 105-23 30-55 61-112 42-78-66 15z" fill="url(#x)"/><path d="M13029 2227l-62 108-64 114-13 23 170-37 196-42 56-103 61-113 16-29-157 35z" fill="url(#y)"/><path d="M12110 3983l-81 17-24 43-64 114-50 89 47-11 213-46 143-31 41-75 61-112 31-57-104 22z" fill="url(#z)"/><path d="M12152 4419l-90 52 70-15z" fill="url(#A)"/><path d="M12021 4264l-161 35-48 86-64 114-26 46 127-28 213-46 86-50 64-114 14-25 39-71-31 7z" fill="url(#B)"/><path d="M12477 3386l-116 25-35 63-65 114-39 69 84-18 213-46 94-21 28-50 61-112 45-82-57 12z" fill="url(#C)"/><path d="M12549 3114l-24 6-7 12-64 114-64 114-3 5 203-44 182-39 52-96 61-112 20-37-143 31z" fill="url(#D)"/><path d="M12466 934l25 63 24 63 25 62 20 52 54-94 64-114 21-37-17-42-24-63-25-63-24-62-25-63-23-58-60 106-66 114-13 24 20 50z" fill="url(#E)"/><path d="M12695 2818l-48 86-65 114-25 45 129-28 214-46 36-8 10-19 61-112 61-112 1-1-211 45z" fill="url(#F)"/><path d="M14120 440l-97 21-29 52-64 114-45 80 64-14 213-46 52-11 15-28 61-112 57-105-14 3z" fill="url(#G)"/><path d="M13309-10h127l14 69 14 69 3 11-77 32-237 97 31-55 64-114z" fill="url(#H)"/><path d="M13022 196l-14-36-24-62-25-63-17-45h234l21 54-6 11-64 114-64 114-4 7-2-4-24-63z" fill="url(#I)"/><path d="M12622 614l24 63 25 63 24 62 25 63 6 16 16-29 64-114 58-103-2-6-25-62-24-63-25-63-24-62-25-63-11-30-32 54-65 115-43 75 9 22z" fill="url(#J)"/><path d="M12800 358l24 62 25 63 25 63 16 43 44-79 65-113 30-54-13-33-25-63-24-62-25-63-24-63-25-62v-1l-1 1-65 115-65 114-8 14 21 55z" fill="url(#K)"/><path d="M13221-10h7l-5 8z" fill="url(#L)"/><path d="M13492-10h59l-9 16-35 62-7-37z" fill="url(#M)"/><path d="M14192 169h-4l-1 2-64 114-65 114-8 16 183-40 139-30 40-73 61-112 32-59-100 21z" fill="url(#N)"/><path d="M14500-9h-211l-38 67-34 60 100-21 213-47h3l1-2 31-57z" fill="url(#O)"/><path d="M13838 239l314-128-14-65-11-56h-149l-59 106-64 114z" fill="url(#P)"/><path d="M14179 63l34-60 7-13h-54l6 36z" fill="url(#Q)"/><path d="M12194 3708l-61 107-64 114-14 25 168-37 213-46 16-3 5-9 61-112 61-112 7-12-192 42z" fill="url(#R)"/><path d="M11187 5547h350l4-7 61-112 26-48-123 27-213 46-93 20-29 50-12 23z" fill="url(#S)"/><path d="M12226 4282l-14 25-64 114 4-2 61-112z" fill="url(#a)"/><path d="M11735 4582l-39 9-12 21-64 114-62 111 6-2 213-46 197-43 53-97 62-114 18-33-158 34z" fill="url(#T)"/><path d="M13195 1743l9 49 46-81 64-114 64-114 64-113 12-21-310 121 12 65 13 69 13 69z" fill="url(#U)"/><path d="M13496 1262l-14-69-14-69-14-68-14-69-6-30-28 50-65 113-64 114-64 114-29 52 251-103 63-26z" fill="url(#V)"/><path d="M11129 5394l-251 98 8 42 2 13h200l44-78 55-98z" fill="url(#W)"/><path d="M13818 615l-14-69-14-68-14-69-9-43-40 71-65 114-64 114-64 114-17 30 314-129z" fill="url(#X)"/><path d="M13513 1098l13 70 7 41 38-67 64-114 64-114 64-114 20-34-288 112-22 9 1 3 13 70 13 69z" fill="url(#Y)"/><path d="M13851 596l7 36 34-60 64-113 64-114 64-114 24-42-262 103-48 18 2 8 12 70 13 69 13 69z" fill="url(#Z)"/><path d="M11514 3558l-14-69-14-68-14-69-14-69-1-5-5 9-65 114-64 114-64 114-52 92 89-37 225-92z" fill="url(#aa)"/><path d="M11537 3392l13 69 11 60 56-99 64-114 64-114 64-113 1-3-309 122 10 53 13 69z" fill="url(#ab)"/><path d="M11216 3961l13 69 11 61 56-99 64-114 64-114 64-114 2-2-310 121 10 53 13 70z" fill="url(#ac)"/><path d="M12129 2511l-310 122 1 3h-2l9 50 13 69 13 70 13 69 12 64 59-105 64-114 64-114 63-110-2 1 2-4z" fill="url(#ad)"/><path d="M11835 2989l-14-69-14-69-14-68-14-69-1-6-5 10-65 114-64 113-64 114-52 92 89-36 225-92z" fill="url(#ae)"/><path d="M10535 5492l43-77 9-15 64-114 64-114 64-114 64-114 65-114 64-114 64-113 64-114 64-114 64-114 8-14 57-100 64-114 64-114 64-114 64-113 65-114 64-114 64-114 64-114 64-114 64-114 65-114 64-113 64-114 18-33 8-13 38-68 5-9 59-105 27-47 37-67 49-86 16-28 64-114 64-114 64-113 64-114 65-114 64-114 64-114 64-114 43-76 21-38 22-39 42-75 65-113 64-114 64-114 64-114 64-114 65-114 58-104 6-10 37-67h1l26-47 17-29 43-76 4-8 32-58h78l-59 105-64 114-64 114-65 114-64 113-64 114-64 114-64 114-64 114-65 114-64 114-18 31-43 77-3 6-64 113-64 114-64 114-65 114-64 114-64 114-64 114-64 114-65 113-64 114-64 114-37 66-27 48-64 114-64 114-65 114-64 114-64 113-64 114-64 114-51 90-14 24-64 114-64 114-64 114-64 114-64 113-65 114-64 114-11 20-53 94-64 114-64 114-65 114-64 114-64 113-64 114-64 114-64 114-57 100h-77l18-34z" fill="url(#af)"/><path d="M10961 5184l64-114 64-114 64-114 64-114 65-114 64-114 64-113 64-114 64-114 65-114 64-114 64-114 64-114 64-114 64-113 65-114 64-114 64-114 7-13 57-101 64-114 64-114 65-114 64-113 64-114 64-114 64-114 65-114 64-114 64-114 64-114 64-113 64-114 65-114 64-114 64-114 64-114 64-114 65-114 64-113 64-114 64-114 64-114 64-114 65-114 64-114 39-69h-78l-12 22-64 114-64 114-65 114-64 113-64 114-64 114-64 114-65 114-64 114-64 114-64 114-64 113-64 114-65 114-64 114-64 114-64 114-64 114-65 114-64 113-64 114-64 114-64 114-42 73-22 41-65 114-64 114-64 114-64 113-64 114-65 114-64 114-64 114-64 114-64 114-64 113-65 114-64 114-64 114-64 114-64 114-65 114-64 114-64 113-64 114-64 114-64 114-65 114-64 114-39 69h78l12-22 64-114 65-113z" fill="url(#ag)"/><path d="M11660 4857l-130 28-39 69-64 114-35 62 96-21 214-46 112-24 26-48 62-114 45-83-74 16z" fill="url(#ah)"/><path d="M13175 1831l-14-69-14-69-14-68-14-69-6-30-28 50-64 114-65 114-64 114-29 51 253-104 61-25z" fill="url(#ai)"/><path d="M11197 5124l-14-69-14-68-2-8-7 13-64 114-65 114-64 114-49 87 104-43 209-85-6-32-14-68z" fill="url(#aj)"/><path d="M11881 4114l-14-68-14-69-14-69-14-69-4-20-19 34-65 114-64 114-64 114-38 67 190-78 124-51z" fill="url(#ak)"/><path d="M11245 5173l13 69 1 3 2-4 64-114 64-114 64-114 55-97-58 22-251 99 7 42 13 69 13 70z" fill="url(#al)"/><path d="M11901 4026l11 59 55-97 64-114 64-113 64-114 3-5-310 121 11 55 12 69 13 70z" fill="url(#am)"/><path d="M11576 4598l11 63 59-103 64-114 64-114 63-112-8 3-302 119 10 50 13 69 13 70z" fill="url(#an)"/><path d="M11188 4130l-14-68-14-69-14-69-14-68v-2l-1 2-64 114-65 114-64 114-56 99 60-24 254-104z" fill="url(#ao)"/><path d="M11546 4692l-14-68-14-69-14-69-14-69-2-7-7 12-65 114-64 114-64 114-50 89 103-43 211-86z" fill="url(#ap)"/><path d="M12854 2400l-14-68-14-69-14-69-14-69-6-30-28 50-64 114-65 114-64 114-29 51 253-104 61-25z" fill="url(#aq)"/><path d="M12202 3545l-14-69-14-68-14-69-14-69-4-21-19 35-65 114-64 114-64 113-38 67 190-78 124-50z" fill="url(#ar)"/><path d="M12874 2312l9 49 46-81 64-113 64-114 64-114 12-21-310 121 12 65 13 69 13 70z" fill="url(#as)"/><path d="M12549 2884l9 54 50-88 64-114 64-114 64-114 8-13-310 121 12 60 13 69 13 70z" fill="url(#at)"/><path d="M12520 2977l-14-68-14-69-14-69-14-69-4-19-19 33-64 113-64 114-64 114-39 68h2l-3 4 166-68 148-61v-3h1z" fill="url(#au)"/><path d="M12222 3457l11 58 55-96 64-114 64-114 64-114 3-5-310 122 10 55 13 69 13 69z" fill="url(#av)"/><path d="M11376 5175l-10 2-3 5-64 114-64 114-8 12 190-41 239-52 60-111 62-113 11-20-200 43z" fill="url(#aw)"/><path d="M13166 531l13 69 7 38 35-62 64-114 64-114 64-114 22-39-271 106-38 15 1 7 13 69 13 69z" fill="url(#ax)"/><path d="M12487 1844l-14-69-14-68-14-69-14-69-3-15-14 25-64 114-64 114-65 114-43 76 152-62 162-67z" fill="url(#ay)"/><path d="M12161 2416l-14-69-14-68-14-69-14-69-2-10-10 17-64 114-64 114-64 114-48 84 122-50 192-79z" fill="url(#az)"/><path d="M12189 2247l13 69 9 51 47-83 64-114 64-114 64-114 11-18-310 121 12 63 13 70z" fill="url(#aA)"/><path d="M10447 5403l-242 95 8 41 1 8h205l42-75 54-95z" fill="url(#aB)"/><path d="M12808 1275l-14-69-14-69-14-68-14-69-3-15-14 25-64 114-65 114-64 113-43 77 152-63 162-66z" fill="url(#aC)"/><path d="M13139 700l-14-69-14-69-15-68-14-69-4-23-22 38-64 114-65 114-64 114-35 62 208-85 106-43z" fill="url(#aD)"/><path d="M12510 1678l13 69 9 51 47-84 64-114 64-113 64-114 11-18-310 121 12 63 13 69z" fill="url(#aE)"/><path d="M12830 1108l13 70 10 51 47-84 64-114 64-114 64-114 10-17-309 121 11 63 13 69z" fill="url(#aF)"/><path d="M10880 4539l13 69 13 69 1 5 4-7 64-114 64-114 64-114 53-94-69 27-240 94 7 40 13 69z" fill="url(#aG)"/><path d="M10560 5108l13 69 13 70v3l4-6 64-114 64-114 64-113 54-96-68 27-242 95 8 40 13 70z" fill="url(#aH)"/><path d="M10509 5137l-14-69-13-61-57 102-64 114-65 114-63 113 3-2 310-127-9-46-14-69z" fill="url(#aI)"/><path d="M9963 5452l-24-62-25-63-25-63-60 106-65 114-36 63h272l-12-32z" fill="url(#aJ)"/><path d="M10196 5318l-24-63-25-62-25-63-24-63-25-62-14-38-35 62-65 114-39 68 11 29 25 63 24 63 25 62 24 63 22 56h45l15-26 64-114 33-59z" fill="url(#aK)"/><path d="M10858 4705l-14-68-14-69-14-69-13-61-57 102-65 113-64 114-64 113 4-1 310-127z" fill="url(#aL)"/><path d="M10651 3714l-408-2340h-757c148 89 271 188 368 298l67 73-71 73-850 878 605 2852z" fill="url(#aM)"/><path d="M2965 6492h-237l177-336zm-87-492l-431 794h124l107-204h306l37 204h113l-157-794h-98zm817 536c-9 55-32 99-68 129s-80 45-133 43c-48-1-84-17-107-46-23-30-32-71-26-124l91-537h-113l-91 534c-6 52 0 99 18 139 18 41 47 73 86 96 39 22 84 34 137 36h7c80 0 150-24 207-72 59-49 95-116 107-198l91-536h-115zm389-85l12-81c13-88 42-159 86-209s98-75 163-73l17 1c78 8 118 64 122 170v7h114v-7c-3-83-26-149-70-196s-104-72-179-73c-96-2-178 32-244 101-66 68-108 163-125 281l-9 64c-4 28-5 57-4 87 2 53 14 101 34 144 20 44 50 78 87 101s81 36 130 37h11c78 0 146-23 203-69 59-48 97-114 112-196l2-8-111 2-1 5c-18 60-45 104-79 131s-78 39-130 38c-48-1-84-20-108-57-25-37-36-89-34-152l3-47zm1217-451h-600l-17 98h243l-121 696h114l121-696h243zm-20 794h114l138-794h-114zm599-90c-50-1-87-21-113-59s-38-92-36-160l2-35c6-82 22-150 45-203 24-53 54-93 90-119 34-25 74-37 117-37h7c51 1 88 20 114 57s38 91 36 160c-1 32-5 71-12 116-14 90-44 160-87 209s-97 72-163 71zm302-633c-45-53-107-80-185-81-73-1-139 19-196 61-42 31-78 73-107 125s-50 110-62 174-17 118-15 162c2 56 14 107 35 152 22 46 52 80 89 104 38 23 82 36 133 37h8c84 0 159-29 221-87 37-34 67-77 91-127s40-105 49-163 13-107 12-144c-3-89-28-160-72-212zm670 521l-271-592h-108l-138 794h115l103-589 271 589h107l138-794h-114zm855-483c-20-37-49-66-87-87-38-20-81-31-129-32-49-1-97 8-140 26-44 18-80 45-106 79-27 34-42 74-46 118-7 89 44 159 150 207l31 14 93 34c64 25 92 64 85 119-5 37-24 67-55 89-32 22-74 34-124 33s-89-14-116-40-39-62-36-106l1-7-115-1v7c-3 47 7 89 29 126s54 66 95 87 87 32 137 32h9c48 0 94-8 136-25 45-18 81-44 108-76 26-33 42-72 46-118 8-94-41-166-144-214l-41-17-80-28c-70-26-100-64-94-114 5-39 22-69 54-92 31-23 71-34 119-33 44 1 79 14 102 38 23 25 34 61 30 106l-1 7 115 1v-7c2-46-7-88-27-125z" fill="#282828" fill-rule="nonzero"/></svg>