<svg xmlns="http://www.w3.org/2000/svg" height="159.333" width="624.533"><path d="M135.464 126.815h19.468V31.41h-19.468zm79.357-26.34V84.758c-3.954-5.75-9.437-7.667-14.921-7.667-9.564 0-16.196 6.388-16.196 16.1 0 7.156 6.632 14.95 16.196 14.95 5.484 0 10.967-1.916 14.921-7.666zm19.467-37.96v64.5c0 20.022-15.572 32.318-34.652 32.318-18.41 0-32.116-11.421-33.46-27.546l19.397.112c.807 6.853 6.816 9.81 14.75 9.81 7.513 0 14.498-4.01 14.498-14.49v-8.198c-4.973 3.225-11.289 5.107-18.41 5.107-17.738 0-31.982-14.38-31.982-30.908 0-19.215 14.244-32.116 31.982-32.116 7.121 0 13.437 1.882 18.41 5.107v-3.493l19.467-.202m58.78 31.362c0-9.356-6.15-16.915-15.633-16.915-9.611 0-15.762 7.559-15.762 16.915 0 9.61 6.151 16.785 15.762 16.785 9.482 0 15.633-7.175 15.633-16.785zm18.785.003c0 19.86-14.69 34.007-34.414 34.007-19.862 0-34.552-14.147-34.552-34.007 0-19.725 14.69-34.145 34.552-34.145 19.724 0 34.414 14.42 34.414 34.145m101.657 10.71v-19.65c-4.034-5.725-9.63-7.286-15.223-7.286-9.76 0-16.526 7.808-16.526 17.177 0 9.238 6.766 17.046 16.526 17.046 5.593 0 11.189-1.562 15.224-7.287zm19.102-41.971v64.098l-19.101.097v-3.628c-4.972 3.224-11.288 5.24-18.411 5.24-17.736 0-31.98-15.05-31.98-33.594 0-18.678 14.244-33.729 31.98-33.729 7.123 0 13.439 2.016 18.41 5.241v-3.627l19.102-.098m78.427 29.39v34.805H492.28V94.241c0-10.482-5.24-15.991-14.512-15.991-4.838 0-10.213 2.821-14.781 8.197v40.368h-19.183V62.718h19.183v4.837c5.24-4.165 11.287-6.45 18.543-6.45 17.066 0 29.508 12.094 29.508 30.905m97.172-58.164h-4.742V45.22h-2.792V33.846h-4.741V31.26h12.276v2.586m16.322 11.373h-2.792v-7.8l-3.633 5.746h-1.683v-.02l-3.674-5.809.041 7.883H610V31.26h1.97l5.297 8.458 5.296-8.458h1.97v13.96" fill="#100f0d"/><path d="M126.595 126.77h-19.847L93.855 78.82l-27.713 47.95H43.986l42.833-74.223-6.89-25.774-57.761 100.019H-.001L73.196 0h19.408l8.498 31.502h20.024l-13.672 23.773 19.14 71.496" fill="#231f20"/><path d="M569.007 104.665V84.867c-4.064-5.77-9.703-7.342-15.339-7.342-9.835 0-16.652 7.867-16.652 17.176 0 9.44 6.817 17.307 16.652 17.307 5.636 0 11.275-1.573 15.339-7.343zm19.468-73.256v95.406h-19.468v-3.628c-4.971 3.224-11.287 5.24-18.41 5.24-17.736 0-31.98-15.05-31.98-33.73 0-18.542 14.244-33.593 31.98-33.593 7.123 0 13.439 2.016 18.41 5.241V31.41h19.468M359.648 78.864c-4.253.52-14.175 1-19.996 9.017v38.934h-19.2v-64h19.2v4.8c4.372-3.776 10.976-5.951 19.996-5.072" fill="#100f0d"/></svg>