<svg xmlns="http://www.w3.org/2000/svg" height="221.68" width="785.08"><path d="M221.675 110.842C221.675 49.628 172.05.005 110.837.005 49.623.005 0 49.628 0 110.842 0 172.056 49.623 221.68 110.837 221.68c61.214 0 110.838-49.624 110.838-110.838m310.189-10.366l.063.003c0 1.615.013 3.23-.008 4.846-.01.667.172 1.072.932.99 3.024-.328 6.097-.411 9.056-1.044 2.677-.573 5.093-1.802 5.749-5.013.71-3.486-1.113-6.801-4.47-7.627-3.515-.865-7.069-.677-10.626-.272-.807.092-1.072.44-1.021 1.247.144 2.288.221 4.58.325 6.87zm.41 30.344c0 1.613-.055 3.23.04 4.839.022.388.533 1.06.84 1.072 4.669.166 9.293-.02 13.83-1.408 2.84-.87 4.644-3.29 4.68-6.097.041-2.996-1.761-5.368-4.737-6.523-4.375-1.694-8.923-1.819-13.519-1.77-1.155.012-1.456.415-1.439 1.48.048 2.8.208 8.407.304 8.407zm27.015-20.58c2.154 1.421 4.368 2.626 6.279 4.2 3.301 2.719 4.837 6.407 5.31 10.64.51 4.582.037 8.973-2.057 13.11-2.404 4.751-6.402 7.707-11.176 9.771-6.592 2.852-13.58 3.59-20.638 3.692-6.888.1-13.782-.06-20.671-.19-1.073-.02-2.168-.407-3.19-.792-.28-.106-.48-.824-.466-1.254.155-4.714.464-9.425.53-14.14.143-10.002.213-20.005.222-30.008.003-5.446-.141-10.893-.29-16.338-.089-3.139-.3-6.276-.5-9.412-.055-.862.153-1.378 1.074-1.519.833-.127 1.652-.477 2.48-.49 8.936-.137 17.873-.255 26.81-.314 4.613-.032 9.158.535 13.466 2.288 7.71 3.139 11.248 8.953 10.577 17.237-.453 5.613-2.777 10.165-7.573 13.31-.099.066-.164.183-.187.21M270.304 95.34l-.255.012-5.881 17.619h11.87c-1.94-5.97-3.837-11.8-5.734-17.631zm-15.056 52.477H236.76c-1.641 0-2.355-.565-2.39-2.23-.02-.952.262-1.936.545-2.864a94.664 94.664 0 011.776-5.248 1972.168 1972.168 0 015.784-15.494c1.549-4.093 3.162-8.163 4.725-12.251 1.883-4.92 3.783-9.836 5.6-14.781 1.817-4.94 3.58-9.902 5.288-14.884.57-1.664.964-3.401 1.304-5.13.188-.954.75-.991 1.472-.99 3.108.006 6.217.003 9.325.003 4.003 0 8.006.04 12.007-.027 1.076-.017 1.556.323 1.876 1.347 2.455 7.863 4.863 15.742 7.487 23.55 3.14 9.344 6.542 18.602 9.709 27.939 1.945 5.73 3.679 11.535 5.459 17.32.27.878.286 1.834.417 2.754.121.856-.387.982-1.077.977-2.514-.016-5.026-.005-7.538-.005-4.088 0-8.176-.019-12.262.014-.871.006-1.174-.239-1.387-1.16-1.295-5.617-2.79-11.19-4.025-16.82-.319-1.454-.958-1.589-2.158-1.58-5.832.043-11.666.036-17.5.004-.944-.006-1.444.215-1.69 1.237-1.315 5.45-2.719 10.878-4.068 16.322-.14.565-.118 1.172-.191 1.997m74.26-18.58l-.083.003c0 1.065-.058 2.135.031 3.193.032.367.36.924.667 1.019 1.402.426 2.83.828 4.278 1.043 4.755.709 8.87-1.766 10.639-6.234 1.833-4.631 2.392-9.377 1.06-14.199-.91-3.296-2.432-6.325-5.787-7.828-2.778-1.247-5.622-.956-8.422.074-3.176 1.17-3.266 1.374-3.115 4.691.277 6.078.492 12.16.732 18.238zm-.25 18.603c0 1.11-.015 2.25.003 3.388.107 6.425.198 12.85.362 19.275.028 1.137-.294 1.444-1.422 1.433a732.704 732.704 0 00-16.606.004c-1.292.017-1.542-.416-1.512-1.612.33-13.952.76-27.907.84-41.863.037-6.45-.51-12.913-1.022-19.353-.386-4.857-1.145-9.683-1.724-14.526-.054-.457-.006-.925-.006-1.53 1.977-.27 3.93-.581 5.896-.795 3.709-.402 7.429-.724 11.138-1.14.902-.1 1.37.03 1.411 1.051.025.617.288 1.223.467 1.93 1.234-.59 2.377-1.2 3.569-1.69 3.953-1.625 8.065-2.076 12.327-1.807 11.098.704 18.188 6.655 21.338 16.997 3.932 12.907 1.462 24.698-7.797 34.73-4.307 4.665-9.945 6.628-16.208 6.832-1.867.061-3.755.026-5.607-.194-1.792-.214-3.549-.723-5.446-1.13m60.945-18.384a2.858 2.858 0 01-.07.003c0 .937-.094 1.888.038 2.806.07.48.45 1.176.843 1.301 1.354.438 2.764.789 4.177.951 4.61.53 8.33-1.439 10.267-5.773 1.874-4.195 2.604-8.51 1.704-13.027-.507-2.544-1.292-5.004-2.972-7.078-2.834-3.496-7.67-3.824-11.923-2.253-2.71 1-2.943 1.604-2.81 4.452.283 6.204.502 12.412.746 18.618zm-21.439-36.467c3.504-.38 6.832-.74 10.16-1.103 2.151-.235 4.306-.442 6.45-.725.988-.13 1.506.193 1.729 1.17.137.602.443 1.165.659 1.713 1.964-.795 3.784-1.751 5.721-2.278 9.81-2.67 18.768-1.467 26.13 6.206 3.133 3.265 4.987 7.243 6.003 11.61.742 3.187 1.139 6.412 1.1 9.707-.085 7.344-2.476 13.845-6.74 19.762-3.106 4.31-6.989 7.526-12.145 8.996-5.548 1.584-11.125 1.665-16.685-.023-.356-.108-.724-.18-1.211-.299 0 1.483-.021 2.878.004 4.272.113 6.171.21 12.342.388 18.511.035 1.163-.323 1.436-1.43 1.425-5.58-.05-11.16-.056-16.74.004-1.18.014-1.425-.39-1.387-1.474.221-6.254.464-12.51.544-18.766.128-10.002.334-20.01.12-30.007-.14-6.443-.932-12.875-1.514-19.304-.278-3.074-.748-6.133-1.156-9.397m397.265 17.978c-.03-.393-.44-.976-.795-1.09-1.479-.472-2.987-.971-4.52-1.147-3.856-.442-7.11.807-9.21 4.177-3.646 5.849-3.836 12.122-1.57 18.445 1.013 2.828 2.784 5.313 6.025 6.097 3.115.755 6.137.327 9.081-.87 1.154-.468 1.671-1.176 1.65-2.519-.08-5.233-.482-20.633-.662-23.093zm-.366-15.577c0-2.435.11-4.801-.021-7.154a589.702 589.702 0 00-1.071-15.263c-.09-1.12.301-1.426 1.316-1.438 5.83-.063 11.663-.116 17.49-.27 1.353-.036 1.546.524 1.489 1.651-.252 5.013-.584 10.027-.65 15.043-.146 11.279-.244 22.561-.178 33.84.038 6.676.418 13.35.664 20.022.082 2.296.212 4.59.334 6.884.123 2.291.135 2.366-2.173 2.504-4.373.26-8.752.398-13.124.652-1.03.06-1.66-.276-1.856-1.256-.235-1.188-.788-.993-1.624-.565-5.176 2.64-10.723 3.28-16.37 2.45-8.187-1.207-13.837-5.97-17.543-13.247-2.71-5.32-3.343-10.99-2.966-16.83.539-8.35 3.512-15.685 9.446-21.66 3.784-3.811 8.49-5.748 13.805-6.449 4.455-.588 8.776-.14 13.032 1.086m-152.596 28.892c.02-4.71-1.019-8.227-3.223-11.48-3.532-5.212-9.91-5.562-13.889-.695-1.924 2.354-2.884 5.136-3.192 8.166-.528 5.172.083 10.06 3.212 14.42 3.765 5.248 10.933 4.959 14.37-.515 2.027-3.23 2.583-6.766 2.722-9.896zm19.155-1.36c-.099 8.58-2.81 16.04-8.899 22.14-4.432 4.44-9.865 6.978-16.04 7.84-2.71.378-5.497.725-8.205.52-5.37-.403-10.292-2.302-14.682-5.48-5.165-3.74-8.514-8.727-9.932-14.923-1.032-4.506-1.074-9.094-.521-13.683.752-6.215 3.31-11.62 7.46-16.253 3.919-4.375 8.928-6.937 14.57-8.34 4.37-1.087 8.809-1.511 13.253-.688 4.953.92 9.401 3.016 13.325 6.237 4.404 3.613 7.224 8.223 8.504 13.692.683 2.911.796 5.954 1.167 8.938m33.212 5.405c-1.726.174-3.111.264-4.478.464-2.306.337-4.569.863-6.585 2.114-1.461.906-2.521 2.782-2.219 4.018.398 1.636 1.484 2.748 3.111 3.008 3.233.518 6.41.194 9.381-1.3.344-.172.744-.654.755-1.003.067-2.327.035-4.656.035-7.3zm1.574 20.892c-4.566 2.64-9.269 3.87-14.237 3.65-5.304-.233-10.377-1.384-14.25-5.452-3.317-3.484-4.525-7.702-3.98-12.413 1.075-9.34 6.814-14.572 15.391-17.24 4.528-1.41 9.195-1.93 13.908-2.17 1.507-.078 1.571-.283 1.286-1.698-.688-3.427-1.8-3.752-5.424-4.23-7.046-.93-13.956.115-20.762 1.994-.608.168-1.229.29-1.848.418-.116.023-.249-.036-.614-.097.157-1.65.29-3.317.48-4.978.3-2.612.701-5.215.924-7.834.106-1.234.432-1.948 1.718-2.421 4.192-1.54 8.548-2.151 12.944-2.343 4.451-.194 8.951-.384 13.372.033 6.871.649 12.732 3.333 15.8 10.106 1.694 3.738 1.731 7.743 1.684 11.741-.069 5.917-.23 11.834-.229 17.75.003 5.405.661 10.753 1.877 16.025.159.683-.036 1.048-.801 1.083-4.123.18-8.244.385-12.365.578-.212.01-.434-.036-.638.007-2.08.447-3.733.095-4.236-2.51M484.124 120.99c.736-2.578 1.512-5.144 2.199-7.735 1.188-4.49 2.389-8.979 3.445-13.5.46-1.971.621-4.019.816-6.042.076-.805.319-1.137 1.141-1.134 5.367.02 10.732-.008 16.098.046.402.004 1.022.44 1.164.818.645 1.725.557 3.509-.083 5.218-2.884 7.72-5.819 15.42-8.707 23.14-2.814 7.523-5.705 15.02-8.346 22.604-1.639 4.702-2.814 9.552-5.003 14.077-3.336 6.894-8.72 11.093-16.192 12.427-3.076.55-6.264.467-9.397.694-.88.063-1.099-.46-1.167-1.162-.415-4.182-.804-8.368-1.252-12.546-.09-.847.199-1.13.995-1.235 1.973-.257 3.964-.465 5.897-.91 5.781-1.333 9.308-7.238 7.956-12.995-1.532-6.531-4.05-12.701-6.693-18.83a7174.62 7174.62 0 00-11.326-26.09c-.584-1.341-.649-2.666-.394-4.098.164-.914.494-1.174 1.397-1.167 5.963.036 11.924.033 17.884.003.967-.005 1.313.253 1.567 1.29 1.204 4.92 2.536 9.81 3.904 14.688 1.09 3.897 2.296 7.762 3.456 11.64.085.286.225.556.34.833.1-.01.2-.023.301-.034m-52.616-52.147c3.244-.187 6.255-.347 9.261-.54 3.304-.212 6.607-.444 9.907-.694 1.155-.086 1.71.118 1.464 1.535-.268 1.539-.215 3.141-.233 4.716-.179 14.94-.388 29.882-.483 44.824-.037 5.575.173 11.152.327 16.727.105 3.825.289 7.648.481 11.469.043.86-.448.885-1.036.885-1.917.003-3.835.003-5.752.003-3.833 0-7.667-.027-11.5.019-1.017.012-1.421-.234-1.393-1.35.218-8.425.422-16.853.541-25.281.11-7.79.305-15.587.101-23.372-.216-8.285-.854-16.559-1.322-24.836-.074-1.307-.228-2.608-.363-4.105M706.81 98.69c3.662-3.363 7.723-4.697 12.191-4.642 3.631.046 7.114 1.027 10.442 2.472.269.117.53.745.464 1.07a303.196 303.196 0 01-1.943 8.915c-.567 2.423-1.213 4.828-1.888 7.485-1.57-.459-3.123-.92-4.679-1.367-2.926-.841-5.836-1.391-8.84-.2-2.089.828-4.122 3.447-4.062 6.046.197 8.341.166 16.688.241 25.032.013 1.487.153 2.975.139 4.462a5.472 5.472 0 01-.415 1.96c-.37.91-.981 1.41-2.136 1.39-4.597-.08-9.196-.033-13.795-.033-1.841-.002-2.674-.737-2.786-2.614-.072-1.184-.02-2.382.01-3.571.231-9.271.747-18.545.598-27.809-.083-5.172-1.274-10.327-1.956-15.491-.186-1.405-.74-2.788-.083-4.238.301-.664.55-1.152 1.388-1.24 5.193-.544 10.383-1.13 15.57-1.72.94-.108 1.042.495 1.133 1.163.118.871.242 1.742.408 2.93" fill="#4f8cd1"/><path d="M221.292 119.687L189.544 84.87 110.18 68.836 31.753 87.689l18.855 17.904-6.212 39.664-15.909 17.744 56.745 55.672a110.952 110.952 0 0024.876 2.987 122.491 122.491 0 0030.161-3.961c44.182-12.146 77.302-50.93 81.023-98.012" fill="#3e7ac5"/><path d="M69.595 100.935c10.822-4.3 21.628-8.638 32.473-12.878 3.152-1.232 6.444-2.104 9.616-3.289 2.921-1.092 3.92-3.833 2.386-6.236-1.01-1.583-2.523-2.467-4.356-1.845-5.403 1.829-10.795 3.702-16.115 5.754-8.596 3.319-17.184 6.671-25.671 10.255-4.263 1.8-8.495 3.739-11.664 7.452-2.529 2.96-3.51 6.472-4.46 10.042-.498 1.87-.756 3.803-1.103 5.71-.23 1.263.016 2.225 1.214 3.064 3.295 2.31 3.591 8.969.465 11.38-.965.745-1.052 1.483-.968 2.418.432 4.823 1 9.637 1.325 14.466.39 5.799-.59 11.384-4.15 16.108-1.518 2.013-3.646 3.658-5.757 5.087-.931.629-2.714.78-3.754.328-3.395-1.476-6.628-3.323-9.913-5.048-.259-.138-.43-.44-.676-.702 2.092-2.424 4.184-4.77 6.188-7.19 4.703-5.679 7.2-12.358 8.698-19.476.078-.369.133-.741.22-1.108.402-1.676.432-2.907-1.329-4.235-4.563-3.441-4.134-9.494.494-12.826.69-.497 1.207-1.625 1.292-2.51.57-5.874 1.482-11.63 4.654-16.772.721-1.169 1.474-2.32 2.354-3.7-2.701-.929-5.386-1.846-8.067-2.773-3.254-1.124-6.55-2.143-9.725-3.46-.858-.355-1.948-1.708-1.844-2.451.145-1.02 1.141-2.42 2.089-2.75 8.123-2.837 16.326-5.447 24.492-8.165 12.166-4.048 24.32-8.13 36.481-12.193 4.282-1.43 8.59-2.788 12.847-4.293 2.316-.818 4.473-.764 6.811.036 11.306 3.868 22.65 7.622 33.985 11.405 8.234 2.747 16.474 5.476 24.714 8.205 4.951 1.639 9.9 3.283 14.867 4.875 1.441.461 2.268 1.365 2.357 2.833.098 1.586-.929 2.37-2.296 2.825-11.89 3.962-23.789 7.906-35.673 11.892-10.693 3.588-21.366 7.24-32.062 10.825a167.791 167.791 0 01-8.648 2.62c-.657.18-1.482.07-2.149-.153-8.962-2.985-17.902-6.039-26.865-9.024-4.261-1.42-8.558-2.731-12.84-4.092l.063-.41" fill="#fff"/><path d="M62.723 136.743c5.393-5.965 4.054-15.559-1.365-19.484-1.787-1.295-.209-7.727.078-9.13 6.387 2.168 12.762 4.346 19.146 6.498 8.847 2.98 17.691 5.968 26.555 8.896 2.464.813 4.965.762 7.458-.103 6.572-2.28 13.153-4.533 19.746-6.748 8.366-2.81 16.746-5.573 25.122-8.348.508-.169 1.041-.264 1.625-.408.11.4.233.636.232.87-.053 7.487.019 14.978-.245 22.457-.111 3.162-2.395 5.337-4.775 7.201-5.044 3.953-10.945 5.983-17.023 7.75-11.888 3.455-24.058 3.843-36.248 3.288-11.234-.512-22.239-2.607-32.435-7.663-2.725-1.351-5.154-3.302-7.871-5.076" fill="#fff"/></svg>