<svg xmlns="http://www.w3.org/2000/svg" width="351.79" height="221.727"><path d="M62.182 153.331v28.018a1.22 1.22 0 01-1.236 1.236h-2.469a1.22 1.22 0 01-1.236-1.236V165.99h-7.949v15.359a1.22 1.22 0 01-1.234 1.236h-2.471a1.219 1.219 0 01-1.234-1.236v-28.018c0-4.862 4.014-8.876 8.953-8.876 4.861 0 8.876 4.013 8.876 8.876zm-4.941 0c0-2.161-1.775-3.938-3.936-3.938-2.238 0-4.014 1.776-4.014 3.938v7.719h7.949v-7.719zm31.279-7.68v2.469a1.22 1.22 0 01-1.236 1.236h-3.473v32.031c0 .619-.539 1.236-1.234 1.236h-2.471c-.695 0-1.234-.617-1.234-1.236v-32.031h-3.473c-.697 0-1.236-.54-1.236-1.236v-2.469c0-.695.539-1.234 1.236-1.234h11.885c.695 0 1.236.539 1.236 1.234zm24.158 0v35.736a1.22 1.22 0 01-1.236 1.236h-2.469c-.619 0-1.236-.541-1.236-1.236v-15.436h-7.873v15.436c0 .695-.539 1.236-1.234 1.236h-2.469a1.22 1.22 0 01-1.236-1.236v-35.736c0-.695.541-1.234 1.236-1.234h2.469c.695 0 1.234.539 1.234 1.234v15.359h7.873v-15.359c0-.695.617-1.234 1.236-1.234h2.469c.695 0 1.236.539 1.236 1.234zm12.115 35.736a1.22 1.22 0 01-1.234 1.236h-2.471a1.22 1.22 0 01-1.234-1.236v-35.736c0-.695.541-1.234 1.234-1.234h2.471c.617 0 1.234.539 1.234 1.234v35.736zm25.008-28.095v28.096c0 .619-.541 1.236-1.234 1.236h-2.471c-.695 0-1.236-.617-1.236-1.236v-28.096a3.952 3.952 0 00-3.936-3.936c-2.238 0-4.014 1.774-4.014 3.936v28.096c0 .619-.541 1.236-1.234 1.236h-2.471c-.695 0-1.234-.617-1.234-1.236v-28.096c0-4.862 4.014-8.875 8.953-8.875 4.862 0 8.877 4.012 8.877 8.875zm25.006 3.707a8.965 8.965 0 01-2.779 6.482c1.699 1.621 2.779 3.859 2.779 6.406v11.5c0 .619-.541 1.236-1.234 1.236h-2.471c-.693 0-1.234-.617-1.234-1.236v-11.5c0-2.16-1.775-3.936-4.014-3.936h-3.938v15.436c0 .619-.539 1.236-1.234 1.236h-2.469c-.695 0-1.236-.617-1.236-1.236v-35.736c0-.695.541-1.234 1.236-1.234h2.469c.695 0 1.234.539 1.234 1.234v15.359h3.938a3.986 3.986 0 004.014-4.012V145.65c0-.695.541-1.234 1.234-1.234h2.471c.693 0 1.234.539 1.234 1.234v11.349zm12.117 24.388a1.22 1.22 0 01-1.234 1.236h-2.471a1.22 1.22 0 01-1.234-1.236v-35.736c0-.695.541-1.234 1.234-1.234h2.471c.617 0 1.234.539 1.234 1.234v35.736zm25.006-28.095v28.096c0 .619-.539 1.236-1.234 1.236h-2.471c-.693 0-1.234-.617-1.234-1.236v-28.096a3.953 3.953 0 00-3.938-3.936c-2.236 0-4.014 1.774-4.014 3.936v28.096c0 .619-.539 1.236-1.232 1.236h-2.473c-.693 0-1.234-.617-1.234-1.236v-28.096c0-4.862 4.014-8.875 8.953-8.875 4.864 0 8.877 4.012 8.877 8.875zm19.99 2.662v-2.623c0-2.239-1.775-3.938-3.938-3.938-2.16 0-3.936 1.698-3.936 3.938v20.454a3.953 3.953 0 003.936 3.937 3.954 3.954 0 003.938-3.937v-7.95h-2.701c-.695 0-1.236-.541-1.236-1.156v-2.472a1.22 1.22 0 011.236-1.235h6.406c.695 0 1.234.541 1.234 1.235v11.578c0 4.862-4.014 8.8-8.877 8.8-4.861 0-8.875-3.938-8.875-8.8v-20.454c0-4.94 4.014-8.876 8.875-8.876 4.863 0 8.877 3.936 8.877 8.876v2.623c0 .696-.539 1.236-1.234 1.236h-2.471a1.22 1.22 0 01-1.234-1.236zm37.043-2.623v28.018c0 .695-.539 1.236-1.232 1.236h-2.471a1.22 1.22 0 01-1.236-1.236V165.99h-7.949v15.359a1.22 1.22 0 01-1.234 1.236h-2.471a1.219 1.219 0 01-1.234-1.236v-28.018c0-4.862 4.014-8.876 8.953-8.876 4.861 0 8.874 4.013 8.874 8.876zm-4.939 0c0-2.161-1.775-3.938-3.936-3.938-2.238 0-4.014 1.776-4.014 3.938v7.719h7.949v-7.719zm29.947-.039v3.707c0 4.938-4.014 8.953-8.875 8.953h-4.016v15.436c0 .619-.541 1.236-1.234 1.236h-2.471c-.617 0-1.234-.617-1.234-1.236v-35.736c0-.695.617-1.234 1.234-1.234h7.721c4.862-.001 8.875 4.011 8.875 8.874zm-4.939 0a3.952 3.952 0 00-3.936-3.936h-4.016v11.654h4.016c2.16 0 3.936-1.774 3.936-4.012v-3.706zm15.435-3.936v11.654h6.715a1.22 1.22 0 011.236 1.235v2.472a1.22 1.22 0 01-1.236 1.234h-6.715v11.731h6.715c.695 0 1.236.54 1.236 1.235v2.469a1.22 1.22 0 01-1.236 1.236h-9.184c-1.391 0-2.471-1.158-2.471-2.47v-33.269a2.438 2.438 0 012.471-2.469h9.184c.695 0 1.236.539 1.236 1.234v2.469a1.22 1.22 0 01-1.236 1.236h-6.715zm-86.457-41.025c-.908-1.901-1.527-3.432-1.871-6.008-.6-4.543.508-11.922-4.829-16.945-10.486-9.872-12.622-19.045-14.317-21.12-2.842-3.476-7.285-3.534-7.941-8.896-.193-1.405-1.202 1.255-1.475 1.649-.312.429-4.463-3.634-6.011-4.596-14.302-10.479-31.825-4.609-35.823-.021-3.068 3.533-5.789 7.62-8.774 11.259-3.644 4.457-3.769 9.737-3.235 15.136.29 2.925.94 5.812.203 8.726-1.488 5.883-3.539 11.952-.69 19.867 1.216.591-.642-5.364 4.413-19.985.988-4.556.468-7.918.196-9.81-1.226-8.46 12.88-18.885 14.003-19.505 2.178-1.399-2.881-.396-2.74-1.146 1.4-1.813 6.061-2.231 8.039-2.333 11.203-.582 21.297 8.438 18.016 15.003-.928 1.858-10.723 6.534-12.01 6.686-.439.055 2.52 2.712 1.438 6.258 4.59-2.227 9.121-1.423 11.975-.885 2.569.485 6.713 2.727 9.242 3.381 6.941 1.778 17.988-.874 22.597 4.914 2.157 2.995 2.111 7.011 2.111 8.811-6.886-1.524-9.685 1.671-14.454 1.671-4.766 0-4.054-.411-8.248-1.238-4.175-.824-10.074 1.376-11.66 5.588-1.449 4.485 1.484 13.523 15.969 12.599 1.951-.124 12.962-.616 18.609 3.475 4.34 2.789 8.875.942 9.201-3.235.077-5.235-.447-6.204-1.934-9.3zm-28.609 3.266c-2.125-1.512-8.416-3.063-8.416-3.063s-2.926-.573-1.062-2.258c1.862-1.687 5.003-1.951 6.245-1.903 1.242.045 8.551 1.507 8.239 6.115-.31 4.605-2.877 2.609-5.006 1.109zm20.832-3.062s-6.293 1.551-8.418 3.063c-2.129 1.5-4.695 3.496-5.008-1.108-.311-4.608 7-6.07 8.242-6.115 1.241-.048 4.382.217 6.244 1.903 1.863 1.683-1.06 2.257-1.06 2.257z"/><path d="M164.899 92.767c1.775.354 2.76 2.889 7.082 2.808 2.77-.04 5.127-2.453 5.127-2.453-4.568-4.144-12.209-.355-12.209-.355zm36.996.355c-4.563-4.144-12.195-.354-12.195-.354 1.773.354 2.747 2.889 7.072 2.808 2.761-.041 5.123-2.454 5.123-2.454z"/></svg>