<svg xmlns="http://www.w3.org/2000/svg" width="993.956" height="214.957"><defs><clipPath clipPathUnits="userSpaceOnUse" id="a"><path d="M0 161.218h745.467V0H0z"/></clipPath></defs><g clip-path="url(#a)" transform="matrix(1.33333 0 0 -1.33333 0 214.957)"><path d="M235.544 41.45c0-.898.108-1.733.33-2.505.218-.772.536-1.439.956-2a4.526 4.526 0 011.575-1.332c.628-.325 1.344-.486 2.144-.486.726 0 1.393.13 2.005.385a4.595 4.595 0 011.6 1.131c.46.496.817 1.1 1.075 1.816.255.717.384 1.541.384 2.477a9.71 9.71 0 01-.227 2.616c-.192.81-.496 1.522-.915 2.133a4.59 4.59 0 01-1.617 1.443c-.66.353-1.428.531-2.305.531-.782 0-1.48-.168-2.103-.503a4.815 4.815 0 01-1.57-1.345 6.196 6.196 0 01-.99-1.973 8.151 8.151 0 01-.342-2.389m0-7.467h-1.718v20.6h1.718v-8.153a5.27 5.27 0 002.274 2.071c.964.47 1.97.702 3.018.702 1.124 0 2.102-.212 2.933-.642a6.072 6.072 0 002.061-1.718c.541-.713.946-1.548 1.215-2.5.266-.958.402-1.95.402-2.977 0-1.089-.126-2.109-.374-3.063-.248-.953-.642-1.777-1.187-2.476a5.754 5.754 0 00-2.075-1.645c-.838-.398-1.858-.6-3.059-.6-.479 0-.964.07-1.46.202a6.832 6.832 0 00-1.446.57 5.675 5.675 0 00-1.285.931 4.618 4.618 0 00-.96 1.3h-.057zm31.898 14.819h1.718V33.982h-1.718v2.061a13.837 13.837 0 00-.772-.832 5.792 5.792 0 00-.988-.785 5.601 5.601 0 00-1.3-.6c-.496-.162-1.068-.246-1.718-.246-.992 0-1.82.14-2.49.416-.667.276-1.205.663-1.614 1.16a4.528 4.528 0 00-.887 1.728 8.11 8.11 0 00-.273 2.162v9.755h1.715v-9.727c0-1.278.297-2.256.888-2.934.593-.674 1.564-1.013 2.92-1.013.705 0 1.337.136 1.903.413a3.996 3.996 0 011.414 1.16c.381.495.678 1.09.888 1.773.21.688.314 1.44.314 2.26zm12.42 0h1.715V33.982h-1.715zm-.088 5.78h1.89v-2.546h-1.89zm12.734 0h1.715V33.982h-1.715zm23.833-13.131a8.12 8.12 0 01-.346 2.388 6.108 6.108 0 01-.985 1.973 4.819 4.819 0 01-1.575 1.345c-.618.335-1.32.503-2.102.503-.898 0-1.67-.178-2.319-.53a4.597 4.597 0 01-1.6-1.444 6.245 6.245 0 01-.915-2.133 9.587 9.587 0 01-.23-2.616c0-.936.13-1.76.387-2.477a5.222 5.222 0 011.073-1.816 4.573 4.573 0 011.603-1.13 5.12 5.12 0 012.001-.386c.8 0 1.516.161 2.144.486a4.49 4.49 0 011.575 1.331c.42.562.741 1.23.957 2.001.22.772.332 1.607.332 2.504m0 13.132h1.715V33.982h-1.715v2.602h-.059a4.625 4.625 0 00-.957-1.3 5.788 5.788 0 00-1.289-.932 6.832 6.832 0 00-1.446-.569 5.614 5.614 0 00-1.456-.203c-1.202 0-2.225.203-3.063.601-.838.402-1.53.95-2.075 1.645-.54.7-.939 1.523-1.187 2.476-.248.954-.37 1.974-.37 3.063 0 1.027.132 2.02.398 2.976.27.953.674 1.788 1.218 2.501a6.039 6.039 0 002.057 1.718c.832.43 1.81.642 2.935.642a6.801 6.801 0 003.017-.702 5.295 5.295 0 002.277-2.07zm12.588-5.78h1.715V33.982h-1.715zm-.088 5.78h1.89v-2.546h-1.89zm14.191-20.599h-1.715v14.819h1.715v-2.057a11.057 11.057 0 002.134 1.774c.733.458 1.614.685 2.644.685a6.76 6.76 0 002.546-.472c.782-.314 1.442-.862 1.977-1.645.359-.534.576-1.083.642-1.645a14.87 14.87 0 00.1-1.76v-9.699h-1.717v9.671c0 1.334-.297 2.337-.887 3.004-.59.667-1.572 1.002-2.948 1.002a4.22 4.22 0 01-1.456-.244 4.58 4.58 0 01-1.187-.643 4.39 4.39 0 01-.902-.915 4.218 4.218 0 01-.572-1.09 5.483 5.483 0 01-.315-1.372c-.038-.44-.06-.915-.06-1.429zm31.932 7.352c0 .897-.112 1.732-.332 2.504a6.115 6.115 0 01-.957 2.005 4.497 4.497 0 01-1.575 1.33c-.629.322-1.345.486-2.145.486a5.053 5.053 0 01-2-.388 4.583 4.583 0 01-1.604-1.128 5.25 5.25 0 01-1.072-1.819c-.259-.713-.388-1.541-.388-2.473a9.641 9.641 0 01.231-2.62 6.21 6.21 0 01.915-2.13 4.573 4.573 0 011.6-1.446c.65-.353 1.421-.528 2.318-.528.783 0 1.485.165 2.103.5a4.876 4.876 0 011.575 1.345c.43.562.758 1.222.985 1.973.231.754.346 1.551.346 2.389m0 7.467h1.715V35.414c0-.992-.102-1.942-.3-2.85a6.164 6.164 0 00-1.073-2.389c-.517-.684-1.223-1.233-2.116-1.645-.898-.408-2.05-.614-3.465-.614-1.086 0-2.019.139-2.8.415-.783.276-1.422.626-1.919 1.045a4.519 4.519 0 00-1.13 1.386c-.26.507-.396.978-.417 1.418h1.834c.132-.552.342-1.006.63-1.359a3.193 3.193 0 011.015-.831 4.359 4.359 0 011.302-.415 9.657 9.657 0 011.485-.112c1.166 0 2.1.199 2.804.6.706.398 1.241.926 1.604 1.572a6.04 6.04 0 01.701 2.204c.106.821.148 1.659.13 2.518a5.338 5.338 0 00-2.277-2.074 6.805 6.805 0 00-3.018-.702c-1.124 0-2.102.216-2.934.646a5.998 5.998 0 00-2.057 1.714c-.545.716-.95 1.551-1.219 2.505a11.055 11.055 0 00-.398 2.975c0 1.086.122 2.106.37 3.06.248.953.646 1.781 1.188 2.476a5.75 5.75 0 002.074 1.645c.838.401 1.862.601 3.063.601.475 0 .961-.067 1.457-.2a6.843 6.843 0 001.446-.572 5.587 5.587 0 001.288-.943 5.09 5.09 0 00.957-1.289h.06zm31.786-14.875a9.675 9.675 0 01-.832-.203 4.305 4.305 0 00-1.142-.143c-.859 0-1.512.217-1.963.646-.447.43-.67 1.195-.67 2.302v10.844h-2.089v1.43h2.09v4.12h1.713v-4.12h2.777v-1.43h-2.777V37.216c0-.363.011-.678.032-.947.017-.265.073-.485.172-.656a.81.81 0 01.443-.374c.2-.073.481-.112.842-.112.23 0 .464.018.701.056.238.04.472.088.702.143zm9.042.056v20.599h1.715v-7.837a10.997 10.997 0 002.134 1.774c.733.458 1.613.685 2.643.685.92 0 1.764-.158 2.546-.472.782-.314 1.442-.862 1.977-1.645.36-.534.577-1.083.643-1.645.066-.562.101-1.149.101-1.76v-9.699h-1.718v9.671c0 1.334-.297 2.337-.888 3.004-.59.667-1.57 1.002-2.947 1.002-.53 0-1.02-.084-1.457-.244a4.612 4.612 0 01-1.187-.643 4.384 4.384 0 01-.9-.915 4.253 4.253 0 01-.574-1.09 5.483 5.483 0 01-.315-1.372c-.038-.44-.058-.915-.058-1.429v-7.984zm32.931 8.442c0 .723-.101 1.404-.3 2.043a4.859 4.859 0 01-.887 1.663 4.262 4.262 0 01-1.474 1.113c-.59.276-1.268.416-2.032.416-.762 0-1.436-.143-2.016-.43a4.6 4.6 0 01-1.488-1.145 5.698 5.698 0 01-.989-1.66 7.7 7.7 0 01-.485-2zm-9.671-1.432c0-.8.106-1.558.315-2.274.21-.716.52-1.337.928-1.861a4.541 4.541 0 011.562-1.258c.629-.314 1.351-.471 2.173-.471 1.128 0 2.088.293 2.891.887.8.59 1.334 1.429 1.6 2.518h1.917a9.274 9.274 0 00-.827-1.963 6.035 6.035 0 00-1.289-1.571 5.51 5.51 0 00-1.83-1.045c-.706-.248-1.527-.373-2.462-.373-1.181 0-2.202.202-3.06.6a5.796 5.796 0 00-2.117 1.645c-.555.699-.964 1.52-1.233 2.463a11.22 11.22 0 00-.398 3.045c0 1.09.157 2.11.472 3.063a7.763 7.763 0 001.344 2.504 6.254 6.254 0 002.131 1.687c.838.409 1.791.615 2.861.615 2.043 0 3.642-.702 4.808-2.103 1.163-1.4 1.733-3.436 1.715-6.108zm33.906 6.381v1.429h2.203v2.346c0 1.184.238 2.117.713 2.805.48.688 1.29 1.03 2.435 1.03.265 0 .512-.01.744-.027.226-.021.457-.05.683-.088v-1.572c-.38.095-.722.143-1.03.143-.436 0-.782-.083-1.026-.244a1.424 1.424 0 01-.545-.642 3.02 3.02 0 01-.217-.902 12.646 12.646 0 01-.042-1.016v-1.833h2.86v-1.43h-2.86v-13.39h-1.715v13.39zm25.775 1.428h1.719V33.982h-1.72v2.061a13.806 13.806 0 00-.77-.832 5.762 5.762 0 00-.99-.785 5.574 5.574 0 00-1.298-.6c-.496-.162-1.07-.246-1.718-.246-.993 0-1.82.14-2.491.416-.667.276-1.205.663-1.613 1.16a4.544 4.544 0 00-.888 1.728 8.152 8.152 0 00-.272 2.162v9.755h1.715v-9.727c0-1.278.297-2.256.888-2.934.593-.674 1.564-1.013 2.919-1.013.706 0 1.337.136 1.904.413a3.996 3.996 0 011.414 1.16c.38.495.678 1.09.888 1.773.209.688.313 1.44.313 2.26zm17.369-14.875a9.586 9.586 0 01-.831-.203 4.318 4.318 0 00-1.143-.143c-.86 0-1.511.217-1.963.646-.447.43-.67 1.195-.67 2.302v10.844h-2.088v1.43h2.089v4.12h1.714v-4.12h2.777v-1.43h-2.777V37.216c0-.363.01-.678.032-.947.017-.265.073-.485.17-.656a.814.814 0 01.444-.374c.199-.073.482-.112.842-.112.23 0 .465.018.702.056.237.04.472.088.702.143zm19.083 14.875h1.719V33.982h-1.72v2.061a13.806 13.806 0 00-.77-.832 5.84 5.84 0 00-.99-.785 5.582 5.582 0 00-1.3-.6c-.495-.162-1.067-.246-1.716-.246-.993 0-1.821.14-2.491.416-.667.276-1.205.663-1.614 1.16a4.528 4.528 0 00-.887 1.728 8.152 8.152 0 00-.272 2.162v9.755h1.715v-9.727c0-1.278.297-2.256.887-2.934.593-.674 1.565-1.013 2.919-1.013.707 0 1.338.136 1.904.413a4 4 0 011.415 1.16 5.55 5.55 0 01.887 1.773c.21.688.314 1.44.314 2.26zm13.963-14.819h-1.718v14.819h1.718v-2.773h.057c.478 1.181 1.092 2.008 1.847 2.473.75.468 1.749.702 2.99.702v-1.858c-.975.017-1.775-.136-2.404-.458a3.925 3.925 0 01-1.501-1.317c-.374-.555-.633-1.208-.775-1.959a12.559 12.559 0 01-.214-2.361zm24.749 8.442c0 .723-.102 1.404-.301 2.043a4.857 4.857 0 01-.886 1.663 4.266 4.266 0 01-1.475 1.113c-.59.276-1.268.416-2.032.416-.762 0-1.436-.143-2.016-.43a4.586 4.586 0 01-1.487-1.145 5.698 5.698 0 01-.99-1.66 7.66 7.66 0 01-.484-2zm-9.671-1.432c0-.8.105-1.558.315-2.274a5.491 5.491 0 01.928-1.861 4.541 4.541 0 011.562-1.258c.628-.314 1.35-.471 2.172-.471 1.128 0 2.089.293 2.89.887.8.59 1.335 1.429 1.6 2.518h1.919a9.276 9.276 0 00-.828-1.963 6.015 6.015 0 00-1.29-1.571 5.49 5.49 0 00-1.83-1.045c-.705-.248-1.526-.373-2.461-.373-1.181 0-2.201.202-3.06.6a5.792 5.792 0 00-2.116 1.645c-.556.699-.964 1.52-1.234 2.463a11.26 11.26 0 00-.397 3.045c0 1.09.157 2.11.47 3.063a7.763 7.763 0 001.345 2.504 6.263 6.263 0 002.13 1.687c.839.409 1.793.615 2.862.615 2.043 0 3.642-.702 4.809-2.103 1.163-1.4 1.733-3.436 1.715-6.108z" fill="#bcbec0"/><path d="M240.374 88.275v-14.51h6.548c1.89 0 5.128 0 6.817.674 3.375 1.281 4.79 4.183 4.79 6.614 0 1.955-.944 4.861-4.385 6.279-1.755.74-3.983.943-7.561.943zm0 19.776V94.215h4.388c1.687 0 4.589.136 6.209 1.079 1.282.678 3.578 2.497 3.578 6.143 0 2.567-1.215 4.792-3.24 5.738-1.89.876-4.59.876-6.547.876zm5.535 5.874c3.308 0 5.536-.202 7.694-1.012 4.388-1.621 7.763-5.267 7.763-10.935 0-3.914-1.755-7.494-7.02-9.722 6.749-1.282 11.003-5.937 11.003-11.811 0-7.49-6.211-10.665-8.978-11.608-2.7-.946-4.86-.946-9.788-.946h-12.757v46.034zm37.517-40.028h20.721V67.89h-27.403v46.035h6.682zm33.034 16.875c0-10.463 8.236-17.347 17.888-17.347 4.928 0 10.259 2.027 13.43 5.467 2.905 3.173 4.592 8.167 4.592 12.151 0 7.627-5.804 17.28-17.82 17.28-12.892 0-18.09-9.854-18.09-17.551m42.66.202c0-13.228-10.125-23.69-25.177-23.69-14.445 0-24.298 10.664-24.298 23.487 0 12.22 8.908 23.762 24.635 23.762 15.323 0 24.84-11.207 24.84-23.559m51.106 12.691c-4.86 2.766-10.327 4.59-15.93 4.59-11.136 0-18.224-8.236-18.224-17.484 0-8.569 6.076-17.345 18.292-17.345 5.805 0 11.475 1.955 16.335 5.13v-7.222c-5.332-2.902-10.868-4.05-16.741-4.05-17.076 0-24.77 12.822-24.77 23.557 0 12.688 10.327 23.692 24.907 23.692 7.087 0 13.162-2.497 16.13-3.782zm27.476-11.542l24.906-24.232h-9.043l-23.49 22.748V67.891h-6.683v46.034h6.683v-21.06l19.373 21.06h8.234zm76.624-24.233h-3.578v40.839l-17.482-21.533-17.548 21.533V67.89h-3.512v46.035h3.512l17.548-21.397 17.482 21.397h3.578zm12.969 0h-3.712l21.126 46.37h2.092l21.263-46.37h-3.712l-18.562 40.567zm71.905 39.826c-3.712 2.158-6.548 3.643-10.395 3.643-6.615 0-9.72-4.928-9.72-8.843 0-5.87 5.198-7.693 10.26-9.45 5.467-1.955 11.745-4.994 11.745-13.092 0-8.102-6.952-12.691-13.366-12.691-4.252 0-8.3 1.687-11.812 4.05v4.185c3.983-2.836 7.427-4.862 11.678-4.862 6.614 0 9.787 4.998 9.787 9.182 0 6.209-5.803 8.573-9.448 9.789-6.076 2.09-7.29 3.104-8.302 3.98-2.431 2.092-4.186 5.13-4.186 8.776 0 6.144 5.198 12.15 13.029 12.15 3.778 0 7.423-1.083 10.73-2.902zm34.54 3.374c-11.744 0-20.452-8.98-20.452-20.249 0-10.868 8.436-20.185 20.25-20.185 10.598 0 20.52 7.9 20.52 20.454 0 10.53-8.302 19.98-20.317 19.98m-.135-43.807c-13.77 0-24.367 10.462-24.367 23.691 0 12.488 9.653 23.558 24.434 23.558 14.648 0 24.367-11.004 24.367-23.422 0-13.836-11.07-23.827-24.434-23.827m77.877.607h-2.971l-34.964 40.5v-40.5h-3.578v46.036h3.31l34.625-40.231v40.23h3.578z" fill="#6d6f71"/><path d="M33.982 126.405V33.982h92.422z" fill="#bcbec0"/><path d="M210.538 33.982v33.985l-33.985-33.985z" fill="#b2a084"/><path d="M147.127 63.823l-63.41 63.41v-29.84l63.41-63.411 63.411 63.41v29.842z" fill="#1c4e75"/></g></svg>