<svg version="1.0" xmlns="http://www.w3.org/2000/svg" width="1322.667" height="266.667" viewBox="0 0 992 200"><path d="M125 75.5V151h26V0h-26v75.5zm459 0V151h25v-13.2l2.5 3c3.5 4.2 11 8.7 17.4 10.6 6.7 2 20.8 2.1 27.7.2 22-5.8 35.4-25 35.4-50.4 0-15.1-3.3-25.7-11.2-35.9-11.3-14.7-33.3-21.1-52.2-15.3-6 1.9-14.4 7.2-17.3 10.9-1 1.3-1.2-4.9-1.3-29.7V0h-26v75.5zm65.1-1.8c10.8 4.8 16.9 14.6 16.9 26.8 0 11.8-5.5 21.1-15.5 26.3-6.7 3.5-17.7 3.7-24.6.6-19.5-9-22.6-37.1-5.4-50.5 7.4-5.9 19.5-7.2 28.6-3.2zM0 77.1v74.1l34.3-.5c27.2-.3 35.5-.8 40.5-2.1 15-3.9 25.7-11.8 30.8-22.9 2.6-5.6 2.9-7.3 2.9-16.7 0-8.6-.4-11.3-2.2-15.2-4.6-10.1-11.9-16.6-22.2-19.9-3.1-1-4.9-1.8-4-1.8 3.1-.2 13.7-8 16.8-12.4 6.1-9 7.5-21.5 3.5-33-2.2-6.5-10.1-14.9-17-18.2C73.2 3.7 67.3 3 32.3 3H0v74.1zm55.8-50.2C70.5 29.1 77.6 37 75 48.6c-1.1 4.8-7.1 10.7-12.6 12.4-2.2.7-11 1.4-19.6 1.7l-15.8.5V26h11.3c6.1 0 14 .4 17.5.9zm7.8 60.2c11.1 2 16.8 7.1 18 16 1.5 10.6-4.4 19.2-15.3 22.2-4.5 1.3-10.1 1.7-22.6 1.7H27V86h15.3c8.4 0 18 .5 21.3 1.1zm142.7-37.7c-17.6 4.3-32.2 17.7-37.3 34.4-2.8 8.9-2.8 24.5 0 33.4 5.2 16.8 19.6 30.1 37.1 34.3 8.4 1.9 22.5 1.9 30.3-.1 9.7-2.5 18.9-7.9 25.5-14.9 6.9-7.4 10.5-14.4 12.6-24 6.2-29.2-10.5-56.3-38.6-63-7.7-1.8-22.4-1.8-29.6-.1zm26.1 24c1.9.8 5.5 3.3 7.9 5.5 12.5 11.6 12.4 31.7-.3 43.5-14.6 13.7-39.3 7.3-45.6-11.7-5.6-16.9 3.4-34.4 20.1-38.8 4-1.1 13.7-.3 17.9 1.5zM326 49.5c-28.9 7-44.9 33.6-38.6 63.6 3.6 16.8 15.3 30 32.3 36.6 9 3.4 25.6 4.4 35.3 1.9 19.6-4.9 33.6-18.3 38.5-36.7 1.8-6.4 1.9-19.7.4-27.1-3.8-18.4-18.8-33.3-38.4-38.3-7.2-1.8-21.9-1.8-29.5 0zm22.8 23c7.5 2.3 13.1 7 16.9 14.4 2.8 5.4 3.3 7.3 3.3 13.5 0 12-5.7 21.3-16.4 26.8-5.8 3-17.3 3.1-23.7.2-23.8-11-21.7-47.1 3.3-54.9 5.8-1.8 10.4-1.8 16.6 0zm102.7-22.7c-6.5 2.2-10.9 5.4-14.6 10.5l-2.9 4V50h-25v101h25.8l.4-31.3c.3-27.3.5-31.7 2.1-35.2 2.8-6.2 7.4-10.4 13.5-12.1 10-2.9 17.6-.1 21.3 8 1.7 3.7 1.9 7.1 1.9 37.3V151h25.9l.3-31.8.3-31.7 2.6-5c7.1-13.9 25.8-15.3 32.9-2.5l2.5 4.5.3 33.2.3 33.3H565v-32.8c-.1-35.8-.9-44.1-5.4-52.9-3.2-6.3-8.3-11.4-14.4-14.5-4.1-2-6.2-2.3-16.7-2.3-11.1 0-12.4.2-17.7 2.8-3.3 1.6-7.7 5-10.5 8.1l-4.9 5.3-2.2-3.9c-2.9-4.9-9-9.4-15.5-11.3-6.9-2-19.9-1.9-26.2.3zm290.5-.2c-9.5 2.5-18.1 7.3-24.5 13.8-10.4 10.5-14.5 21.1-14.5 37.1s4.1 26.6 14.5 37.1c4.2 4.2 8.3 7.2 13.5 9.6 9.3 4.4 15.6 5.8 26.8 5.8 14.8 0 26.1-4.3 36.2-13.7 3.3-3 6-5.8 6-6.2 0-.6-17.5-14.1-18.3-14.1-.2 0-2.3 1.8-4.6 4s-6.1 5-8.4 6.2c-5.3 2.6-16 3.5-22.2 1.8-5.6-1.6-13.2-8.1-15.6-13.5-3.7-8.1-6.6-7.5 35.7-7.5h37.7l-.6-12.3c-.3-6.7-1.2-14.3-2-16.8-5.4-16.6-16.2-27.5-31.1-31.5-6.6-1.8-21.6-1.7-28.6.2zm23 20.1c6.8 2.8 12.9 11 13 17.5V90h-24.5c-27.7 0-26.3.5-22.4-8 2.3-5.2 6.2-9.5 10.2-11.7 6.5-3.3 16.4-3.6 23.7-.6zm100-20.8c-7.2 2.2-15.6 8.8-18.8 14.6-.9 1.6-1.1.4-1.2-5.8V50h-25v101h24.9l.3-29.3c.3-28.3.4-29.4 2.7-34.5 5.3-11.6 16.2-16.5 31.4-13.9l4.7.8V61.7c0-12.1-.1-12.5-2.2-13.1-3.1-.8-13.7-.6-16.8.3zm54.9.5c-16.8 4.9-28.8 17.4-33.4 35.2-1.9 7.5-1.9 23.3 0 30.9 5.6 21.5 25 36.5 47.2 36.5 11.9 0 22.3-3.5 29.9-10.2l3.7-3.3-.5 9c-.8 14.2-5.1 21.9-14.7 26.4-5 2.3-6.8 2.6-16.1 2.6-12.4-.1-18.4-2-28.1-9.1-3.4-2.5-6.5-4.2-7-3.7-.4.4-4 5.1-7.8 10.3l-7 9.5 3.2 2.8c4.9 4.3 10.7 7.4 19.3 10.3 6.9 2.4 9.8 2.8 23.4 3.2 11.9.3 17.1 0 22.3-1.2 14.1-3.3 25.1-11.4 31.4-23.2 6.2-11.7 6.3-12.7 6.3-71.8V50h-24v13l-4.1-4.1c-2.3-2.3-7.1-5.5-10.7-7.2-6-2.8-7.7-3.1-17.7-3.4-7-.1-12.7.2-15.6 1.1zm32.4 24.4c9.2 4.1 14.7 12.6 15.5 23.8 1.2 18.1-10.5 30.7-28.4 30.7-16.6.1-28.6-11.8-28.6-28.3 0-10.3 4.1-18.1 12.6-24.3 6.8-4.9 20.2-5.8 28.9-1.9z"/></svg>