<svg viewBox="134 23 211.8 100" xmlns="http://www.w3.org/2000/svg"><path d="M252.3 69.3c0 3.1-1.4 4.9-5 4.9h-3.1v-9.6c.4 0 1.7-.1 2.1-.1h1.1c3.7 0 4.9 1.6 4.9 4.8m7.4 11.9c0-4.7-3.8-6.4-8.5-6.5v-.2c4-.3 7.2-2 7.2-6 0-4.5-3.7-5.3-7.8-5.3-5 0-10.8.1-15.7 0v1.2c1.1-.1 3.6.1 3.6 1.4v19.6c0 1.3-2.6 1.5-3.6 1.5v1.2c4.8-.1 10.5 0 15.3 0 5 .1 9.5-1.7 9.5-6.9zm-6.3-.4c0 4.1-1.4 6-6.1 6h-2.9V75.5h3.1c4.3 0 5.9 1.5 5.9 5.3zm38.3 7.3H285v-1.2c1 0 3.8-.1 3.8-1.4V67.2h-.1l-10.1 21.3h-1.1l-9.9-21.2h-.1v18.3c0 1.4 2.9 1.4 4 1.4v1.2c-2.8-.1-6.6-.2-9.3 0V87c1.1 0 3.6-.1 3.6-1.4V65.9c0-1.3-2.6-1.4-3.6-1.4v-1.2c3.2.1 6.6.1 9.7 0l8.5 17.7 8.6-17.8c3 .1 6.3.1 9.4 0v1.2c-1 0-3.7.1-3.7 1.4v19.6c0 1.4 2.6 1.4 3.7 1.4V88c-2.2.1-4.5.1-6.7.1m30.1-12.4c0 4.9-.5 11.6-7.5 11.6-7.1 0-7.6-6.8-7.6-11.6 0-4.9.5-11.6 7.6-11.6 7-.1 7.5 6.7 7.5 11.6m6.6 0c0-8.2-5-12.9-14.1-12.9s-14.2 4.6-14.2 12.9 5 12.9 14.2 12.9c9.1-.1 14.1-4.7 14.1-12.9z" fill="#005cb9"/><path d="M253.7 52.8h34v35.4h-34z" fill="none"/><path d="M192.2 67.9c-.2-.3-.6-.5-1.1-.5-.4 0-.8.3-1.1.6l-6.3 8.2c-.2.3-.6.5-1 .5s-.8-.2-1-.5l-6.3-8.2c-.2-.4-.6-.6-1.1-.6-.4 0-.8.2-1.1.5l-7.4 9.5h33.8z" fill="#e2231a"/><path d="M182.7 36.5c-19.9 0-36 16.1-36 36s16.1 36 36 36 36-16.1 36-36-16.1-36-36-36zm17 51.7h-34V77.4h.1V62.7l7.4-9.4c.3-.3.7-.5 1.1-.5s.8.3 1.1.6l6.2 8.1c.2.3.6.5 1.1.5.4 0 .8-.2 1.1-.5l6.2-8.1c.2-.4.6-.6 1.1-.6s.8.2 1.1.5l7.4 9.4v14.7h.1z" fill="#e2231a"/></svg>