<svg height="400" width="400" xmlns="http://www.w3.org/2000/svg"><path d="M149.647.274c-.148.17-.726 1.097-1.284 2.059-.557.963-1.434 2.425-1.948 3.25-1.389 2.228-2.939 4.822-3.446 5.767a26.252 26.252 0 01-1.02 1.7 64.387 64.387 0 00-1.53 2.533 93.84 93.84 0 01-1.701 2.834c-1.027 1.614-2.712 4.432-3.249 5.433a26.252 26.252 0 01-1.02 1.7 64.387 64.387 0 00-1.53 2.533 93.84 93.84 0 01-1.701 2.834c-1.027 1.614-2.712 4.432-3.249 5.433a26.252 26.252 0 01-1.02 1.7 64.387 64.387 0 00-1.53 2.533 93.84 93.84 0 01-1.701 2.834c-1.027 1.614-2.712 4.432-3.249 5.433a26.252 26.252 0 01-1.02 1.7 64.387 64.387 0 00-1.53 2.533 93.84 93.84 0 01-1.701 2.834c-1.027 1.614-2.712 4.432-3.249 5.433a26.252 26.252 0 01-1.02 1.7 64.387 64.387 0 00-1.53 2.533 93.84 93.84 0 01-1.701 2.834c-1.027 1.614-2.712 4.432-3.249 5.433a26.252 26.252 0 01-1.02 1.7 64.387 64.387 0 00-1.53 2.533 93.84 93.84 0 01-1.701 2.834c-1.027 1.614-2.712 4.432-3.249 5.433a26.252 26.252 0 01-1.02 1.7 64.387 64.387 0 00-1.53 2.533 93.84 93.84 0 01-1.701 2.834c-1.027 1.614-2.712 4.432-3.249 5.433a26.252 26.252 0 01-1.02 1.7 64.387 64.387 0 00-1.53 2.533 93.84 93.84 0 01-1.701 2.834c-1.027 1.614-2.712 4.432-3.249 5.433a26.252 26.252 0 01-1.02 1.7 64.387 64.387 0 00-1.53 2.533 93.84 93.84 0 01-1.701 2.834c-1.027 1.614-2.712 4.432-3.249 5.433a26.252 26.252 0 01-1.02 1.7 64.387 64.387 0 00-1.53 2.533 93.84 93.84 0 01-1.701 2.834c-1.027 1.614-2.712 4.432-3.249 5.433a26.252 26.252 0 01-1.02 1.7 64.387 64.387 0 00-1.53 2.533 93.84 93.84 0 01-1.701 2.834c-1.027 1.614-2.712 4.432-3.249 5.433a26.252 26.252 0 01-1.02 1.7 64.387 64.387 0 00-1.53 2.533 93.84 93.84 0 01-1.701 2.834c-1.027 1.614-2.712 4.432-3.249 5.433a26.252 26.252 0 01-1.02 1.7 64.387 64.387 0 00-1.53 2.533 93.84 93.84 0 01-1.701 2.834c-1.027 1.614-2.712 4.432-3.249 5.433a26.252 26.252 0 01-1.02 1.7 64.387 64.387 0 00-1.53 2.533 93.84 93.84 0 01-1.701 2.834c-1.027 1.614-2.712 4.432-3.249 5.433a26.252 26.252 0 01-1.02 1.7 64.387 64.387 0 00-1.53 2.533 93.84 93.84 0 01-1.701 2.834c-1.027 1.614-2.712 4.432-3.249 5.433a26.252 26.252 0 01-1.02 1.7 64.387 64.387 0 00-1.53 2.533 93.84 93.84 0 01-1.701 2.834c-1.027 1.614-2.712 4.432-3.249 5.433a26.252 26.252 0 01-1.02 1.7 64.387 64.387 0 00-1.53 2.533 93.84 93.84 0 01-1.701 2.834c-1.027 1.614-2.712 4.432-3.249 5.433a26.252 26.252 0 01-1.02 1.7 64.387 64.387 0 00-1.53 2.533 93.84 93.84 0 01-1.701 2.834c-1.027 1.614-2.712 4.432-3.249 5.433a26.252 26.252 0 01-1.02 1.7 64.387 64.387 0 00-1.53 2.533 93.84 93.84 0 01-1.701 2.834 220.36 220.36 0 00-3.158 5.224c-.197.335-.408.778-.47.984l-.112.375h250.023l-.042 75c-.028 49.918.013 75 .124 74.999.092-.001.346-.32.564-.709.218-.388.676-1.121 1.017-1.627s.782-1.256.98-1.667c.198-.41.775-1.383 1.282-2.163.507-.779.997-1.599 1.089-1.822s.491-.898.887-1.5c1.242-1.885 1.598-2.497 1.598-2.744 0-.131.06-.264.134-.295.073-.03.425-.543.781-1.139a27.62 27.62 0 011.012-1.583c.202-.275.526-.838.722-1.25.195-.413.77-1.387 1.277-2.167.507-.779.997-1.599 1.089-1.822s.491-.898.887-1.5c1.242-1.885 1.598-2.497 1.598-2.744 0-.131.06-.264.134-.295.073-.03.425-.543.781-1.139a27.62 27.62 0 011.012-1.583c.202-.275.526-.838.722-1.25.195-.413.77-1.387 1.277-2.167.507-.779.997-1.599 1.089-1.822s.491-.898.887-1.5c1.242-1.885 1.598-2.497 1.598-2.744 0-.131.06-.264.134-.295.073-.03.425-.543.781-1.139a27.62 27.62 0 011.012-1.583c.202-.275.526-.838.722-1.25.195-.413.77-1.387 1.277-2.167.507-.779.997-1.599 1.089-1.822s.491-.898.887-1.5c1.242-1.885 1.598-2.497 1.598-2.744 0-.131.06-.264.134-.295.073-.03.425-.543.781-1.139a27.62 27.62 0 011.012-1.583c.202-.275.526-.838.722-1.25.195-.413.77-1.387 1.277-2.167.507-.779.997-1.599 1.089-1.822s.491-.898.887-1.5c1.242-1.885 1.598-2.497 1.598-2.744 0-.131.06-.264.134-.295.073-.03.425-.543.781-1.139s.811-1.308 1.012-1.583c.202-.275.526-.838.722-1.25.195-.413.77-1.388 1.277-2.167s.997-1.599 1.089-1.822.491-.898.887-1.5c1.242-1.885 1.598-2.497 1.598-2.744 0-.131.06-.264.134-.295.073-.03.425-.543.781-1.139s.811-1.308 1.012-1.583c.202-.275.526-.838.722-1.25.195-.413.77-1.388 1.277-2.167s.997-1.599 1.089-1.822.491-.898.887-1.5c1.242-1.885 1.598-2.497 1.598-2.744 0-.131.06-.264.134-.295.073-.03.425-.543.781-1.139s.811-1.308 1.012-1.583c.202-.275.526-.838.722-1.25.195-.413.77-1.388 1.277-2.167s.997-1.599 1.089-1.822.491-.898.887-1.5c1.242-1.885 1.598-2.497 1.598-2.744 0-.131.06-.264.134-.295.073-.03.425-.543.781-1.139s.811-1.308 1.012-1.583c.202-.275.526-.838.722-1.25.195-.413.77-1.388 1.277-2.167s.997-1.599 1.089-1.822.491-.898.887-1.5c1.242-1.885 1.598-2.497 1.598-2.744 0-.131.06-.264.134-.295.073-.03.425-.543.781-1.139s.811-1.308 1.012-1.583c.202-.275.526-.838.722-1.25.195-.413.77-1.388 1.277-2.167s.997-1.599 1.089-1.822.491-.898.887-1.5c1.242-1.885 1.598-2.497 1.598-2.744 0-.131.06-.264.134-.295.073-.03.425-.543.781-1.139s.811-1.308 1.012-1.583c.202-.275.526-.838.722-1.25.195-.413.77-1.388 1.277-2.167s.997-1.599 1.089-1.822.491-.898.887-1.5c1.242-1.885 1.598-2.497 1.598-2.744 0-.131.06-.264.134-.295.073-.03.425-.543.781-1.139s.811-1.308 1.012-1.583c.202-.275.526-.838.722-1.25.195-.413.77-1.388 1.277-2.167s.997-1.599 1.089-1.822.491-.898.887-1.5c1.242-1.885 1.598-2.497 1.598-2.744 0-.131.06-.264.134-.295.073-.03.425-.543.781-1.139s.811-1.308 1.012-1.583c.202-.275.526-.838.722-1.25.195-.412.77-1.388 1.277-2.167s.997-1.599 1.089-1.822.491-.898.887-1.5c1.242-1.885 1.598-2.497 1.598-2.744 0-.131.06-.264.134-.295.073-.03.425-.543.781-1.139s.811-1.308 1.012-1.583c.202-.275.526-.838.722-1.25.195-.412.77-1.388 1.277-2.167s.997-1.599 1.089-1.822.491-.898.887-1.5c1.242-1.885 1.598-2.497 1.598-2.744 0-.131.06-.264.134-.295.073-.03.425-.543.781-1.139s.811-1.308 1.012-1.583c.202-.275.526-.838.722-1.25.195-.412.77-1.388 1.277-2.167s.997-1.599 1.089-1.822.491-.898.887-1.5c1.242-1.885 1.598-2.497 1.598-2.744 0-.131.06-.264.134-.295.073-.03.425-.543.781-1.139s.811-1.308 1.012-1.583c.202-.275.526-.838.722-1.25.195-.412.77-1.388 1.277-2.167s.997-1.599 1.089-1.822.491-.898.887-1.5c1.242-1.885 1.598-2.497 1.598-2.744 0-.131.06-.264.134-.295.073-.03.425-.543.781-1.139s.811-1.308 1.012-1.583c.202-.275.526-.838.722-1.25.195-.412.77-1.388 1.277-2.167s.997-1.599 1.089-1.822.491-.898.887-1.5c1.242-1.885 1.598-2.497 1.598-2.744 0-.131.06-.264.134-.295.073-.03.425-.543.781-1.139s.811-1.308 1.012-1.583c.202-.275.526-.838.722-1.25.195-.412.77-1.388 1.277-2.167s.997-1.599 1.089-1.822.491-.898.887-1.5c1.242-1.885 1.598-2.497 1.598-2.744 0-.131.06-.264.134-.295.073-.03.425-.543.781-1.139s.811-1.308 1.012-1.583c.202-.275.526-.838.722-1.25.195-.413.77-1.388 1.277-2.167s.997-1.599 1.089-1.822.491-.898.887-1.5c1.242-1.885 1.598-2.497 1.598-2.744 0-.131.06-.264.134-.295.073-.03.425-.543.781-1.139s.811-1.308 1.012-1.583c.202-.275.526-.838.722-1.25.195-.413.77-1.388 1.277-2.167s.997-1.599 1.089-1.822.491-.898.887-1.5c1.254-1.903 1.598-2.497 1.598-2.758 0-.226-13.274-.253-125-.253H150l-.041-75.017c-.039-69.141-.063-74.994-.312-74.709" fill="#046cfc" fill-rule="evenodd"/></svg>