<svg width="1922" height="320" xmlns="http://www.w3.org/2000/svg"><g fill="none" fill-rule="evenodd"><path d="M156.602 281.799c-.235.062-.471.12-.707.18-.967.247-1.935.483-2.906.706-.23.053-.46.104-.691.156-.968.217-1.938.423-2.91.617l-.766.15c-.942.18-1.886.354-2.833.514l-.905.148c-.896.145-1.792.283-2.69.41-.365.05-.73.097-1.094.145-.836.11-1.673.214-2.512.308-.432.048-.864.09-1.297.135-.773.078-1.545.15-2.318.215-.5.041-1 .077-1.5.112-.711.05-1.422.097-2.135.135-.557.03-1.116.053-1.673.077a118.927 118.927 0 01-3.787.097c-.624.006-1.25.01-1.875.008a128.58 128.58 0 01-1.863-.024c-.62-.012-1.24-.025-1.859-.046a124 124 0 01-1.823-.077c-.645-.03-1.29-.065-1.933-.106-.238-.015-.477-.022-.714-.039-.22-.015-.44-.043-.659-.059a127.856 127.856 0 01-4.101-.371c-.193-.022-.388-.037-.58-.06-.184-.02-.367-.034-.55-.056-1.08-.127-2.15-.292-3.225-.445-.466-.067-.936-.12-1.401-.193a122.66 122.66 0 01-4.047-.709c-.342-.065-.687-.118-1.03-.186a125.986 125.986 0 01-4.14-.903c-.306-.07-.613-.132-.918-.205a123.98 123.98 0 01-4.04-1.055c-.329-.09-.66-.17-.988-.265a121.102 121.102 0 01-3.795-1.158c-.397-.126-.796-.241-1.192-.371a125.877 125.877 0 01-3.468-1.215c-.484-.176-.974-.34-1.458-.52-1.04-.392-2.067-.812-3.098-1.23-.585-.237-1.175-.464-1.757-.71-.912-.387-1.81-.8-2.713-1.205-.686-.31-1.376-.609-2.058-.931-.795-.377-1.578-.777-2.364-1.17-.77-.382-1.542-.755-2.303-1.154-.707-.37-1.402-.764-2.101-1.147-.82-.45-1.642-.892-2.452-1.358-.656-.38-1.3-.78-1.95-1.171-.827-.499-1.66-.99-2.477-1.509-.659-.417-1.304-.855-1.955-1.286-.78-.513-1.565-1.02-2.333-1.552-.728-.505-1.44-1.032-2.156-1.552-.664-.481-1.334-.951-1.988-1.446-.877-.661-1.734-1.348-2.594-2.034-.465-.37-.937-.728-1.397-1.106a122.825 122.825 0 01-3.324-2.84c-.15-.131-.305-.254-.453-.386l-.03-.03c-1.46-1.3-2.9-2.626-4.299-3.996a6.817 6.817 0 019.539-9.737 109.431 109.431 0 004.034 3.738c1.058.938 2.13 1.856 3.222 2.751.338.278.687.543 1.029.815.835.67 1.67 1.336 2.524 1.98.528.398 1.069.777 1.603 1.166.693.503 1.383 1.013 2.088 1.501.643.443 1.298.867 1.95 1.297.622.413 1.24.832 1.87 1.231.697.44 1.408.86 2.113 1.286.61.367 1.214.742 1.829 1.098.7.404 1.411.785 2.119 1.174.646.354 1.286.716 1.939 1.057.66.348 1.333.672 2.001 1.005.717.358 1.432.724 2.158 1.067.597.282 1.204.545 1.806.816.813.366 1.622.738 2.443 1.086.518.219 1.043.42 1.564.631.92.373 1.836.748 2.764 1.096.432.162.868.309 1.302.465 1.027.372 2.056.742 3.093 1.084.35.116.706.217 1.058.33 1.125.357 2.252.71 3.387 1.033.294.084.594.156.89.238 1.193.328 2.39.649 3.594.939.274.066.553.12.829.185 1.224.284 2.45.558 3.685.803.302.059.609.107.913.165 1.202.226 2.407.444 3.617.632.405.063.815.11 1.223.17 1.13.163 2.26.322 3.395.45.165.018.331.033.497.05 1.227.133 2.457.243 3.69.335.396.03.792.06 1.188.085.593.038 1.184.068 1.777.096a91.031 91.031 0 003.293.11 102 102 0 003.342.012c.512-.005 1.022-.012 1.533-.024.616-.016 1.232-.038 1.847-.064.47-.018.941-.039 1.41-.063a119.963 119.963 0 006.464-.53c.78-.087 1.56-.183 2.338-.285.292-.04.584-.077.875-.118.834-.118 1.667-.245 2.499-.38.236-.039.474-.076.71-.116.876-.148 1.749-.307 2.62-.476l.59-.115c.897-.178 1.79-.369 2.682-.569l.535-.119a111.32 111.32 0 002.668-.65l.555-.14c.86-.225 1.716-.461 2.57-.704.223-.065.446-.128.67-.194.789-.23 1.575-.473 2.36-.722.3-.095.601-.19.902-.288.681-.224 1.36-.455 2.038-.69.414-.146.83-.29 1.243-.44a110.236 110.236 0 005.618-2.197 6.816 6.816 0 018.935 3.61 6.812 6.812 0 01-3.61 8.935 123.798 123.798 0 01-5.234 2.067c-.09.037-.175.08-.266.114-.258.096-.52.182-.78.276-.478.173-.959.34-1.44.507a112.86 112.86 0 01-3.305 1.1c-.858.273-1.719.538-2.582.792-.274.08-.55.158-.826.236-.93.267-1.864.525-2.802.77zm44.458-104.824a79.254 79.254 0 001.698-11.68c1.464-21.045-5.406-41.362-19.348-57.201-13.719-15.592-32.687-24.97-53.407-26.411a78.586 78.586 0 00-21.693 1.498c-3.679.77-7.3-1.581-8.077-5.263a6.815 6.815 0 015.264-8.073 92.318 92.318 0 0125.452-1.758c24.324 1.692 46.59 12.701 62.697 31.004 16.364 18.593 24.43 42.443 22.71 67.153a93.004 93.004 0 01-1.99 13.694 6.817 6.817 0 01-13.306-2.963zM172.9 21.521a6.811 6.811 0 01-4.195-8.675 6.814 6.814 0 018.677-4.195c25.895 9.013 49.215 24.722 67.435 45.423 21.37 24.284 34.756 54.02 38.71 85.995a6.813 6.813 0 01-5.926 7.6 6.85 6.85 0 01-1.317.037 6.818 6.818 0 01-6.285-5.963c-3.619-29.246-15.864-56.448-35.416-78.665C217.91 44.136 196.58 29.764 172.9 21.521zm104.95 146.603a6.812 6.812 0 016.117 7.447c-3.987 40.5-23.02 77.617-53.595 104.514-19.216 16.904-41.452 28.66-66.09 34.944a6.837 6.837 0 01-2.16.199 6.816 6.816 0 01-1.21-13.404c22.531-5.746 42.872-16.502 60.453-31.97 27.973-24.61 45.388-58.565 49.037-95.616.367-3.747 3.757-6.421 7.449-6.114zM71.942 84.381a6.816 6.816 0 019.49 1.685 6.812 6.812 0 01-1.683 9.488 81.28 81.28 0 00-2.22 1.616 6.733 6.733 0 01-.826.77 79.182 79.182 0 00-6.679 5.815 6.791 6.791 0 01-4.884 1.934 6.795 6.795 0 01-4.753-2.058 6.812 6.812 0 01.124-9.635 89.845 89.845 0 012.315-2.171c.276-.368.592-.714.952-1.03a93.191 93.191 0 018.164-6.414zm127.804 174.475a6.792 6.792 0 01-4.795-2.473 6.813 6.813 0 01.94-9.592c.999-.82 1.987-1.66 2.966-2.519 22.372-19.679 35.833-46.886 37.9-76.605 1.625-23.334-3.897-46.175-15.969-66.052a6.812 6.812 0 012.287-9.363 6.814 6.814 0 019.364 2.287c13.544 22.3 19.738 47.915 17.918 74.073-2.319 33.323-17.411 63.827-42.498 85.893-1.094.963-2.2 1.902-3.316 2.819a6.8 6.8 0 01-4.797 1.532zm9.69-192.249c2.493 2.273 3.19 6.127 1.332 8.943a6.821 6.821 0 01-9.725 1.795c-18.124-16.843-41.642-27.335-66.411-29.56-30.164-2.706-59.512 6.563-82.642 26.1-2.312 1.95-4.9 4.042-7.542 6.213a6.571 6.571 0 01-9.107-.734 6.571 6.571 0 01-.447-8.125c2.767-2.655 5.385-5.156 6.374-6.028 25.487-22.42 58.179-33.471 92.052-31.116 28.253 1.965 55.274 13.508 76.115 32.512zM23.364 212.96a23.715 23.715 0 016.386-7.841c5.021-4.012 11.298-5.807 17.676-5.06a23.711 23.711 0 0115.856 8.8c.534.668 1.092 1.311 1.646 1.959.26.271.534.526.784.81 13.72 15.59 32.69 24.968 53.409 26.41 21.054 1.464 41.375-5.406 57.219-19.344a78.073 78.073 0 003.29-3.063l.013-.011a79.428 79.428 0 002.857-2.982c.099-.109.204-.212.302-.322a77.13 77.13 0 002.3-2.691c.226-.272.46-.537.68-.812a79.22 79.22 0 002.596-3.416 6.819 6.819 0 019.51-1.578 6.815 6.815 0 011.578 9.507 90.716 90.716 0 01-2.468 3.277 92.606 92.606 0 01-11.653 12.324c-18.599 16.36-42.454 24.424-67.17 22.706-24.323-1.691-46.59-12.702-62.696-31.004a10.35 10.35 0 00-.74-.755c-.71-.828-1.422-1.653-2.106-2.508a10.156 10.156 0 00-6.795-3.77 10.16 10.16 0 00-7.576 2.167 10.181 10.181 0 00-2.737 3.356 6.815 6.815 0 01-9.16 2.999 6.716 6.716 0 01-.814-.496c-2.746-1.91-3.741-5.594-2.186-8.662zM6.748 83.659a24.137 24.137 0 01-3.966-6.096A23.986 23.986 0 01.678 66.67c.238-5.734 4.296-12.864 7.214-16.205 9.777-11.195 29.944-26.403 48.067-34.996C83.795 2.275 114.395-2.584 144.743 1.297c1.522.194 3.043.39 4.562.628a6.813 6.813 0 015.678 7.788c-.07.443-.18.87-.327 1.276a6.818 6.818 0 01-7.462 4.4c-29.12-4.569-58.649-.283-85.393 12.396a147.009 147.009 0 00-28.146 17.484c-5.705 4.506-12.615 10.498-16.03 14.736-1.236 1.532-3.086 4.849-3.08 7.243.005 2.723.855 5.232 2.514 7.136.097.112.194.222.295.328 2.405 2.829 2.172 7.069-.583 9.604a6.95 6.95 0 01-9.688-.28c-.114-.125-.224-.252-.336-.378zm121.981 222.655a6.816 6.816 0 017.004 6.622 6.819 6.819 0 01-4.681 6.66 173.46 173.46 0 01-4.01.122c-.655.012-1.31.024-1.966.029.101-.001.2.002.3.001 1.886-.013 3.78-.071 5.676-.151a6.805 6.805 0 01-1.943.341c-5.202.145-10.47.034-15.66-.326-37.942-2.637-73.003-18.311-100.056-44.462 19.005 18.24 41.736 31.266 66.417 38.367-.819-.237-1.63-.487-2.445-.735A158.455 158.455 0 0125.7 285.79c-.157-.124-.317-.24-.473-.364-.156-.122-.31-.245-.464-.367l-.071-.055a56.92 56.92 0 01-.614-.488c-.057-.047-.106-.099-.16-.148a161.62 161.62 0 01-21.482-20.986c-.314-.373-.632-.741-.945-1.118a6.81 6.81 0 01.952-9.477 6.82 6.82 0 019.016.248 6.8 6.8 0 01.586.612c.294.352.598.695.896 1.046a146.384 146.384 0 0011.08 11.728c.955.903 1.914 1.8 2.89 2.674.4.36.808.71 1.213 1.066a148.295 148.295 0 003.765 3.212l.203.168c23.266 18.992 51.761 30.352 82.301 32.475 4.751.33 9.576.431 14.336.298z" fill="#5477FE"/><path d="M426 158.777c0-9.458 1.672-18.9 5-28.296 3.328-9.398 8.206-17.82 14.644-25.296 6.44-7.476 14.318-13.498 23.638-18.08 9.318-4.598 19.892-6.888 31.735-6.888 14.056 0 26.114 3.188 36.176 9.55 7.132 4.51 12.956 9.982 17.486 16.42 3.066 4.358 1.886 10.398-2.584 13.298-4.21 2.728-9.834 1.668-12.732-2.426a40.57 40.57 0 00-4.058-4.892c-3.328-3.39-6.966-6.13-10.884-8.204-3.916-2.074-7.94-3.546-12.088-4.442-4.15-.882-8.206-1.332-12.198-1.332-8.733 0-16.47 1.81-23.207 5.45-6.732 3.62-12.384 8.358-16.966 14.194-4.596 5.852-8.034 12.43-10.324 19.752-2.292 7.322-3.436 14.69-3.436 22.074 0 8.298 1.362 16.177 4.102 23.639 2.74 7.478 6.548 14.104 11.424 19.86 4.892 5.774 10.666 10.356 17.322 13.762 6.656 3.406 13.903 5.11 21.749 5.11 4.134 0 8.392-.528 12.756-1.564 4.366-1.022 8.546-2.694 12.538-4.984 3.994-2.292 7.726-5.186 11.208-8.656 1.596-1.6 3.06-3.35 4.392-5.248 2.78-3.952 8.134-5.11 12.374-2.792 4.94 2.702 6.588 9.134 3.35 13.74a49.183 49.183 0 01-5.472 6.5 66.767 66.767 0 01-15.31 11.44 78.412 78.412 0 01-18.094 7.09c-6.364 1.624-12.57 2.444-18.638 2.444-10.807 0-20.713-2.366-29.739-7.104-9.024-4.722-16.826-10.898-23.406-18.53-6.594-7.616-11.686-16.27-15.308-25.96-3.638-9.69-5.45-19.567-5.45-29.629zm268.082 81.006c-11.098 0-21.192-2.26-30.294-6.778-9.102-4.506-16.904-10.496-23.406-17.974-6.516-7.46-11.548-16.006-15.092-25.634-3.546-9.614-5.326-19.444-5.326-29.504 0-10.512 1.89-20.573 5.65-30.187 3.778-9.612 8.994-18.126 15.652-25.526 6.656-7.384 14.534-13.266 23.636-17.632C674.004 82.184 683.882 80 694.53 80c11.1 0 21.147 2.322 30.173 6.982 9.024 4.658 16.796 10.774 23.312 18.312 6.502 7.54 11.532 16.084 15.094 25.636 3.544 9.534 5.324 19.27 5.324 29.179 0 10.51-1.888 20.574-5.666 30.186-3.776 9.614-8.948 18.08-15.526 25.402-6.594 7.322-14.426 13.174-23.53 17.54-9.102 4.364-18.979 6.546-29.629 6.546zm-53.932-79.89c0 7.986 1.3 15.71 3.886 23.188 2.584 7.478 6.254 14.088 10.99 19.86 4.738 5.774 10.434 10.356 17.09 13.762 6.658 3.406 14.056 5.094 22.184 5.094 8.436 0 15.99-1.796 22.647-5.434 6.656-3.622 12.306-8.358 16.966-14.194 4.66-5.852 8.22-12.462 10.666-19.862 2.43-7.398 3.654-14.874 3.654-22.414 0-7.988-1.302-15.729-3.886-23.19-2.586-7.477-6.284-14.055-11.1-19.753-4.798-5.696-10.496-10.248-17.074-13.654-6.594-3.404-13.87-5.108-21.873-5.108-8.422 0-15.976 1.78-22.632 5.326-6.656 3.56-12.322 8.22-16.982 13.994-4.66 5.76-8.236 12.352-10.758 19.736-2.508 7.4-3.778 14.955-3.778 22.649zm220.374-41.503v110.295c0 5.514-4.47 9.986-9.984 9.986-5.516 0-9.984-4.472-9.984-9.986V91.575a10.474 10.474 0 0118.67-6.522l94.502 118.772V91.316c0-5.514 4.47-9.984 9.984-9.984 5.516 0 9.985 4.47 9.985 9.984v135.965c0 6.29-5.097 11.39-11.387 11.39a11.393 11.393 0 01-8.89-4.27l-92.896-116.01zm300.025-19.535h-45.487v129.831c0 5.514-4.472 9.984-9.984 9.984-5.516 0-9.986-4.47-9.986-9.984V98.856h-45.502a8.877 8.877 0 01-8.878-8.879 8.877 8.877 0 018.878-8.878h110.959a8.877 8.877 0 018.878 8.878 8.877 8.877 0 01-8.878 8.878zm75.907 129.832V90.93c0-5.428 4.402-9.83 9.83-9.83h57.63c6.967 0 13.345 1.454 19.197 4.334a48.575 48.575 0 0115.108 11.532c4.21 4.814 7.494 10.218 9.876 16.208 2.354 5.99 3.53 12.09 3.53 18.312 0 5.464-.774 10.758-2.324 15.868-1.546 5.092-3.776 9.72-6.656 13.868a44.747 44.747 0 01-10.432 10.65c-4.056 2.959-8.606 5.11-13.654 6.44l28.888 45.675c4.028 6.372-.55 14.684-8.088 14.684a9.57 9.57 0 01-8.076-4.44l-33.126-52.156h-41.735v46.612c0 5.512-4.47 9.984-9.984 9.984s-9.984-4.472-9.984-9.984zm19.968-64.367h47.709c4.15 0 7.896-.882 11.208-2.664 3.344-1.764 6.194-4.18 8.544-7.212 2.386-3.02 4.212-6.534 5.544-10.528a39.173 39.173 0 002.012-12.43c0-4.444-.774-8.622-2.322-12.54-1.578-3.916-3.622-7.398-6.224-10.432-2.598-3.034-5.634-5.402-9.1-7.104a24.68 24.68 0 00-10.992-2.554h-46.379v65.464zm226.592-83.22c5.106 0 9.702 3.09 11.632 7.816l55.618 136.185c2.644 6.478-2.12 13.57-9.116 13.57a9.845 9.845 0 01-9.13-6.16l-16.15-40.002h-66.132l-15.95 39.974a9.834 9.834 0 01-9.133 6.188c-6.99 0-11.748-7.092-9.098-13.562L1471.386 88.9a12.568 12.568 0 0111.63-7.8zm28.41 95.883l-28.406-72.803-29.288 72.803h57.694zm109.847 55.39V90.93c0-5.428 4.4-9.83 9.83-9.83h57.63c6.953 0 13.345 1.454 19.197 4.334 5.836 2.878 10.866 6.734 15.092 11.532a55.368 55.368 0 019.876 16.208c2.354 5.99 3.546 12.09 3.546 18.312 0 5.464-.774 10.758-2.338 15.868-1.548 5.092-3.762 9.72-6.656 13.868a44.727 44.727 0 01-10.418 10.65c-4.072 2.959-8.622 5.11-13.654 6.44l28.882 45.665c4.03 6.376-.55 14.694-8.094 14.694a9.574 9.574 0 01-8.082-4.442l-33.124-52.154h-41.718v50.298a6.297 6.297 0 01-6.297 6.298h-7.376a6.297 6.297 0 01-6.296-6.298zm19.969-68.053h47.708c4.134 0 7.88-.882 11.208-2.664 3.328-1.764 6.178-4.18 8.544-7.212 2.37-3.02 4.212-6.534 5.544-10.528a39.16 39.16 0 001.996-12.43c0-4.444-.774-8.622-2.322-12.54-1.562-3.916-3.622-7.398-6.222-10.432-2.586-3.034-5.62-5.402-9.086-7.104-3.486-1.704-7.154-2.554-10.994-2.554h-46.376v65.464zm171.901-78.803l45.143 77.705 45.586-77.737a8.88 8.88 0 017.658-4.386h1.002c6.898 0 11.16 7.52 7.618 13.438l-51.88 86.657v47.492c0 5.514-4.468 9.984-9.984 9.984-5.514 0-9.985-4.47-9.985-9.984v-47.942L1796.65 94.54c-3.546-5.918.716-13.442 7.616-13.442h1.202a8.877 8.877 0 017.676 4.418z" fill="#191D28"/></g></svg>