<svg viewBox="0 158.5 792 291.5" xmlns="http://www.w3.org/2000/svg"><path d="M0 243.6h678.6v209.9H0z" fill="none"/><path d="M105.6 339.9H49.5v36.2h62.6v28.3h-97V251.9H109v28.3H49.5v31.7h56.1zm111.1 61.5c-6.1 2.9-17.6 5.2-30.8 5.2-35.7 0-58.6-21.9-58.6-56.5 0-32.1 22.2-58.6 63.3-58.6 9 0 19 1.6 26.2 4.3l-5.4 25.6c-4.1-1.8-10.2-3.4-19.2-3.4-18.1 0-29.9 12.9-29.6 30.8 0 20.4 13.6 31 30.3 31 8.1 0 14.5-1.4 19.7-3.6zm67.4 5.4c-32.3 0-57.2-21.3-57.2-57s23.5-58.6 59.3-58.6c33.7 0 56.3 23.3 56.3 56.8 0 40.3-28.7 58.8-58.1 58.8zm.9-24.6c13.6 0 21.9-13.3 21.9-33.2 0-16.3-6.3-33-21.9-33-16.3 0-22.6 16.7-22.6 33.2 0 18.8 7.9 33 22.4 33zm78.7-51.4c0-14.5-.5-26.7-.9-37.1h29.9l1.6 15.4h.5c8.1-11.5 20.8-17.9 36.9-17.9 24.2 0 45.9 21 45.9 56.3 0 40.3-25.6 59.3-50.2 59.3-13.3 0-23.7-5.4-28.7-12.7h-.5v55h-34.4V330.8zm34.4 26c0 2.7.2 5 .7 7.2 2.3 9.3 10.2 16.3 20.1 16.3 14.9 0 23.7-12.4 23.7-31.2 0-17.6-7.9-31-23.3-31-9.7 0-18.3 7.2-20.6 17.4-.5 1.8-.7 4.1-.7 6.1v15.2zm117.8-76.6c-10.9 0-17.9-7.7-17.9-17.2 0-9.7 7.2-17.2 18.3-17.2s17.9 7.5 18.1 17.2c0 9.5-7 17.2-18.3 17.2zm-17 124.1V293.7h34.4v110.6zm154-26.6c0 10.4.5 20.6 1.8 26.7h-31l-2-11.1h-.7c-7.2 8.8-18.5 13.6-31.7 13.6-22.4 0-35.7-16.3-35.7-33.9 0-28.7 25.8-42.3 64.9-42.3v-1.4c0-5.9-3.2-14.2-20.1-14.2-11.3 0-23.3 3.8-30.5 8.1l-6.3-21.9c7.7-4.3 22.8-10 43-10 36.9 0 48.4 21.7 48.4 47.7v38.7zm-33.2-25.6c-18.1 0-32.1 4.3-32.1 17.4 0 8.8 5.9 13.1 13.6 13.1 8.4 0 15.6-5.7 17.9-12.7.5-1.8.7-3.8.7-5.9v-11.9z" fill="#111"/><path d="M781.4 402.4c-16.8-126.7-111.3-222.2-234-222.2-82.1 0-154 45.1-193.4 107.6h22c35.8-48.6 89.2-67.9 149.1-67.9 102.6 0 186.6 78.3 194.1 182.5z" fill="#3a93d0"/><path d="M528.5 158.5c-97.6 0-182.8 51.2-228.6 129.3h54.3c39.4-62.5 111.3-107.6 193.4-107.6 122.7 0 217.2 95.5 234 222.2h10.8C780.5 275.7 667 158.5 528.5 158.5z" fill="#a1cd4d"/></svg>