<svg viewBox="0 0 184.9 95.9" xmlns="http://www.w3.org/2000/svg"><path d="M55.3 84.3c-.2-1.3-.4-2.5-1.7-2.5-1.6 0-1.9 1.6-1.9 4.4 0 1 0 3.8 1.9 3.8 1.4 0 1.6-1.5 1.7-2.5l2.2.2c-.2 1.4-.6 4.2-4 4.2-3.6 0-4.2-3.6-4.2-6 0-2.7.7-6 4.3-6 3.3 0 3.7 2.9 3.9 4.1zm6.1-8.1v15.5h-2.3V76.2zm10 9.6c0 2.7-.6 6.1-4.4 6.1-3.4 0-4.3-3-4.3-6 0-2.8.7-6 4.4-6 3.5 0 4.3 3.1 4.3 5.9zm-6.2.1c0 3 .6 4.2 1.9 4.2s1.9-1.2 1.9-4.2c0-2.9-.6-4.2-1.9-4.2-1.4 0-1.9 1.4-1.9 4.2zm9.9-5.7v7.3c0 1.6 0 2.6 1.3 2.6 1.8 0 1.8-2.2 1.8-4.3v-5.5h2.3v11.5h-2.1v-1.7c-.4.8-1 2-2.8 2-2.8 0-2.8-2.5-2.8-4.4v-7.3h2.3zm15.4-4v15.5h-2.1V90c-.3.7-.9 2-2.8 2-3.1 0-3.7-3.7-3.7-5.9 0-3.9 1.6-6 3.8-6 1.7 0 2.3 1 2.5 1.5v-5.4zm-2.2 8.7c0-.7 0-1.5-.5-2.2-.2-.4-.7-1-1.5-1-1.7 0-1.9 2.2-1.9 4 0 2 .2 4.3 1.9 4.3.6 0 1.2-.4 1.5-.9s.5-1 .5-2.3zm7.5-1.8c.5-3 3.1-3.2 4.2-3.2 1.6 0 2.5.6 3 1.2.7.8.7 2.2.7 3.4v3.9c0 1 0 2.4.2 3.2h-2.1c-.1-.6-.2-.8-.2-1.9-.4.8-1.1 2.2-3.1 2.2-1.8 0-3.1-1.2-3.1-3.3 0-1.8 1-3.1 2.3-3.6.9-.3 2.1-.5 3.7-.5V84c0-.8 0-2.5-1.6-2.5-1.4 0-1.7 1.3-1.8 1.8zm5.6 3h-.7c-2.6 0-3 1.4-3 2.4 0 1.4.7 1.7 1.5 1.7 1 0 2.2-1 2.2-3.6zm9.7-1.8c-.2-1.3-.4-2.5-1.7-2.5-1.6 0-1.9 1.6-1.9 4.4 0 1 0 3.8 1.9 3.8 1.4 0 1.6-1.5 1.7-2.5l2.2.2c-.2 1.4-.6 4.2-4 4.2-3.6 0-4.2-3.6-4.2-6 0-2.7.7-6 4.3-6 3.3 0 3.7 2.9 3.9 4.1zm9.5 0c-.2-1.3-.4-2.5-1.7-2.5-1.6 0-1.9 1.6-1.9 4.4 0 1 0 3.8 1.9 3.8 1.4 0 1.6-1.5 1.7-2.5l2.2.2c-.2 1.4-.6 4.2-4 4.2-3.6 0-4.2-3.6-4.2-6 0-2.7.7-6 4.3-6 3.3 0 3.7 2.9 3.9 4.1zm12.1 1.5c0 2.7-.6 6.1-4.4 6.1-3.4 0-4.3-3-4.3-6 0-2.8.7-6 4.4-6 3.5 0 4.3 3.1 4.3 5.9zm-6.2.1c0 3 .6 4.2 1.9 4.2s1.9-1.2 1.9-4.2c0-2.9-.6-4.2-1.9-4.2-1.4 0-1.9 1.4-1.9 4.2zm10-5.7v7.3c0 1.6 0 2.6 1.3 2.6 1.8 0 1.8-2.2 1.8-4.3v-5.5h2.3v11.5h-2.1v-1.7c-.4.8-1 2-2.8 2-2.8 0-2.8-2.5-2.8-4.4v-7.3h2.3zm7.1 0h2.1V82c.3-.6.8-2 2.7-2 .7 0 1.9.2 2.5 1.4.4.7.4 1.8.4 2.9v7.4H149v-7.2c0-1.5 0-2.6-1.3-2.6-1.8 0-1.8 2.2-1.8 3.4v6.4h-2.3zm14.4 1.9h-2.1v5.1c0 2 0 2.8 1.5 2.8.4 0 .7 0 .9-.1v1.9c-.4.1-1 .2-1.7.2-3 0-3-2.1-3-4.6v-5.2h-1.4v-1.9h1.5l.1-3 2.1-.2v3.2h2.1zm2-3.5v-2.5h2.4v2.5zm2.3 1.6v11.5H160V80.2zm2 0h2.1V82c.3-.6.8-2 2.7-2 .7 0 1.9.2 2.5 1.4.4.7.4 1.8.4 2.9v7.4h-2.3v-7.2c0-1.5 0-2.6-1.3-2.6-1.8 0-1.8 2.2-1.8 3.4v6.4h-2.3zm18.3-.1c-.2 0-.3-.1-.5-.1-.6 0-1 .3-1.2 1.3.6.7.8 1.5.8 2.5 0 1.8-1.2 3.7-3.8 3.7-.6 0-1-.1-1.4-.2-.3.2-.8.4-.8 1 0 .9.6.9 2.8 1 2.1.1 4.3.3 4.3 3.1 0 3-3 3.6-5 3.6-1.6 0-4.4-.3-4.4-2.9 0-1.6 1.1-2 1.6-2.2-.4-.3-1.2-.7-1.2-1.9 0-1.4 1.1-2 1.6-2.3-.5-.4-1.4-1-1.4-2.9 0-2.3 1.6-3.8 3.9-3.8 1 0 1.6.3 2.1.5.2-.9.4-2.1 2-2.1.3 0 .5 0 .7.1zm-7.2 12.5c0 1.2 1 1.6 2.7 1.6 1 0 2.6-.2 2.6-1.6 0-1-.8-1.3-1.3-1.3-.4 0-2.5-.1-3-.2-.3.2-1 .6-1 1.5zm.9-8.9c0 .3 0 2.2 1.6 2.2s1.6-1.9 1.6-2.2c0-.5-.1-2.3-1.5-2.3-1.5.1-1.7 1.4-1.7 2.3z"/><path d="M0 35.2h16v7.4H7.9V49h7.2v7.2H7.9v13.7H0zm16.7 5.7h7.7c3.1 0 5.5.8 7.3 2.4s2.7 3.8 2.7 6.5c0 1.4-.3 2.8-1 4.1s-1.7 2.3-3 3L35.7 70h-7l-5.3-13.2h-.1V70h-6.6zm6.6 5.6v6.9c2.9-.1 4.4-1.1 4.4-3.1 0-1.3-.3-2.3-1-2.9-.7-.5-1.9-.8-3.4-.9zm12.9-5.6h13.3v6.2h-6.7v5.3h5.8v6h-5.8v5.3h6.8v6.2H36.2zm27.5 0h6.6v10.8h5.8V40.9h6.6v29h-6.6v-12h-5.8V70h-6.6z" fill="#0d83dd"/><path d="M84.1 35.2h8.1c4.7 0 8.1.9 10.1 2.7 2.1 1.8 3.1 4.2 3.1 7 0 3.1-1.5 5.5-4.5 7.4 3.4 1.3 5 3.9 5 7.6 0 3-1.1 5.4-3.2 7.3-2.1 1.8-4.9 2.8-8.3 2.8H84.1zm7.9 6.6v7.5c3.7-.1 5.6-1.3 5.6-3.7 0-1.4-.4-2.4-1.3-2.9-1-.5-2.4-.8-4.3-.9zm0 13.9v7.6c2 0 3.6-.3 4.6-.9s1.5-1.6 1.5-2.9c0-2.5-1.8-3.8-5.5-3.8zm25.2 15c-3.5 0-6.2-1.3-8-4s-2.8-6.6-2.8-11.6c0-4.7.9-8.3 2.8-10.9 1.8-2.6 4.4-3.9 7.7-3.9 3.5 0 6.2 1.3 8.1 3.9s2.8 6.4 2.8 11.2c0 4.9-.9 8.6-2.8 11.3-1.8 2.6-4.4 4-7.8 4zm-.2-24c-2.4 0-3.6 2.8-3.6 8.4 0 3.6.3 6 .9 7.2s1.5 1.8 2.6 1.8c1.2 0 2.2-.6 2.8-1.8.7-1.2 1-3.6 1-7.1 0-5.7-1.2-8.5-3.7-8.5zm21.9 24c-3.5 0-6.2-1.3-8-4s-2.8-6.6-2.8-11.6c0-4.7.9-8.3 2.8-10.9 1.8-2.6 4.4-3.9 7.7-3.9 3.5 0 6.2 1.3 8.1 3.9s2.8 6.4 2.8 11.2c0 4.9-.9 8.6-2.8 11.3-1.8 2.6-4.4 4-7.8 4zm-.2-24c-2.4 0-3.6 2.8-3.6 8.4 0 3.6.3 6 .9 7.2s1.5 1.8 2.6 1.8c1.2 0 2.2-.6 2.8-1.8.7-1.2 1-3.6 1-7.1.1-5.7-1.2-8.5-3.7-8.5zm11.3-5.8h6.6v13.6h.1l6.2-13.6h6.9l-6.7 14.8 6.5 14.2h-7.2l-5.6-12.1h-.1v12.1H150z" fill="#040505"/><path d="M170.1 69.4v-6.8c2.1 1.2 3.8 1.8 5.3 1.8.8 0 1.5-.2 2-.7s.7-1.1.7-1.8c0-.6-.2-1.1-.6-1.6s-1-1.1-2-1.8c-2.3-1.7-3.9-3.4-4.9-4.9s-1.5-3.2-1.5-5c0-2.5.8-4.5 2.4-6.1s3.6-2.4 6.1-2.4c1.9 0 3.7.4 5.5 1.2v6.5c-2-1.1-3.5-1.6-4.8-1.6-.8 0-1.5.2-1.9.6-.5.4-.7.9-.7 1.6 0 1.2 1.1 2.6 3.3 4.1 1.3.9 2.6 2.2 4 3.8 1.3 1.6 2 3.5 2 5.7 0 2.5-.9 4.6-2.6 6.2-1.8 1.6-4 2.5-6.7 2.5-2 0-3.8-.4-5.6-1.3z" fill="#040505"/><path d="M64.3 62.4l-6.6-9.5c-6.6-9.5 7.6-15.6 7.6-15.6l-1-1s-23.1 4.8-13.4 18.6l6.6 9.9c2.5 3.7-1.2 5.8-3.5 5.8h-4.2v1.8H53c5.4 0 17.2-1.2 11.3-10z" fill="#0d83dd"/><path d="M141.8 27.3s-3.1 1.8-8.7 10.1c-.9 1.3-1.5 1.2-1.5 1.2s.3 2 3.2 1.4c0 0 4.1-9.7 8.4-11.7z" fill="#648c0f"/><path d="M137.8 32.3s1.9-26.6 23.5-25.9c17.8.5 23.6-6.4 23.6-6.4s.2 37.8-47.1 32.3z" fill="#86c620"/><path d="M140.4 29.7s8.9-13.5 19.5-14.5c10.7-1.1 17.3-6.4 17.3-6.4s-6.5 8-17.9 9.1c-10 1-18.9 11.8-18.9 11.8z" fill="#648c0f"/></svg>