<svg viewBox="0 0 200 100" xmlns="http://www.w3.org/2000/svg"><path d="M68.8 68.3h-1.9v-9.1h1.9zm6.3 0l-3.5-6.4v6.4h-1.8v-9.1h2.3l3.4 6.4v-6.4h1.8v9.1zm3.4 0v-9.1h3.2c3.1 0 4.5 1.7 4.5 4.4 0 2.8-1.5 4.7-4.7 4.7zm2.8-1.6c2.1 0 2.8-1.1 2.8-3 0-2.3-.9-2.9-2.7-2.9h-1.1v6h1zm7.5 0h4v1.6h-6v-9.1h5.8v1.6h-3.8V63h3.6v1.6h-3.6zm10-3l3 4.6h-2.2l-2-3-1.9 3h-2.1l2.9-4.6-2.8-4.5h2.2l1.9 3.1 1.9-3.1h2zm8 3h4v1.6h-6v-9.1h5.8v1.6h-3.8V63h3.6v1.6h-3.6zm9.9-3l3 4.6h-2.2l-2-3-1.9 3h-2.1l2.9-4.6-2.8-4.5h2.2l1.9 3.1 1.9-3.1h2zm2.8.2c0-2.9 1.5-4.8 4.4-4.8 2 0 3.5 1 3.6 3.3l-1.8.2c-.1-1.3-.7-1.8-1.8-1.8-1.5 0-2.4 1-2.4 3.1 0 2.2.8 3.1 2.2 3.1 1.3 0 1.8-.7 2-1.6l1.7.3c-.3 2.2-2.1 2.9-3.7 2.9-3-.2-4.2-1.9-4.2-4.7zm16.2 4.4h-1.9v-3.7h-3.5v3.7h-1.9v-9.1h1.9v3.7h3.5v-3.7h1.9zm6.3-9.1l3.2 9.1h-2.1l-.8-2.2h-3l-.7 2.2h-2l3-9.1zm-1.1 1.8l-1.2 3.5h2.3zm10.4 7.3l-3.5-6.4v6.4H146v-9.1h2.3l3.4 6.4v-6.4h1.8v9.1zm9.7-1.1c-.4.8-1.5 1.3-2.6 1.3-2.7 0-3.8-1.9-3.8-4.5 0-2.9 1.5-4.8 4.4-4.8 2 0 3.4.9 3.6 3.2l-1.8.2c-.1-1-.5-1.8-1.8-1.8-1.6 0-2.4 1.1-2.4 3.1 0 2.2.7 3.2 2.3 3.2 1.2 0 1.9-.7 1.9-1.6V65h-1.7v-1.4h3.6v4.7h-1.4zm4.7-.5h4v1.6h-6v-9.1h5.8v1.6h-3.8V63h3.6v1.6h-3.6z"/><path d="M50.1 48.2v18.2H30V46.3h18.2v-1.9H28v24h24V48.2zm14.8-16.8v11H63v-9H52v11h9v1.9H50V31.4zm7.8 12.9V54h-5.8v-1.9h3.9v-5.8H65v3.9h-2v-5.8h9.7zm-7.8 7.8v7.2h-7.2v-7.2z" fill="#1d428a"/><path d="M173.8 61.7h-.3l-.4-.8h-.4v.8h-.2v-1.8h.6c.5 0 .6.2.6.5s-.1.4-.4.5zm-.7-1c.2 0 .4-.1.4-.4 0-.2-.2-.3-.4-.3h-.3v.7z"/><path d="M173.1 62.4c-.9 0-1.7-.8-1.7-1.7s.8-1.7 1.7-1.7 1.7.8 1.7 1.7c0 1-.8 1.7-1.7 1.7zm0-3.2c-.8 0-1.5.7-1.5 1.5s.7 1.5 1.5 1.5 1.5-.7 1.5-1.5-.7-1.5-1.5-1.5z"/></svg>