<svg data-name="Layer 1" xmlns="http://www.w3.org/2000/svg" viewBox="0 0 226.77 87.87"><path d="M119.64 55.33v-1.85a5.94 5.94 0 01-4.77 2.23c-2.87 0-5.24-1.82-5.24-4.92 0-3.78 3.54-5.15 7-5.53l1.35-.15c1.32-.12 1.79-.85 1.79-1.73 0-1.08-1-1.87-2.58-1.87a5.44 5.44 0 00-4.19 2.31l-2-2.43a7.84 7.84 0 016.38-2.78c3.75 0 5.91 1.93 5.91 5.15v11.57zm0-7.82l-2.46.29c-2.14.26-4 1-4 2.84a2.3 2.3 0 002.55 2.17 5.31 5.31 0 004-2.23v-3.07zm10.45 7.82h-3.6V39h3.6v1.84a8.21 8.21 0 015.33-2.23c1.93 0 4.57 1.11 4.57 5.1v11.62h-3.6V44.64c0-1.61-.67-3-2.34-3a7.12 7.12 0 00-4 1.93zM152.66 39h3.6v16.33h-3.72v-1.76a7 7 0 01-4.71 2.14c-2.11 0-5-1.11-5-5.21V39h3.6v10.32c0 1.9.82 3.22 2.52 3.22a5.35 5.35 0 003.75-2zm11.18 16.33h-3.6v-21.5l3.6-3.57zm5.86-23.69a2.31 2.31 0 012.3 2.28 2.3 2.3 0 11-2.28-2.28zm1.87 23.69h-3.75V39h3.75zM183 42h-3.43v13.33H176V42h-2.19v-3H176v-3.38a4.86 4.86 0 015.12-5.12 8.24 8.24 0 013.69.85l-1.14 2.81a4.19 4.19 0 00-2-.59 2.08 2.08 0 00-2.08 2.25V39h4.27zm4.26 6.12a4.32 4.32 0 004.19 4.51 5.15 5.15 0 004.22-2.52l2.25 2.11a8.37 8.37 0 01-6.82 3.48c-4.66 0-7.55-3.51-7.55-8.55 0-4.86 3.13-8.55 7.67-8.55 4.33 0 7.38 2.84 7.2 9.52zm7.38-2.75a3.58 3.58 0 00-3.46-3.86 4.05 4.05 0 00-3.81 3.86zM89 55.33h-4V32.65h4.25L96 43.81l6.65-11.16h4.16v22.68h-4V39.27h-.06l-6.82 11.42L89 39.27z" fill="#231f20"/><path d="M51.02 34.07v25.51l5.67-5.67V28.4l-5.67 5.67zM39.69 59.58l5.66-5.67V28.4l-5.66 5.67v25.51zm-11.34 0l5.67-5.67V28.4l-5.67 5.67v25.51z" fill="#00a758"/></svg>