<svg height="175.973" width="1000" xmlns="http://www.w3.org/2000/svg"><clipPath id="a"><path d="M0 0h612v792H0z"/></clipPath><clipPath id="b"><path d="M0 0h612v792H0z"/></clipPath><g fill="#e32124"><path d="M154.544 31.212c11.137 13.043 20.92 32.354 20.92 56.665 0 39.61-23.813 63.517-49.354 63.517-12.529 0-24.723-4.394-32.08-10.032 40.744-17.266 64.714-52.909 64.714-83.303 0-11.37-2.116-20.461-4.2-26.847M31.197 21.421c6.393-2.084 15.484-4.2 26.855-4.2 30.393 0 66.036 23.977 83.302 64.722 5.638-7.365 10.033-19.552 10.033-32.08C151.387 24.321 127.479.5 87.87.5c-24.32 0-43.615 9.784-56.673 20.92m-9.784 123.34c-2.084-6.385-4.2-15.469-4.2-26.847 0-30.386 23.978-66.029 64.723-83.294-7.365-5.646-19.552-10.033-32.082-10.033C24.314 24.586.5 48.486.5 88.103c0 24.312 9.776 43.623 20.913 56.657m123.34 9.792c-6.386 2.092-15.477 4.2-26.84 4.2-30.401 0-66.036-23.97-83.31-64.715-5.638 7.365-10.025 19.552-10.025 32.081 0 25.54 23.9 49.355 63.517 49.355 24.312 0 43.615-9.776 56.658-20.921M969.967 41.65h-2.722V24.54h-6.253v-2.395h15.228v2.395h-6.253zm19.477-4.518h.054l5.756-14.987h4.246V41.65h-2.73V25.341h-.062l-6.47 16.31h-1.727l-6.448-16.31h-.062v16.31h-2.644V22.144h4.246l5.841 14.987z"/><g clip-path="url(#a)" transform="matrix(7.77725 0 0 -7.77725 -3364.655 264.315)"><path d="M477.274 22.659c0 5.144 2.988 8.693 7.903 8.693s7.903-3.575 7.903-8.693c0-5.194-3.064-8.666-7.903-8.666-4.89 0-7.903 3.472-7.903 8.666m12.58 0c0 3.755-1.527 6.096-4.677 6.096-3.075 0-4.677-2.238-4.677-6.096 0-3.832 1.602-6.07 4.677-6.07 3.05 0 4.677 2.238 4.677 6.07"/></g><path d="M640.824 22.143v131.684h81.257v-19.575h-57.288V96.478h50.49V76.894h-50.49V41.726h50.7l6.393-19.583z"/><g clip-path="url(#b)" transform="matrix(7.77725 0 0 -7.77725 -3364.655 264.315)"><path d="M505.313 23.344l-.799-2.447h2.581v-3.793c-.655-.31-1.349-.515-2.457-.515-3.579 0-5.356 2.392-5.356 6.044 0 3.602 1.802 6.122 5.463 6.122 1.343 0 2.704-.432 3.836-1.144l.847 2.597c-1.332.696-3.1 1.144-4.91 1.144-5.172 0-8.462-3.781-8.462-8.925 0-4.86 2.911-8.433 8.354-8.433 2.32 0 4.223.59 5.735 1.36v7.99zm-42.288 7.795h5.102c4.674 0 6.133-2.901 6.133-5.162 0-3.17-2.402-4.383-3.095-4.643v-.108c.332-.096 1.041-.43 1.96-2.08l2.8-4.94h-3.466l-2.418 4.278c-.974 1.75-1.369 2.315-2.926 2.315h-1.081v-6.593h-3.009V31.14zm5.023-7.82c2.59 0 3.124 1.62 3.124 2.676 0 .9-.464 2.623-3.124 2.623h-2.014V23.32h2.014zm61.772 7.82h5.1c4.674 0 6.133-2.901 6.133-5.162 0-3.17-2.402-4.383-3.095-4.643v-.108c.33-.096 1.04-.43 1.96-2.08l2.8-4.94h-3.465l-2.42 4.278c-.972 1.75-1.367 2.315-2.924 2.315h-1.081v-6.593h-3.008V31.14zm5.022-7.82c2.589 0 3.124 1.62 3.124 2.676 0 .9-.465 2.623-3.124 2.623h-2.014V23.32h2.014zm13.32 3.529c0 1.34 1.271 1.912 2.69 1.912 1.901 0 3.37-.632 3.667-.744v2.83c-.237.073-1.543.51-3.957.51-3.7 0-5.688-2.186-5.688-4.677 0-2.485 2.016-3.766 3.696-4.66.384-.204.848-.45 1.213-.646 1.392-.74 2.414-1.323 2.414-2.61 0-1.464-1.413-2.157-2.826-2.157-2.413 0-3.876.881-4.125 1.017l-.817-2.502c.24-.143 2.163-1.125 5-1.125 3.467 0 6.057 2.032 6.057 5.037 0 2.134-1.45 3.486-3.838 4.756l-1.127.601c-1.328.707-2.359 1.264-2.359 2.458"/></g></g></svg>