<svg xmlns="http://www.w3.org/2000/svg" width="549.333" height="272" viewBox="0 0 5722 2833" shape-rendering="geometricPrecision" text-rendering="geometricPrecision" image-rendering="optimizeQuality" fill-rule="evenodd" clip-rule="evenodd"><defs><linearGradient id="a" gradientUnits="userSpaceOnUse" x1="2863.75" y1="0" x2="2863.75" y2="2833.33"><stop offset="0" stop-color="#00bbf1"/><stop offset="1" stop-color="#0077bd"/></linearGradient></defs><path fill="url(#a)" d="M0 2833h2895L5728 0H0z"/><path d="M3432 1356h-124V902h124c166 0 298 55 298 224 0 175-132 230-298 230zm-1336 324c-66 0-127-12-181-32l179-564h3l176 565c-53 19-113 30-177 30zM3399 533h-564v1341L2342 533h-488l-421 1121c-45-283-337-380-567-453-152-49-313-121-312-200 1-65 86-126 255-116 113 6 214 15 413 111l196-341c-182-92-433-151-639-151h-1c-240 0-440 78-564 206-86 90-133 203-135 329-3 173 60 296 194 394 113 83 257 136 383 175 157 49 284 91 283 181-1 33-14 63-37 88-39 40-99 55-182 57-160 3-278-22-467-133L79 2147c188 107 411 170 638 170h29c198-4 358-60 485-163l21-18-57 151h512l86-261c90 31 192 48 301 48 106 0 205-16 294-45l83 259h835v-541h182c440 0 701-224 701-600 0-419-253-611-792-611z" fill="#fefefe"/></svg>