<svg viewBox="0 0 505.84 75.76" xmlns="http://www.w3.org/2000/svg"><g fill="#00bf6f"><path d="M113.4 55.87l4.12-4.9c3.73 3.23 7.45 5.06 12.29 5.06 4.23 0 6.9-1.95 6.9-4.9v-.11c0-2.78-1.56-4.28-8.79-6-8.29-2-13-4.45-13-11.63v-.11c0-6.67 5.56-11.29 13.3-11.29a21.58 21.58 0 0114.13 4.9l-3.67 5.23c-3.5-2.61-7-4-10.57-4-4 0-6.34 2.06-6.34 4.62v.11c0 3 1.78 4.34 9.23 6.12 8.23 2 12.52 5 12.52 11.4v.11c0 7.29-5.73 11.63-13.91 11.63a24 24 0 01-16.21-6.24zm34.64-5V32.18h6.73v16.69c0 4.56 2.28 7.18 6.29 7.18s6.62-2.73 6.62-7.3V32.18h6.73v29.37h-6.73v-3a11.58 11.58 0 01-9.18 3.64c-6.62-.03-10.46-4.51-10.46-11.32zm33.57-18.69h6.73v4.9c1.83-4.4 5.23-5.68 10.4-5.45v6h-.39c-5.9 0-10 3.94-10 12.78v11.14h-6.73zm19.53 0h7.23l7.9 20.44 8-20.44h7.06l-12 29.6h-6.06zm30.2 14.79v-.11c0-8.4 6-15.3 14.35-15.3 9.35 0 14.08 7.34 14.08 15.8 0 .61-.06 1.22-.11 1.89h-21.59c.72 4.78 4.12 7.46 8.46 7.46a10.67 10.67 0 008-3.51l3.9 3.48a14.86 14.86 0 01-12 5.5c-8.52.03-15.09-6.14-15.09-15.21zm21.75-2.17c-.44-4.34-3-7.73-7.45-7.73-4.12 0-7 3.17-7.62 7.73zm42.35-22.19h7.29l11.85 19.86 11.85-19.86h7.25v38.94h-6.8V33.62l-12.3 19.81h-.22l-12.18-19.7v27.82h-6.73zm43.1 24.42v-.11a15.66 15.66 0 0131.32-.11v.11a15.36 15.36 0 01-15.74 15.3 15.19 15.19 0 01-15.58-15.19zm24.59 0v-.11c0-5.17-3.73-9.46-9-9.46s-8.85 4.23-8.85 9.35v.11c0 5.12 3.73 9.46 9 9.46 5.4 0 8.85-4.29 8.85-9.35zm44.38-26.09h6.73v24.25l12.18-13h8.18l-11.68 12 12.07 17.41h-7.79l-8.85-12.68-4.12 4.28v8.4h-6.73z"/><path d="M434.45 46.97v-.11c0-8.4 6-15.3 14.35-15.3 9.35 0 14.08 7.34 14.08 15.8 0 .61-.06 1.22-.11 1.89h-21.59c.72 4.78 4.12 7.46 8.46 7.46a10.66 10.66 0 008-3.51l3.9 3.48a14.86 14.86 0 01-12 5.5c-8.53.03-15.09-6.14-15.09-15.21zm21.75-2.17c-.44-4.34-3-7.73-7.45-7.73-4.12 0-7 3.17-7.62 7.73zM283.41 32.18l-8.13 20.03-8.07-20.03h-7.01l11.57 28.69-6.04 14.88h7.01l17.68-43.57zm217.6.5a4.11 4.11 0 00-2 .52 3.79 3.79 0 00-1.52 1.49 4.24 4.24 0 00-.54 2 4.07 4.07 0 00.53 2 3.79 3.79 0 001.5 1.49 4 4 0 004 0 3.78 3.78 0 001.49-1.49 4.07 4.07 0 000-4 3.69 3.69 0 00-1.51-1.49 4.16 4.16 0 00-2-.52m0-.8a4.9 4.9 0 012.37.63 4.35 4.35 0 011.81 1.78 4.8 4.8 0 010 4.82 4.56 4.56 0 01-1.79 1.79 4.87 4.87 0 01-2.4.63 5 5 0 01-2.41-.63 4.55 4.55 0 01-1.79-1.79 4.9 4.9 0 01-.63-2.39 4.79 4.79 0 01.65-2.42 4.4 4.4 0 011.8-1.78 5 5 0 012.38-.63"/><path d="M498.96 34.04h2.41a2.18 2.18 0 011.56.54 1.64 1.64 0 01.45 1.17 1.62 1.62 0 01-1.28 1.64l1.46 2h-1.13l-1.33-1.89h-1.19v1.89h-1zm2.34 2.64c.68 0 1.11-.36 1.11-.9 0-.58-.42-.9-1.12-.9h-1.38v1.8zm-14.78-4.5l-8.13 20.03-8.08-20.03h-7l11.57 28.69-6.04 14.88h7.01l17.68-43.57zm-85.84 10.68v18.69h-6.73V44.86c-.03-4.56-2.27-7.18-6.27-7.18s-6.62 2.73-6.62 7.29v16.58h-6.78V32.18h6.73v3a11.58 11.58 0 019.18-3.64c6.62.02 10.49 4.47 10.49 11.32zM87.17 39.34a11.78 11.78 0 00-2.79.35 36 36 0 00-28.5-26.56c-.62-.11-1.18-.19-1.81-.27.1-3.4.26-7.33 5.27-10.87l-.79-2s-9.75 3-10.88 11.37c-.49-2.27-5-5.11-7.28-5.65l-1.12 1.81a7.84 7.84 0 013.71 5.61 36 36 0 00-28.51 26.55 11.68 11.68 0 101.47 22.19 35.8 35.8 0 003.79 7.06l9.69-6.53-.08-.11a23.87 23.87 0 01-4.39-13c-.29-5.32 1-10.61 4.41-13.72 7-6 14.64-3.25 19.42 2.47h1.29c4.78-5.72 12.41-8.44 19.42-2.47 3.4 3.11 4.7 8.4 4.41 13.72a23.87 23.87 0 01-4.39 13l-.08.11 9.69 6.53a35.8 35.8 0 003.79-7.06 11.67 11.67 0 104.27-22.54zM11.45 54.46a3.45 3.45 0 010-6.89 3.47 3.47 0 011.93.6 52.34 52.34 0 00.37 5.41 3.45 3.45 0 01-2.3.88zm75.95 0a3.45 3.45 0 01-2.3-.88 52.34 52.34 0 00.37-5.41 3.44 3.44 0 015.37 2.86 3.44 3.44 0 01-3.45 3.43z"/></g></svg>