<svg xmlns="http://www.w3.org/2000/svg" width="279.999" height="51.999" viewBox="0 0 2917 542" shape-rendering="geometricPrecision" text-rendering="geometricPrecision" image-rendering="optimizeQuality" fill-rule="evenodd" clip-rule="evenodd"><path d="M1722 529V253c0-39-31-71-69-71s-70 32-70 71v276h-140V66h121c10 0 18 8 18 18 7-4 13-10 20-13 24-12 50-18 79-18 107 0 168 56 178 163 10-35 28-66 52-93 42-47 99-70 169-70s126 23 169 70c12 14 23 28 32 44l-34-101h153l64 239 64-239h121l64 239 64-239h153l-156 463h-120l-65-238-65 238h-120l-93-278c2 20 3 36 3 46 0 69-21 128-63 173-43 47-101 71-170 71-70 0-127-24-170-71-23-25-40-54-50-87v145h-139zM1275-11h-83v73c0 2-2 4-4 4h-45v62c0 14 11 25 24 25h25v259c0 38 9 66 27 86 19 22 48 32 89 32h78v-85h-61c-11 0-18-3-23-8-5-6-7-14-7-25V153h91V67h-91V14c0-12-8-21-19-24zM151-11H68C57-9 49 1 49 13v53H0v86h49v259c0 38 9 66 27 86 19 22 48 32 89 32h78v-85h-61c-11 0-18-3-23-8-5-6-7-14-7-25V152h67c13 0 24-11 24-25V65h-88c-2 0-4-2-4-4v-73zm545 77h119l97 142 96-142h119L968 284l179 245h-120L913 359 798 529H678l179-245L698 66zm-86 308l81 42c-8 17-18 31-29 44-17 20-36 36-56 48s-40 21-61 26-40 8-58 8c-32 0-62-7-91-20-28-13-52-31-73-53s-37-48-49-78-18-61-18-94c0-35 6-67 18-97s29-56 50-77c21-22 46-39 74-51s58-18 90-18c31 0 60 6 88 18s52 29 74 50c21 21 38 46 51 75s19 61 19 95c0 8 0 16-1 26s-1 16-2 19l-1 6H357c5 16 11 31 19 43 10 15 21 27 34 36s26 16 40 21c14 4 27 7 40 7 29 0 53-7 73-22s35-31 45-49l2-4zm1506 7h30c44 0 79-37 79-82s-35-82-79-82h-126c-44 0-79 37-79 82 0 41 29 75 67 81 16 3 7 21 7 37 0 9 16 1 39-17s43-19 63-19zM605 226c-7-15-16-28-28-39s-26-21-42-28-33-11-51-11c-19 0-36 4-52 11s-30 16-42 28c-12 11-21 24-28 39-6 12-9 24-11 36h265c-2-12-5-24-11-36z" fill="#574297"/></svg>