<svg height="2489.333" viewBox="0 0 2032 1867" width="2709.333" xmlns="http://www.w3.org/2000/svg"><path d="M936.5.7c-91.1 6-177.2 29.1-256.8 68.9-49.9 25-97.5 57.1-141.7 95.7-17 14.9-54.6 53-69.8 70.8-27.3 32.1-50.5 63.7-71.3 97.4-11.7 18.8-25.1 42.4-24.7 43.4.1.6 12 9.3 26.3 19.6 14.3 10.2 25.9 18.9 25.8 19.3s-2.9 7-6.3 14.7c-31.6 71.2-49.4 141.8-57.2 226.5-1.6 17.6-1.6 82.2 0 100.5 11.1 126.2 50.6 234.4 122.1 334 106.9 149.2 275.5 248 458.1 268.5 51.7 5.7 110.6 5.2 162-1.5 110.8-14.5 216.3-57.6 306.6-125.2 147.7-110.7 241.5-276.9 259.8-459.9 5.6-55.7 3.7-126.1-5-186.4-14.5-100.7-50.1-195.3-104.8-278.5C1442.5 130.7 1243.7 16.4 1025 1c-13.1-.9-76.1-1.1-88.5-.3zm97 116.8c32.1 3.4 59.4 8.2 88.1 15.5 133.2 33.9 247.9 109.7 327.7 216.5 94.4 126.2 132.5 284.4 106.6 441.5-9.6 58-26.4 111.7-49.4 157.8-44.4 88.9-105.5 159.2-183 210.7-24.2 16-38.3 24.1-62 35.6-53.1 25.7-112 42.5-172.5 49.4-46.6 5.3-86.2 4-131-4.1-171.1-31.1-297.6-156.1-323.9-319.9-6.1-38.2-5.2-85.7 2.4-121.3 8.8-41.8 24.7-79.5 47.3-112.2 20.9-30.3 49.1-58.3 79.5-78.7l9.9-6.6 5.4 5.4 5.5 5.5-6.1 6.9c-23.6 27.2-47.2 72.3-59.9 114.5-9.4 31-13.4 56.4-13.5 84.5-.1 67.7 21.9 132.8 62 183.5 9.3 11.7 32.8 35 45.1 44.8 40.3 31.8 90.9 53.8 143.3 62.1 22 3.5 33 4.4 56.5 4.3 31.9 0 54.6-2.8 84.9-10.4 85.3-21.3 158.4-73.7 209-149.8 15.3-22.9 25.8-42.7 35.4-66.6 41.9-103.8 46.1-212.3 12.2-314.4-39.5-118.8-128.4-219.4-244.5-276.9-54.2-26.9-108.7-42.8-170.7-49.8-19.4-2.2-81.6-2.5-100.8-.5-100.6 10.6-193 45.8-281.9 107.4l-14.4 10-4.9-5-5-4.9 7.8-11.4c37.5-55.2 84.4-101.1 141.1-138.2 20.8-13.7 35.8-22.1 58.8-33.3 62.7-30.4 128.8-47.8 203-53.4 17-1.3 74.6-.4 92 1.5zM898.9 357c50.7 2.7 97.3 13.4 142.9 32.9 94.1 40.3 167.9 113 203.5 200.6 5.6 13.7 13.1 37.1 12.4 38.8-.6 1.7-13.6 6.2-14.6 5.1-.5-.5-5.5-6.7-11.2-13.9-11.8-14.7-39.3-43.3-54.9-57-54.7-47.9-116.7-81.1-181.2-96.9-34.4-8.5-56.8-11.1-95.3-11.1-38 0-61.4 2.8-94 11.2-129 33.2-228.3 130.4-269.8 264.3-11.6 37.1-17.1 68.7-19.8 113-1 17.7-.7 42.8.7 52l.6 3.5-7.6 2.7-7.6 2.7-1.4-2.7c-8.1-16-19.8-60.1-25.2-95.7-2.6-16.9-2.6-67.5-.1-88.5 10.4-84 42.4-157.3 96.1-219.9C643.3 415.4 751.1 362.5 860 357c8-.4 15.6-.8 17-.8 1.4-.1 11.2.3 21.9.8zm117.6 281.6c46.5 7.9 86.2 37.2 106.9 79.1 9.4 18.7 13.5 35.5 14.3 58.3.4 13 .2 17.5-1.6 27.9-4.6 27.1-16.2 52.1-33.8 72.8-3 3.5-5.3 6.6-5.1 6.7.1.2 10.9 7.6 23.8 16.6 12.9 8.9 23.7 16.4 23.9 16.6.6.6-9.3 12.8-16.9 20.8-48.2 50.5-120.9 68.5-186.4 46-60.1-20.7-103.8-70.6-117.8-134.4-2-9.3-2.2-13.2-2.2-34.5s.2-25.2 2.2-34.5c5.4-24.3 16.6-50.4 29.7-68.5 30-41.8 75-68.2 126.5-74.4 9-1.1 25.4-.4 36.5 1.5zm-141 841c-24.7 2.6-46.7 10-64 21.7-7.9 5.3-20.6 17.7-26 25.2-13.1 18.3-19.7 42.2-18.1 65.6 3.3 50.2 31.3 79.4 101.1 105.4 32.6 12.1 52.9 23.5 60.1 33.6 4.8 6.9 6.4 12 6.4 20.9 0 22.2-15.6 36.4-41.5 37.7-13.4.7-22.2-1.3-35.2-7.7-16.5-8.1-29.4-21.6-37.5-39.1-1.8-4-3.7-6.8-4.4-6.5-1.8.7-64.4 47.5-64.4 48.1 0 .4 1.8 4.3 3.9 8.8 23.4 49 74 75.9 138 73.4 17.6-.7 29.1-2.6 43-7.3 42.6-14.2 71.3-46.3 78.6-87.9 6.7-38.8-1.4-71.7-23.3-94.2-15.9-16.2-34.6-26.7-72.7-40.8-34.3-12.6-48.7-19.3-59.7-27.5-8.1-6.1-12.4-11.7-14.5-18.9-6.5-22.5 15.7-41.9 45.6-39.7 22.6 1.7 40.5 13.8 51.6 35.1 2.7 5.1 4.5 7.4 5.5 7.2 2.4-.6 64-43.7 64-44.8 0-1.8-5.3-11.4-10.2-18.6-5.8-8.3-18.7-21.1-27.3-27-15.3-10.3-33.7-17.3-55-20.8-9-1.5-36.4-2.7-44-1.9zm337 .1c-35.1 2.3-73.1 14.7-100.4 32.6-8.6 5.7-21.4 16.2-23.3 19.1-.4.6 1.8 3.7 5.3 7.2l6 6-10.8 11c-26.3 26.6-42.4 59.7-47.7 98.1-5.9 42.9-.3 80.2 17.5 115.3 31.1 61.3 95 98 170.7 98 54.2 0 101.4-18.9 136.4-54.6 11.1-11.4 14.8-15.8 22.1-26.9 28.9-43.8 39.2-100.4 28.1-155.5-8.5-42.5-30.5-80.4-61.7-106.6-38.7-32.5-87.1-47.4-142.2-43.7zm31.2 78.3c24.1 3 42.3 11.5 59 27.4 23 21.8 34.3 50.8 34.3 87.6 0 32.6-7.9 56.7-26.2 79.6-11.8 14.9-32.3 27.8-52.3 33-13.5 3.4-33.8 4.3-47.9 2-45.2-7.5-77.7-39.2-86.2-84.2-2.2-12.2-1.5-36.3 1.5-48.4 4.2-16.8 13.9-32.9 27.5-45.9l6.7-6.4-6.2-6.3-6.3-6.4 3.9-4c4.9-5 15.9-12.7 24-16.7 19.3-9.7 45.9-14.1 68.2-11.3zM.2 1611.7l.3 125.8 2.3 10.9c10.2 48.1 35.4 82.7 74.8 102.4 36.1 18.2 91.1 21.4 133.4 8 45.8-14.6 78.7-49.3 91.6-96.5 6.1-22.3 5.7-13.6 6.1-150.6l.4-125.7H227v114.7c0 125.7 0 125.9-5.9 142.9-3.9 11.4-8.3 18.5-16.6 26.9-7.7 7.7-16.9 13-28.5 16.1-9.2 2.6-33.8 2.6-43 0-24.5-6.7-40.3-23.5-47.8-51.1l-2.7-10-.3-119.8-.3-119.7h-82l.3 125.7zm348.8 61.9v187.5l75.3-.4c71.1-.4 75.8-.5 86.2-2.5 16.7-3.2 27.8-6.7 40.1-12.7 31.6-15.4 51.8-40.7 58.6-73.5 2.7-13 2.2-39.5-1.1-51.5-7.2-26.9-23.9-45.9-52.1-59.4l-9.9-4.7 4.7-2.3c16-7.8 29.8-22.7 36.2-39.2 5.1-13.2 6.3-20.7 6.3-37.9 0-14-.2-16.4-2.7-24.5-10.9-35.8-41.2-58-88.7-65-8.8-1.2-22.8-1.5-81.8-1.5H349zm135.3-114.1c19.1 4 29.9 17.3 30.1 37 .1 14.5-4.7 25.1-14.7 31.9-9.8 6.7-11.2 7-41.4 7.4l-27.3.3V1558h23.3c16.3 0 25.2.5 30 1.5zm14.2 138.8c14.2 4.7 22.8 12.4 27.6 24.7 2.6 6.8 3.7 22.1 2 30-3.7 17.8-16.1 29.3-36.3 33.4-5.9 1.2-14 1.6-34.3 1.6H431v-93.2l29.8.4c29 .4 29.9.5 37.7 3.1zm143.5-24.8V1861h82v-375h-82zm811 0V1861h82v-149h159v-63h-159v-85h175v-78h-257zm287-148.5v39h105v297h83v-297h104v-78h-292z"/></svg>