<svg height="87" width="360" xmlns="http://www.w3.org/2000/svg"><g fill="none" fill-rule="evenodd"><path d="M83.478 28.217h7.565l7.044 22.174 7.304-22.434h6.261l7.305 22.434 6.782-22.174h7.565l-11.217 32.87h-6.26l-7.566-21.391-7.304 21.391h-6.261zm68.87 19.305l-4.435-10.696-4.435 10.696zm-7.565-19.305h6.782l14.087 32.87h-7.565l-3.13-7.304H140.87l-3.13 7.304h-7.305zM173.217 35h-9.913v-6.522h27.13V35h-9.912v26.087h-7.305zm22.696-6.522h24.783v6.261h-17.479v6.783h15.392v6.26h-15.392v6.783h17.74v6.522h-25.044zm47.478 15.913c3.652 0 5.479-1.826 5.479-4.695 0-3.13-2.087-4.696-5.74-4.696h-7.304v9.391zm-14.608-15.913h15.13c4.174 0 7.304 1.044 9.652 3.392 1.826 1.826 2.87 4.434 2.87 7.565 0 5.217-2.87 8.608-7.044 10.174l8.087 11.739h-8.348l-7.043-10.435h-5.74v10.435h-7.304v-32.87zm35.477 0h7.044v26.087h15.392v6.522H264.26zm51.131 16.435c0-5.74-4.174-10.435-9.913-10.435s-9.913 4.696-9.913 10.174 4.174 10.174 9.913 10.174c5.74.261 9.913-4.435 9.913-9.913m-27.391 0c0-9.391 7.304-16.956 17.478-16.956s17.479 7.565 17.479 16.695c0 9.391-7.305 16.957-17.479 16.957S288 54.043 288 44.913m64.174 0c0-5.74-4.174-10.435-9.913-10.435-5.74 0-9.913 4.696-9.913 10.174s4.174 10.174 9.913 10.174c6 .261 9.913-4.435 9.913-9.913m-27.391 0c0-9.391 7.304-16.956 17.478-16.956s17.478 7.565 17.478 16.695c0 9.391-7.304 16.957-17.478 16.957s-17.478-7.566-17.478-16.696M101.74 11.783v-8.61h3.39v8.61c0 2.347 1.305 3.652 3.392 3.652s3.391-1.305 3.391-3.652v-8.61h3.391v8.61c0 4.434-2.608 6.782-6.521 6.782-4.435 0-7.044-2.348-7.044-6.782zm22.173-8.609h3.13l7.044 9.391V3.174h3.391v15.13h-2.87l-7.304-9.652v9.652h-3.391zm22.696 0H150v15.13h-3.391zm11.739 0H162l3.913 10.696 3.913-10.696h3.652l-6 15.13h-3.13zm22.956 0h11.479v2.87h-8.087v3.13h7.043v2.87h-7.043v3.13h8.087v2.87h-11.479zm20.348 0h7.044c1.826 0 3.391.522 4.434 1.565.783.783 1.305 2.087 1.305 3.391 0 2.348-1.305 3.913-3.13 4.696l3.652 5.478h-3.914l-3.13-4.695h-2.609v4.695h-3.391V3.174h-.26zm6.522 7.304c1.565 0 2.609-.782 2.609-2.087 0-1.304-1.044-2.087-2.61-2.087h-3.39v4.435h3.39v-.26zM222 16.217l2.087-2.347c1.304 1.043 2.87 1.826 4.435 1.826 1.304 0 2.087-.522 2.087-1.305 0-.782-.522-1.304-3.13-1.826-3.131-.782-4.957-1.565-4.957-4.695 0-2.61 2.087-4.435 5.217-4.435 2.087 0 4.174.782 5.74 1.826l-1.827 2.609c-1.304-1.044-2.609-1.566-3.913-1.566s-1.826.522-1.826 1.305c0 1.043.522 1.304 3.391 2.087 3.13.782 4.696 1.826 4.696 4.434 0 2.87-2.348 4.696-5.478 4.696-2.609-.26-4.957-1.043-6.522-2.609zm20.609-13.043H246v15.13h-3.391zm16.174 3.13h-4.696v-3.13h12.522v3.13h-4.696v12h-3.391v-12zm20.608 6l-5.739-9.13h3.913l3.652 6 3.653-6h3.913l-5.74 9.13v6h-3.39v-6zm27.913-1.564c0-4.436 3.392-7.827 8.087-7.827 4.696 0 8.087 3.391 8.087 7.826 0 4.174-3.391 7.826-8.087 7.826-4.695 0-8.087-3.391-8.087-7.826zm12.783 0c0-2.61-1.826-4.697-4.696-4.697-2.608 0-4.434 2.087-4.434 4.696s1.826 4.696 4.695 4.696c2.609 0 4.435-2.087 4.435-4.696zm10.435-7.566H342v3.13h-8.087v3.13h7.304v3.131h-7.304v5.74h-3.391z" fill="#231f20"/><path d="M37.304 86.13l-.782-.521c-9.913-4.435-17.74-11.218-22.957-19.044C1.043 47.522.783 27.957.261 7.348V.565h74.348v6.783c-.522 20.609-.783 40.174-13.305 59.217-5.217 7.826-13.043 14.348-22.956 19.044z" fill="#fff"/><path d="M37.043 26.13L7.826 49.087C3.13 34.739 3.391 19.609 2.87 4.217h68.087C70.696 19.61 70.696 34.74 66 49.087z" fill="#ffd13f"/><path d="M60.783 61.348l-2.348 3.913C53.217 73.087 45.652 79.087 37.043 83c-8.608-3.913-16.173-9.652-21.39-17.74-.783-1.303-2.349-3.651-2.349-3.651l23.74-18.783z" fill="#ffd13f"/><g fill="#c3002f"><path d="M17.217 15.696c-3.39-.783-6.521-3.392-5.739-6.522 0 0-.26-.783-.521-1.044-.261 0-.261 0-.261-.26 0 0-.261 0-.261-.261 0 .26 0 .26-.261.26v.522c-.261.261 0 .522 0 1.044v.26h-.521s-.262-.26-.262-.521v-.261c0-.26-.521-.522-.26-.522l-.261-.26h-.522c-.261.26-.522.26-.783.26.261.261 0 .261 0 .522 0 .26.261.26.261.522.261 0 .522 0 .522.26 0 0 .26 0 0 .262-.522.521-1.044 0-1.305 1.043.522-.26.522.522.783.783 1.044.26 1.826.26 2.609 1.565.26.782-.783.782.26.782.522 0 .783.261 1.044.783.261.26.261.783.522 1.044l.522.521.521.261s.261 0 .261.261c0 0 .261 0 .261.26l.261.262v.521h2.086c0-.26.262-.521.523-1.043.26-.26.26-.26.521-.783-.521-.26 0-.521 0-.521m-8.608.261c1.043.521.782 1.826 1.826 2.347 1.565.783 3.652 1.305 5.217.522-.26 1.304 0 2.087 0 2.348-.522.522-2.087 0-3.13-.522-.783-.26-1.305.783-2.087.783 0 0 .26-.261 0-.522 0-.26-.261-.522-.783-.522s-.26.261-.782.783c-.261-.261-.783-.261-.783.26 0 .262-.522-.782-.26-1.043.52-.782.52-.782.52-1.043s-1.043-.522-1.043-.261c-.26.522-1.043-1.565 1.305-1.304-.522-.522-.522-.522-.522-1.044l-.26-.26c0-.262 0-.522.26-.522-.26-.261 0-.261.522 0"/><path d="M13.304 11c1.566.26 3.653-1.565 4.957.783-1.044-.261-3.652 1.043-4.957-.783m12.261 3.391c0 1.826-2.087 3.913-.522 5.74-.782 0-1.304-.261-1.826-.522-.26-.261-.26.782-.26 1.043s-1.305-1.043-1.566-.782c-1.304 1.043-1.826 1.304-3.913 1.304-.521 0-.782.522-1.043 1.043-.522-.782 0-2.87.26-3.913.783-2.608 3.131-3.13 5.218-4.434C23.478 13.087 24 11.26 24 9.696c1.043 1.043 1.565 2.87 1.565 4.695"/><path d="M16.174 35.522c.26 0 0 .26 0 .26l-.522.522c0 .261-.26.261 0 .522v.261l.261.26v.262c0-.261.26-.261.26-.261 1.305.782 1.305-.783 2.088-1.305.26-.26 1.043 0 .782.783.783-.522 1.044-1.304 1.566-2.087 1.304-1.304 3.13-2.348 4.695-3.13-.521-.783-1.565-1.305-2.087-2.087-.26-.261-.521-1.044 0-1.044 2.087.522 3.392-.782 3.653-2.348 3.13.522 3.913-2.608 4.434-4.695.261-1.044.783-1.044.261-3.13-.26-.783 1.305-1.044 1.044-2.348 0-.261-.522-.783-.783-.783.261.783-1.043.783-1.043 1.304-.261.522-.522.783-.522 1.305-1.044-1.305-.261-3.13.782-4.435 1.305-1.826 4.174-.783 5.479.26 0-.521-.522-1.304-.783-1.825 1.044-.261 2.348.521 3.913-.261.783-.522 1.826-.783 2.348-1.826-1.826.26-4.435-1.305-6.26-1.566-3.131-.521-5.48 1.566-6.523 4.174-1.043 2.609-.521 4.435.783 6.522.26.522-1.043.261-1.565.522-.522.26-.783 1.043-.522 1.565.783-.783 2.609-.26 2.609 1.044.26 1.565-1.565 4.173-3.13 3.39-1.827-.782-2.87-2.608-3.392-4.695-1.565 1.305-4.174.261-5.478 1.565-1.305 1.305 1.826 2.087 3.13 2.61.522.26.783.782.783 1.303-1.826-1.043-4.174.261-4.174 2.087 0 1.566 2.087 2.61 3.652 2.61.522 0 1.044.782.26 1.303-1.303.783-2.869 1.827-4.434.261-.26-.26-1.043 0-1.304.261v.783c0-.261.26-.261.26-.261.262 0 .262.26.262.26 0 .783-1.044.262-1.566.783v.261c-.26.522-.521.783 0 1.044 0 0 .261.26.261.521 0-.26.522-.26.522-.26z"/><path d="M9.652 28.478H8.87V29c-.261 0-.522-.26-.783-.26l-.26-.262v-1.043s0-.261.26-.261l.26-.261c.262 0 .262-.26.523-.26h.782c.261 0 .522 0 .522.26l.26-.26c-.782-.262-.782-.262-.782-1.044h-.26c0-1.305 1.565-1.305 2.086-.783 1.044.783.261 2.087 1.305 2.609.521.26 1.304.26 1.826 0 1.043-.522 0-1.565.26-2.609.783-1.826 2.348-2.087 4.174-.26-1.826.521-2.608 2.869-1.565 4.173-1.565-.522-3.391.522-4.435 1.044 1.044-1.044-.521-1.826-.782-1.566l-.522.261c-.26.261-.26.522-.522.783-.26.26-.26.26-.521.26h-.783v.262l-.26-.261c-.262 0-.262-.261-.523-.261 0-.261-.26-.522 0-.783 0-.26.261-.26.522-.521.261.521.261.521 0 .521m36.783-16.695c.26 0 0 .26-.261.26h-.522c-.782.261-.782 2.087-.522 1.827 0-.261.522 0 1.044 0s1.043-1.044 1.304-1.044c.783 0 1.565 1.044 2.087 1.826 0 0-.26.261-.26.522 1.304 0 2.086.522 3.13 1.304.522-.782.782-1.043 1.304-1.565-1.826-1.826-5.217-2.348-4.696-5.478 0-.522-.26-.783-.521-1.044-.261-.26-.783-.26-1.044-.26.261.782-.26.782-.26 1.826h-.261c-.261 0-.261-.261-.522-.261h-.522s-.26 0-.26.26c-.262 0-.262.261-.262.522v.261h.522s0 .261.26.522c0 .26.262.26.523.26-1.044 0-.783.262-.261.262"/><path d="M50.87 10.478c1.043 0 2.087-1.043 3.39.522-.26 0-.52-.26-.52 0-1.305 1.043-2.87.783-3.914-.522.522-.26.783 0 1.044 0m4.956 3.913c1.826-.782 3.652-1.565 4.435-3.913.26-.521.522.522.522.783 1.043 2.609-1.044 5.478-.522 8.348-.522-.261-1.304-.783-2.087-.783-2.609 0-3.13 1.304-3.13 1.304-.783-.782-2.61-1.304-2.61-1.043-1.304-1.304 2.088-3.913 3.392-4.696M50.87 32.652c.26.261 0-.26.26.522 1.305-.522 2.61-1.304 4.174-.522-.521-2.87 1.566-3.652 1.566-4.174.26-.782-1.044-2.087-2.348-1.826-1.305.522-.783 2.348-1.044 3.391-.26.783-1.043 1.044-1.565 1.044-1.043-.522-1.565-1.565-1.826-2.609-.26-.782-1.826-.782-2.087-.26-1.043 1.825.522-.261.522 1.304 0 .26-1.044 0-1.305.782-.26.522.261 1.044 1.044 1.044 0 0-.261-.261 0-.261l.522.26c-.783.523-.783 1.305.26 1.827v-.522c.783-.782 1.827 0 1.827 0M31.043 51.174c1.044.522 1.566 0 2.87-.261.26 0 1.044.522 1.304.783-1.565.26-3.13 1.565-4.174-.522m-.521 1.043c-.261 0-.261 0 0 0-.261-.26-.522-.26-.522-.26h-.26v.26s-.262 0-.262.261v1.305l.261.26.261.261s0 .261-.26.261c-.783-.26-1.044-1.304-1.827-1.565-.522-.26-1.304.26-1.565 1.043.26 0 .26 0 .522.261.26.783 1.565.261 1.565 1.044 0 .522-1.044 0-1.305.26-.521.262-.521 1.305 0 1.827.522-.522 1.044.26 1.566 0l.782-.783c1.044-.522 1.305.522 1.044 1.305.521-.261 1.826-.522 2.087-.522.521-.261.521-1.305 1.043-1.826-.782 0-2.087-.261-2.348-1.305v-.26c0-.261 0-.522-.26-1.044v-.26l-.522-.523c0 .261 0 .261 0 0M24 58.478c.26.783-1.565-.521-2.348.783-.26.26 0 1.043 0 1.565.522-.522.783.261 1.565-.26 0 0 .261.26 0 .26-.26.261-.521.783-.26 1.044 0 .26.782.782.782.782 0-.522.783 0 1.044-1.043 0-.522.26-1.044.782-.783s.522.783.522 1.304c.783-.26 2.348-1.043 3.13-.521 1.305.782 3.13 1.304 4.435 1.565-1.043-.522-1.304-2.348-1.043-3.391-2.087.521-4.435.26-6.522-.522-.522-.261-.522-.783-.522-1.304-.26-.522-1.043-1.044-1.565-1.044-.26 0-1.304.783-1.043.783v.26c.26 0 .26 0 .521.261 0 0 0 .261.261.261 0-.26.261-.26.261 0m5.217 11.739c.522-.521.783-.26 1.044-.26.522 0 .522.521.26 1.043 1.827-.783 3.392-2.087 5.479-1.565-1.304-1.305-.783-3.913.783-4.174 0 0-1.044-.261-1.305-.261-1.565-1.043-3.13-1.826-4.174 0-.521 1.043.522 1.826 1.044 2.609 0 .26 0 .26-.261.26-1.565.522-4.435.522-4.696-1.826 0-.26-.521-.521-1.043-.521-1.305 0-1.044 1.565-1.044 1.304.261-.26 1.044 0 1.044.522s-1.305-.261-1.565.26c-.261.522-.261 1.305 0 1.827 0-.261.26-.261.26-.261 1.305-.261 1.305.26 1.044 1.304 0 0 .26.783.522.783V71h1.043l.261-.26c.26-.262.522-.783 1.044-.783z"/><path d="M41.74 75.696c1.043-1.044 1.825-2.609 3.13-3.653-1.305-.782-2.87-1.565-3.13-3.39l.26-.262c1.826 1.044 4.174 1.044 5.478-.782 1.044-1.566 1.565-3.913 3.652-4.174-.782-1.305 0-2.87 1.305-3.392-.261-.26-.783-.521-1.305-.26-.521 0-.782.782-1.304.782C50.87 57.435 49.043 53 45.391 53c-.521 0-1.565.522-1.826 1.304-.26.783-.26 1.566.261 2.087 1.044 1.305 1.826 2.87 1.565 4.696.783-.783 1.566-1.826 1.566-2.87 0-.26.521 0 .521-.26 1.044-1.305-.521-2.348-1.304-3.13-.261-.262.26-.523.522-.523 2.87.783 3.13 4.435 2.087 6.783-.261-.522-1.566-.26-2.087-.522 1.304.783 1.043.783 1.043 1.044 0 .521-1.304.26-1.565.521-.522.522-.783.783-.783 2.61.522-.523 1.305-1.566 2.087-1.044 1.826.782 0 3.913-1.826 4.434-1.304.522-2.609 0-3.652-1.304-1.304-1.826-.26-3.913-1.304-5.739-.783.26-.522 1.043-1.044 1.043-1.304-.521-2.087-2.087-3.13-3.39-.522.26-.522.52-1.044.52-.521 0-1.826-.26-1.826 0-.26.262-.522 2.87 1.826 3.653 1.565.522 2.87 1.044 3.913 2.348-.782 0-1.043-.261-1.565-.261s-1.043.26-1.304.522c-.522.26-.783 1.043-.783 1.565.261 3.13 3.913 3.13 5.478 4.956.261.261-.521 1.566-1.043 2.087-.522.522-1.826-.782-1.826-1.565.26-.782-1.565-1.304-2.348-.522.26 0 .26.261.26.261 0 .783.783.783.783 1.044 0 .522-.521-.261-.782-.261-.783-.26-1.565 0-1.826.783-.261.26-.522.521-.261.782.522-.26.783.522 1.304.261.261-.26.522-.522 1.044-.26.26 0 .26.26.26.26-1.043.783-1.825 1.565-1.043 2.609C35.74 77.26 36 77 36 77h1.043c.522-.26.261-.522.522-1.043.261-.522 1.305-1.566 1.826-.783 0 0 0 .522-.26.522.26 0 .521.26.782.26h.522s.26-.26.26-.521c.262 0 .522 0 .783-.261 0 .783.261.522.261.522"/><path d="M36.783 54.043c1.826-.521 4.174-1.565 4.695-3.652.522.261.783 1.044.783 1.566 0 2.608-1.044 4.956-.522 7.826 0 .26.522 1.304.261 1.304-.26-.26-1.043-.783-1.304-.522-.522.261-.522 1.044-.783.783-.783-.522-1.826-1.305-2.087-2.348-.26-.26 0-1.043-.26-1.043-.523.782-2.088.782-2.87 1.043.26-.26.521-1.043.26-1.043-.782-.261-1.826 1.043-1.826.782v-.782c.522-1.827 1.566-3.392 3.653-3.914M22.174 7.87c.522 0 .783-.261 1.304-.783 0 .26.522.783.261 1.043-.26.261-.782.522-.782 1.044-.261.783.26 1.304 0 2.087-1.305 2.087-3.914 1.304-5.74 1.826 0-.26 0-.522-.26-.783.782 0 1.826 0 2.086-.782.261-.783.522-1.305 0-2.087-.521-1.044-1.826-.522-2.87-.261-.26-.522.523-1.044.784-1.044 1.043-.26 1.826-.782 2.87-1.043.782.26 1.564.783 2.347.783M20.87 8.913c-.522-1.043-1.566-1.043-1.827 0-.26.522 1.305.26 1.827 0m37.304 3.13c-.261.261-.783.261-1.044.522-.26 0-.26.261-.521.261 0 0-.261.261-.522.261h-2.348c-.26 0-.522 0-.522-.26h-.521c0-.262 0-.262.26-.262h1.304s.262 0 .262-.26c0 0 .26 0 .26-.262.261-.26.261-.521.261-.782v-.783c0-.26 0-.26-.26-.521-.522-1.044-1.826 0-2.61 0v-.783c.523-.783 1.566-.522 2.088-.783 1.826-1.304 2.087-.26 3.913.261.522.261 1.304-.26 1.826-.522v1.044c-.26.522-.783.522-1.043 1.043 0 .261 0 1.305-.783 1.826m-1.044-3.39s-.26 0 0 0c-.782-.262-1.826-.783-2.087.26-.26.522 1.305 0 2.087-.26m-18 39.651c.783.261 1.566.261 2.087-.521.261 1.043-.782 1.304-1.043 1.826-.261.782-.261 1.565-1.044 2.087-1.565.782-3.39 1.826-5.217 1.826 0-.261-.26-.522.26-.522.523 0 1.044-.522 1.305-.783.261-.521 0-1.826-.521-2.087-.522-.26-1.044.261-1.566.261-.26-.521.522-1.304 2.087-1.304 0 0 .783-.783.522-.783 1.043-.521 2.087-.26 3.13 0m-2.347 1.566c.26 0 1.304-.261 1.565-.522 0 0 .26 0 .26-.261h-.782c-.26 0-.26-.26-.522-.26h-.782l-.261.26v.522c.26 0 .522.26.522.26M63.13 41c0-.26.522-1.043.522-1.565 0-1.826 1.305-2.87 1.305-4.957 0-.521-2.348-1.043-2.348-2.087 0-.521-.261-1.304.26-1.304.783 0 1.566 0 2.088-.522 2.347-2.087.26-4.956 0-7.304 0-.522 1.043-1.826 1.043-2.087-.26-2.087-.522-3.913.26-6-.52.522-.782 1.304-1.303 1.826-.261.26-.261-.26-.261-.26.26-1.827 1.043-3.392 1.826-5.218 1.043-2.087.521-3.652-1.305-4.435-1.826-.522-3.39 1.043-3.39 2.609-.262 1.565.26 3.13.52 4.434v1.044c.262-1.304.262-2.609.262-3.913 0-.261.26-.783.521-.783 1.044-.26 1.566.522 1.566 1.044-.261 1.826-.522 3.391-1.044 5.478s.261 4.435.522 6.522c-.783-.522-1.826-.522-2.087.782-.26.783.522 1.305.522 2.087 0-.782.782-2.087 1.565-1.565 1.043.522 1.043 3.652.783 4.174-.522.783-1.305 1.565-2.348 1.304-.522-.26-.261-1.043-.783-1.304-1.826-1.826-2.87-4.174-2.87-7.043 0-.522.261-1.305 0-1.566-2.347-1.043-3.652 0-4.695 1.566-.261-.522-1.044-1.044-1.304-1.044-.522.783-.261 2.348.26 3.13 1.826 1.566 3.913 2.87 4.957 4.957-1.044.26-2.348.522-2.609 1.565-.522 1.305-.26 2.87 1.044 3.392 1.043.521 2.87 0 3.391 0 1.043.26 2.348 1.043 2.348 2.086 0 0-.522 2.61-1.565 1.827-.522-.261-.261-1.827-1.044-1.827-1.304-.26-1.565 1.305-1.304 1.305.26-.261.782.26 1.304.522-2.609-.522-1.826 1.826-1.565 1.565.26-.261.522 0 1.565 0l-.26.26c-.262.262-.262.262-.262.522v.522-.26h1.043s.262 0 .262-.262c-.261 0 .26-.26.26-.26l.261-.261c.261-.522.522-.522 1.044-.522 0 0 .26 0 .26.26l.262.262c.521.782.521 1.043.521 1.304"/><path d="M44.87 17.783c-.261 0-.261-.261-.261-.522V17c0-.26 0-.783.26-1.043v-.261h.261c.522 0 .783.26 1.044.521l.26.261c.523 1.044.262 3.392 2.61 3.913 1.304.261 2.347.783 3.652.522-.261 1.304-.261 2.609.782 3.652-1.304-.782-2.348-.522-3.652-1.826-.522-.522-1.826-1.304-2.348-1.043-.26 0 .261-.783-.26-1.044-.261 0-1.305 0-1.566.261-.782 1.304-1.565 1.304-1.826 1.565.261-.26-1.304-1.565.783-2.348.26 0 .26-.521 0-.521-.522-.261-.783 0-1.044.26-.522.261-.522-.782-1.304-.26-.261-2.087 1.826-2.348 2.87-1.044 0 0 .26 0 .26-.26z"/></g><path d="M2.348 3.435v5.478c.522 19.826.782 38.609 12.522 56.87 4.956 7.565 12.26 13.565 21.652 18h.521c9.392-4.174 16.696-10.435 21.653-18 11.739-18 12.26-36.783 12.521-56.87V3.435H2.347zm7.304 48.782l27.391-21.652 27.13 21.392c-.782 1.826-1.564 3.652-2.347 5.217L37.043 37.609 12 57.435c-.783-1.565-1.565-3.392-2.348-5.218zM57.913 64.74c-4.696 7.044-12 13.044-20.87 17.218-8.87-4.174-16.173-10.174-20.87-17.218-.782-1.304-1.564-2.348-2.086-3.652l23.217-18.26 22.957 18.26c-.783 1.304-1.565 2.348-2.348 3.652zm12.26-56.087c-.26 13.826-.52 26.87-4.695 39.652L36.783 25.61 8.087 48.304C3.913 35.522 3.652 22.478 3.391 8.652V4.74h67.044c0 1.304-.261 2.609-.261 3.913z" fill="#231f20"/></g></svg>