<svg height="242" width="304" xmlns="http://www.w3.org/2000/svg"><mask id="a" fill="#fff"><path d="M.89.644h211.35V241.55H.89z" fill-rule="evenodd"/></mask><g fill="#0a146e" fill-rule="evenodd"><path d="M78.914 61.029l-21.142 32.87-21.141-32.87a2.787 2.787 0 00-2.346-1.266H3.315c-2.236 0-3.552 2.445-2.284 4.245L40.3 119.74.479 177.57c-1.242 1.8.075 4.218 2.298 4.218h30.785c.961 0 1.855-.487 2.36-1.28l21.85-34.476 21.85 34.477a2.797 2.797 0 002.36 1.279h30.785c2.224 0 3.547-2.419 2.305-4.218l-39.827-57.83 39.268-55.732c1.269-1.8-.047-4.245-2.284-4.245h-30.97a2.77 2.77 0 00-2.345 1.266zm150.69 70.612h-91.18c.804 13.666 13.162 25.454 31.07 25.454 13.163 0 21.77-4.878 27.164-12.48.812-1.147 2.319-1.587 3.587-.947l20.555 10.421c1.48.753 2.006 2.639 1.044 3.972-11.226 15.592-29.864 25.807-52.533 25.807h-.178c-36.956 0-62.272-26.427-62.272-63.095 0-36.662 25.316-63.089 62.272-63.089 36.97 0 63.595 28.246 63.595 63.089 0 3.331-.231 6.61-.757 9.795 0 0-.286 1.073-2.366 1.073zm-27.9-24.695c-1.93-7.763-11.245-22.502-31.07-22.502-19.048 0-28.848 11.648-31.174 22.502h62.245z"/><path d="M212.24 121.096c0 66.527-54.483 120.454-121.698 120.454-35.427 0-67.323-14.983-89.558-38.903-.237-.262-.02-.779.624-.779h3.925c1.925.02 2.61.57 2.922.779 19.293 16.392 44.457 26.315 71.987 26.315 60.76 0 110.01-48.297 110.01-107.866 0-59.57-49.25-107.866-110.01-107.866-27.53 0-52.694 9.923-71.987 26.315-.312.208-.997.759-2.922.779H1.608c-.644 0-.861-.517-.624-.779C23.219 15.632 55.114.642 90.542.642c67.215 0 121.698 53.927 121.698 120.454" mask="url(#a)" transform="translate(90.91)"/></g></svg>