<svg fill="none" height="24" width="24" xmlns="http://www.w3.org/2000/svg" xmlns:xlink="http://www.w3.org/1999/xlink"><linearGradient id="a"><stop offset="0" stop-color="#f3625b"/><stop offset="1" stop-color="#fff" stop-opacity="0"/></linearGradient><linearGradient id="b" gradientUnits="userSpaceOnUse" x1="1" x2="23" xlink:href="#a" y1="1" y2="23"/><linearGradient id="c" gradientUnits="userSpaceOnUse" x1="7" x2="21.813" xlink:href="#a" y1="5.215" y2="13.547"/><path d="M17.5 1h-11A5.5 5.5 0 001 6.5v11A5.5 5.5 0 006.5 23h11a5.5 5.5 0 005.5-5.5v-11A5.5 5.5 0 0017.5 1z" stroke="#024b85" stroke-linecap="round" stroke-linejoin="round" stroke-width="2"/><path d="M17.5 1h-11A5.5 5.5 0 001 6.5v11A5.5 5.5 0 006.5 23h11a5.5 5.5 0 005.5-5.5v-11A5.5 5.5 0 0017.5 1z" stroke="url(#b)" stroke-linecap="round" stroke-linejoin="round" stroke-width="2"/><path d="M13.5 11.714h3.25v3.25H13.5v7.584h-3.25v-7.583H7v-3.25h3.25v-1.36c0-1.288.405-2.915 1.211-3.805.806-.891 1.813-1.335 3.018-1.335h2.271v3.25h-2.275a.973.973 0 00-.975.973z" fill="#024b85"/><path d="M13.5 11.714h3.25v3.25H13.5v7.584h-3.25v-7.583H7v-3.25h3.25v-1.36c0-1.288.405-2.915 1.211-3.805.806-.891 1.813-1.335 3.018-1.335h2.271v3.25h-2.275a.973.973 0 00-.975.973z" fill="url(#c)"/></svg>