<svg fill="none" height="24" width="24" xmlns="http://www.w3.org/2000/svg" xmlns:xlink="http://www.w3.org/1999/xlink"><linearGradient id="a"><stop offset="0" stop-color="#f3625b"/><stop offset="1" stop-color="#fff" stop-opacity="0"/></linearGradient><linearGradient id="b" gradientUnits="userSpaceOnUse" x1="1" x2="23" xlink:href="#a" y1="1" y2="23"/><linearGradient id="c" gradientUnits="userSpaceOnUse" x1="7.647" x2="16.448" xlink:href="#a" y1="7.552" y2="16.352"/><linearGradient id="d" gradientUnits="userSpaceOnUse" x1="18.05" x2="18.072" xlink:href="#a" y1="5.95" y2="5.95"/><g stroke-linecap="round" stroke-linejoin="round" stroke-width="2"><path d="M17.5 1h-11A5.5 5.5 0 001 6.5v11A5.5 5.5 0 006.5 23h11a5.5 5.5 0 005.5-5.5v-11A5.5 5.5 0 0017.5 1z" stroke="#024b85"/><path d="M17.5 1h-11A5.5 5.5 0 001 6.5v11A5.5 5.5 0 006.5 23h11a5.5 5.5 0 005.5-5.5v-11A5.5 5.5 0 0017.5 1z" stroke="url(#b)"/><path d="M16.4 11.307a4.4 4.4 0 11-8.705 1.29 4.4 4.4 0 018.705-1.29z" stroke="#024b85"/><path d="M16.4 11.307a4.4 4.4 0 11-8.705 1.29 4.4 4.4 0 018.705-1.29z" stroke="url(#c)"/><path d="M18.05 5.95h.01" stroke="#024b85"/><path d="M18.05 5.95h.01" stroke="url(#d)"/></g></svg>