<svg fill="none" height="24" width="24" xmlns="http://www.w3.org/2000/svg" xmlns:xlink="http://www.w3.org/1999/xlink"><linearGradient id="a"><stop offset="0" stop-color="#f3625b"/><stop offset="1" stop-color="#fff" stop-opacity="0"/></linearGradient><linearGradient id="b" gradientUnits="userSpaceOnUse" x1="1" x2="23" xlink:href="#a" y1="1" y2="23"/><linearGradient id="c" gradientUnits="userSpaceOnUse" x1="5.46" x2="8.604" xlink:href="#a" y1="5.471" y2="8.615"/><linearGradient id="d" gradientUnits="userSpaceOnUse" x1="5.676" x2="14.052" xlink:href="#a" y1="9.591" y2="21.647"/><path d="M17.5 1h-11A5.5 5.5 0 001 6.5v11A5.5 5.5 0 006.5 23h11a5.5 5.5 0 005.5-5.5v-11A5.5 5.5 0 0017.5 1z" stroke="#024b85" stroke-linecap="round" stroke-linejoin="round" stroke-width="2"/><path d="M17.5 1h-11A5.5 5.5 0 001 6.5v11A5.5 5.5 0 006.5 23h11a5.5 5.5 0 005.5-5.5v-11A5.5 5.5 0 0017.5 1z" stroke="url(#b)" stroke-linecap="round" stroke-linejoin="round" stroke-width="2"/><path d="M7.032 8.615a1.572 1.572 0 100-3.144 1.572 1.572 0 000 3.144z" fill="#024b85"/><path d="M7.032 8.615a1.572 1.572 0 100-3.144 1.572 1.572 0 000 3.144z" fill="url(#c)"/><path d="M10.089 9.806v8.722h2.708v-4.313c0-1.138.214-2.24 1.625-2.24 1.391 0 1.409 1.3 1.409 2.312v4.242h2.71v-4.783c0-2.35-.507-4.155-3.253-4.155-1.318 0-2.202.723-2.563 1.408h-.037V9.806h-2.6zm-4.413 0h2.712v8.722H5.676z" fill="#024b85"/><path d="M10.089 9.806v8.722h2.708v-4.313c0-1.138.214-2.24 1.625-2.24 1.391 0 1.409 1.3 1.409 2.312v4.242h2.71v-4.783c0-2.35-.507-4.155-3.253-4.155-1.318 0-2.202.723-2.563 1.408h-.037V9.806h-2.6zm-4.413 0h2.712v8.722H5.676z" fill="url(#d)"/></svg>