<svg fill="none" height="24" width="24" xmlns="http://www.w3.org/2000/svg" xmlns:xlink="http://www.w3.org/1999/xlink"><linearGradient id="a"><stop offset="0" stop-color="#f3625b"/><stop offset="1" stop-color="#fff" stop-opacity="0"/></linearGradient><linearGradient id="b" gradientUnits="userSpaceOnUse" x1="1" x2="23" xlink:href="#a" y1="1" y2="23"/><linearGradient id="c" gradientUnits="userSpaceOnUse" x1="5.141" x2="17" xlink:href="#a" y1="6.548" y2="20.383"/><mask id="d" fill="#fff"><path d="M9.544 18.548c5.283 0 8.172-4.617 8.172-8.621 0-.131 0-.262-.008-.392a6.032 6.032 0 001.433-1.568 5.502 5.502 0 01-1.65.476 3.018 3.018 0 001.263-1.676 5.579 5.579 0 01-1.824.736 2.832 2.832 0 00-1.63-.915 2.745 2.745 0 00-1.82.319 2.97 2.97 0 00-1.263 1.421 3.185 3.185 0 00-.182 1.938 7.825 7.825 0 01-3.279-.918A8.253 8.253 0 016.116 7.1 3.177 3.177 0 005.8 9.309a3.038 3.038 0 001.204 1.836 2.739 2.739 0 01-1.304-.379v.039c0 .7.23 1.377.65 1.918a2.85 2.85 0 001.655 1.052c-.423.121-.867.14-1.297.052.183.602.54 1.128 1.022 1.505a2.78 2.78 0 001.661.599 5.576 5.576 0 01-3.567 1.3c-.229 0-.457-.016-.684-.044a7.826 7.826 0 004.403 1.358"/></mask><path d="M17.5 1h-11A5.5 5.5 0 001 6.5v11A5.5 5.5 0 006.5 23h11a5.5 5.5 0 005.5-5.5v-11A5.5 5.5 0 0017.5 1z" stroke="#024b85" stroke-linecap="round" stroke-linejoin="round" stroke-width="2"/><path d="M17.5 1h-11A5.5 5.5 0 001 6.5v11A5.5 5.5 0 006.5 23h11a5.5 5.5 0 005.5-5.5v-11A5.5 5.5 0 0017.5 1z" stroke="url(#b)" stroke-linecap="round" stroke-linejoin="round" stroke-width="2"/><path d="M9.544 18.548c5.283 0 8.172-4.617 8.172-8.621 0-.131 0-.262-.008-.392a6.032 6.032 0 001.433-1.568 5.502 5.502 0 01-1.65.476 3.018 3.018 0 001.263-1.676 5.579 5.579 0 01-1.824.736 2.832 2.832 0 00-1.63-.915 2.745 2.745 0 00-1.82.319 2.97 2.97 0 00-1.263 1.421 3.185 3.185 0 00-.182 1.938 7.825 7.825 0 01-3.279-.918A8.253 8.253 0 016.116 7.1 3.177 3.177 0 005.8 9.309a3.038 3.038 0 001.204 1.836 2.739 2.739 0 01-1.304-.379v.039c0 .7.23 1.377.65 1.918a2.85 2.85 0 001.655 1.052c-.423.121-.867.14-1.297.052.183.602.54 1.128 1.022 1.505a2.78 2.78 0 001.661.599 5.576 5.576 0 01-3.567 1.3c-.229 0-.457-.016-.684-.044a7.826 7.826 0 004.403 1.358" fill="#024b85"/><path d="M9.544 18.548c5.283 0 8.172-4.617 8.172-8.621 0-.131 0-.262-.008-.392a6.032 6.032 0 001.433-1.568 5.502 5.502 0 01-1.65.476 3.018 3.018 0 001.263-1.676 5.579 5.579 0 01-1.824.736 2.832 2.832 0 00-1.63-.915 2.745 2.745 0 00-1.82.319 2.97 2.97 0 00-1.263 1.421 3.185 3.185 0 00-.182 1.938 7.825 7.825 0 01-3.279-.918A8.253 8.253 0 016.116 7.1 3.177 3.177 0 005.8 9.309a3.038 3.038 0 001.204 1.836 2.739 2.739 0 01-1.304-.379v.039c0 .7.23 1.377.65 1.918a2.85 2.85 0 001.655 1.052c-.423.121-.867.14-1.297.052.183.602.54 1.128 1.022 1.505a2.78 2.78 0 001.661.599 5.576 5.576 0 01-3.567 1.3c-.229 0-.457-.016-.684-.044a7.826 7.826 0 004.403 1.358" fill="url(#c)"/><path d="M17.708 9.535l-.606-.795-.426.325.034.535zm1.433-1.568l.845.535 1.832-2.89-3.1 1.449zm-1.65.476l-.534-.845.658 1.838zm1.263-1.676l.956.293.783-2.56-2.27 1.42zm-1.824.736l-.746.665.384.432.566-.118zm-4.895 2.763l-.053.999 1.312.07-.282-1.284zm-5.92-3.165l.793-.61-.932-1.21-.736 1.337.876.483zm.89 4.044l-.031 1 3.334.104-2.727-1.921zM5.7 10.766l.507-.862L4.7 9.018v1.748zm0 .039h-1zm2.305 2.97l.276.96-.068-1.938zm-1.297.052l.199-.98-1.646-.335.49 1.606zm2.683 2.104l.638.77 2.07-1.717-2.688-.053zm-3.567 1.3l-.002 1zm-.684-.044l.125-.992-.685 1.82zm4.403 2.36c5.996 0 9.172-5.24 9.172-9.62h-2c0 3.627-2.602 7.62-7.172 7.62zm9.172-9.62c0-.126 0-.289-.01-.456L16.71 9.6c.006.092.006.19.006.327h2zm-.401.403a7.033 7.033 0 001.67-1.828l-1.688-1.07a5.07 5.07 0 01-1.195 1.308zm.403-3.27c-.43.202-.886.333-1.35.391l.247 1.985a6.502 6.502 0 001.95-.563l-.847-1.812zm-.693 2.229a4.017 4.017 0 001.686-2.23l-1.913-.584a2.021 2.021 0 01-.84 1.123l1.067 1.69zm.199-3.37a4.55 4.55 0 01-1.497.605l.407 1.958a6.578 6.578 0 002.15-.867l-1.06-1.695zm-.547.918a3.832 3.832 0 00-2.206-1.235l-.34 1.971c.394.068.766.273 1.053.595l1.493-1.33zM15.47 5.602a3.746 3.746 0 00-2.483.434l.983 1.742a1.745 1.745 0 011.16-.205l.34-1.97zm-2.483.434a3.974 3.974 0 00-1.69 1.897l1.838.79c.178-.413.475-.742.835-.945zm-1.69 1.897a4.187 4.187 0 00-.24 2.548l1.954-.43a2.186 2.186 0 01.124-1.328l-1.837-.79zm.79 1.335a6.825 6.825 0 01-2.86-.802l-.943 1.763a8.825 8.825 0 003.697 1.036zm-2.86-.802a7.253 7.253 0 01-2.32-1.976L5.323 7.711a9.253 9.253 0 002.962 2.518l.943-1.763zM5.24 6.618a4.177 4.177 0 00-.416 2.906l1.954-.43a2.177 2.177 0 01.213-1.511zm-.416 2.906a4.038 4.038 0 001.605 2.439l1.152-1.635a2.039 2.039 0 01-.803-1.234zm2.212.622a1.74 1.74 0 01-.828-.242l-1.014 1.724a3.74 3.74 0 001.78.517l.062-2zm-2.335.62v.039h2v-.039zm0 .039c0 .916.3 1.81.86 2.531l1.58-1.226a2.135 2.135 0 01-.44-1.306h-2zm.86 2.531a3.851 3.851 0 002.236 1.417l.417-1.956a1.851 1.851 0 01-1.073-.687zm2.168-.522a1.723 1.723 0 01-.821.033l-.399 1.96a3.72 3.72 0 001.773-.071zm-1.977 1.304a4.034 4.034 0 001.362 2.001l1.234-1.573a2.034 2.034 0 01-.683-1.01zm1.362 2.001a3.78 3.78 0 002.258.812l.04-2a1.78 1.78 0 01-1.064-.385zm1.64-.958a4.576 4.576 0 01-2.928 1.07l-.002 2a6.575 6.575 0 004.206-1.53zm-2.927 1.07a4.55 4.55 0 01-.56-.036l-.251 1.984a6.6 6.6 0 00.807.052zM4.58 18.014c1.476 1 3.2 1.533 4.964 1.53l-.003-2a6.826 6.826 0 01-3.84-1.186L4.58 18.015z" fill="#024b85" mask="url(#d)"/><path d="M17.708 9.535l-.606-.795-.426.325.034.535zm1.433-1.568l.845.535 1.832-2.89-3.1 1.449zm-1.65.476l-.534-.845.658 1.838zm1.263-1.676l.956.293.783-2.56-2.27 1.42zm-1.824.736l-.746.665.384.432.566-.118zm-4.895 2.763l-.053.999 1.312.07-.282-1.284zm-5.92-3.165l.793-.61-.932-1.21-.736 1.337.876.483zm.89 4.044l-.031 1 3.334.104-2.727-1.921zM5.7 10.766l.507-.862L4.7 9.018v1.748zm0 .039h-1zm2.305 2.97l.276.96-.068-1.938zm-1.297.052l.199-.98-1.646-.335.49 1.606zm2.683 2.104l.638.77 2.07-1.717-2.688-.053zm-3.567 1.3l-.002 1zm-.684-.044l.125-.992-.685 1.82zm4.403 2.36c5.996 0 9.172-5.24 9.172-9.62h-2c0 3.627-2.602 7.62-7.172 7.62zm9.172-9.62c0-.126 0-.289-.01-.456L16.71 9.6c.006.092.006.19.006.327h2zm-.401.403a7.033 7.033 0 001.67-1.828l-1.688-1.07a5.07 5.07 0 01-1.195 1.308zm.403-3.27c-.43.202-.886.333-1.35.391l.247 1.985a6.502 6.502 0 001.95-.563l-.847-1.812zm-.693 2.229a4.017 4.017 0 001.686-2.23l-1.913-.584a2.021 2.021 0 01-.84 1.123l1.067 1.69zm.199-3.37a4.55 4.55 0 01-1.497.605l.407 1.958a6.578 6.578 0 002.15-.867l-1.06-1.695zm-.547.918a3.832 3.832 0 00-2.206-1.235l-.34 1.971c.394.068.766.273 1.053.595l1.493-1.33zM15.47 5.602a3.746 3.746 0 00-2.483.434l.983 1.742a1.745 1.745 0 011.16-.205l.34-1.97zm-2.483.434a3.974 3.974 0 00-1.69 1.897l1.838.79c.178-.413.475-.742.835-.945zm-1.69 1.897a4.187 4.187 0 00-.24 2.548l1.954-.43a2.186 2.186 0 01.124-1.328l-1.837-.79zm.79 1.335a6.825 6.825 0 01-2.86-.802l-.943 1.763a8.825 8.825 0 003.697 1.036zm-2.86-.802a7.253 7.253 0 01-2.32-1.976L5.323 7.711a9.253 9.253 0 002.962 2.518l.943-1.763zM5.24 6.618a4.177 4.177 0 00-.416 2.906l1.954-.43a2.177 2.177 0 01.213-1.511zm-.416 2.906a4.038 4.038 0 001.605 2.439l1.152-1.635a2.039 2.039 0 01-.803-1.234zm2.212.622a1.74 1.74 0 01-.828-.242l-1.014 1.724a3.74 3.74 0 001.78.517l.062-2zm-2.335.62v.039h2v-.039zm0 .039c0 .916.3 1.81.86 2.531l1.58-1.226a2.135 2.135 0 01-.44-1.306h-2zm.86 2.531a3.851 3.851 0 002.236 1.417l.417-1.956a1.851 1.851 0 01-1.073-.687zm2.168-.522a1.723 1.723 0 01-.821.033l-.399 1.96a3.72 3.72 0 001.773-.071zm-1.977 1.304a4.034 4.034 0 001.362 2.001l1.234-1.573a2.034 2.034 0 01-.683-1.01zm1.362 2.001a3.78 3.78 0 002.258.812l.04-2a1.78 1.78 0 01-1.064-.385zm1.64-.958a4.576 4.576 0 01-2.928 1.07l-.002 2a6.575 6.575 0 004.206-1.53zm-2.927 1.07a4.55 4.55 0 01-.56-.036l-.251 1.984a6.6 6.6 0 00.807.052zM4.58 18.014c1.476 1 3.2 1.533 4.964 1.53l-.003-2a6.826 6.826 0 01-3.84-1.186L4.58 18.015z" fill="url(#c)" mask="url(#d)"/></svg>