<svg fill="none" height="300" width="400" xmlns="http://www.w3.org/2000/svg"><g fill="#eff8fa"><path clip-rule="evenodd" d="M204.668 90.379l19.888 9.303c2.029.809 4.463.405 5.682-.809.393-.391.826-.782 1.276-1.186.966-.87 1.966-1.774 2.782-2.86 1.624-1.617 2.03-4.044.812-5.663l-9.335-19.82c3.246-5.258 5.682-11.326 7.306-17.394l21.107-7.28c2.028-.81 3.246-2.428 3.652-4.855v-5.663c0-2.022-1.624-4.045-3.652-4.854l-20.701-7.686c-1.624-6.067-4.058-12.135-7.306-17.393L228.166 0c40.028 12.096 68.982 48.978 68.982 92.858 0 16.897-4.333 32.755-11.941 46.561-.487-1.138-2.034-1.887-3.206-1.887l-16.726.816a55.614 55.614 0 00-9.79-9.789l.815-16.722c0-1.224-.815-2.856-2.039-3.264-1.632-.815-2.857-1.223-4.488-1.631-1.224-.408-2.855 0-3.671.816l-11.016 12.236a39.599 39.599 0 00-13.87 0l-11.015-12.236c-.815-1.224-2.447-1.632-3.671-.816-.358.179-.716.279-1.039.37-.413.117-.771.217-1.001.446-.815.407-1.631.815-2.04.815-1.223.408-2.04 2.04-2.04 3.264l.817 16.722c-3.673 2.855-7.344 6.118-9.791 9.789l-16.726-.816c-1.224 0-2.856.816-3.264 2.039-.816 1.631-1.223 2.855-1.632 4.487-.409 1.223 0 2.854.816 3.67l12.238 11.012a39.635 39.635 0 000 13.868L170.63 183.62a2.78 2.78 0 00-1.151 1.592C130.232 172.566 102 135.862 102 92.858c0-14.8 3.325-28.805 9.263-41.33 1.675 6.085 4.11 12.153 7.357 17.411l-9.741 20.225c-.811 2.023-.405 4.45.812 5.664.393.391.785.824 1.191 1.272.855.943 1.769 1.95 2.869 2.773 1.622 1.618 4.058 2.023 5.681.81l19.889-9.305c5.277 3.236 11.364 5.663 17.452 7.282l7.307 21.034c.811 2.022 2.435 3.236 4.869 3.64h5.683c2.03 0 4.058-1.618 4.871-3.64l7.306-21.034c6.899-1.619 12.582-4.046 17.859-7.281zm22.992 93.786c10.467 0 18.954-8.369 18.954-18.693 0-10.323-8.487-18.692-18.954-18.692s-18.953 8.369-18.953 18.692c0 10.324 8.486 18.693 18.953 18.693zM198.872 36.782c0 14.69-11.943 26.6-26.675 26.6s-26.675-11.91-26.675-26.6c0-14.691 11.943-26.6 26.675-26.6s26.675 11.909 26.675 26.6z" fill-rule="evenodd"/><path d="M4.63 272.87c0 .791.339 1.13 1.13 1.13h5.08c.791 0 1.13-.339 1.13-1.13v-16.205h15.527v16.205c0 .791.34 1.13 1.13 1.13h5.081c.79 0 1.13-.339 1.13-1.13v-37.265c0-.791-.34-1.129-1.13-1.129h-5.081c-.79 0-1.13.338-1.13 1.129v14.172H11.97v-14.172c0-.791-.339-1.129-1.13-1.129H5.76c-.791 0-1.13.338-1.13 1.129zm57.85-.339c.395 1.186.79 1.469 1.524 1.469h4.01c.79 0 1.129-.339 1.129-1.13v-24.279c0-.79-.34-1.129-1.13-1.129H63.27c-.79 0-1.129.339-1.129 1.129v1.017c-1.92-1.751-4.122-2.711-7.679-2.711-7.34 0-13.607 5.082-13.607 13.834 0 9.373 6.324 13.833 13.438 13.833 3.84 0 5.985-1.186 7.905-2.823zm-.339-10.558c0 1.807-.395 2.71-1.355 4.009-1.186 1.468-3.162 2.371-5.477 2.371-3.952 0-7.227-2.879-7.227-7.622s3.444-7.623 7.34-7.623c2.259 0 3.896.678 5.138 1.864 1.186 1.129 1.581 2.315 1.581 4.065zm34.93 3.388c-.226-.226-.452-.339-.678-.339-.282 0-.451.113-.677.339-1.92 2.089-4.066 2.992-6.493 2.992-4.122 0-7.34-2.992-7.34-7.566 0-4.743 3.387-7.679 7.396-7.679 2.71 0 4.347.847 6.267 2.767.226.226.452.339.734.339.283 0 .452-.113.678-.339l2.767-3.444c.225-.283.338-.508.338-.734 0-.283-.17-.565-.451-.847-2.09-2.146-5.42-3.953-10.22-3.953-8.13 0-14.737 5.477-14.737 13.834 0 9.203 6.832 13.833 14.454 13.833 4.405 0 7.68-1.186 11.124-4.856.226-.226.338-.451.338-.677a.902.902 0 00-.282-.621zm8.114 7.509c0 .791.339 1.13 1.13 1.13h4.743c.79 0 1.129-.339 1.129-1.13v-8.808l1.016-1.016 7.397 10.163c.339.508.79.791 1.355.791h6.945c.452 0 .677-.226.677-.565 0-.226-.056-.339-.169-.508l-11.067-15.189 8.921-9.147a.805.805 0 00.226-.564c0-.339-.226-.565-.677-.565h-7.002c-.564 0-1.129.339-1.524.791l-6.098 6.323v-20.1c0-.791-.339-1.13-1.129-1.13h-4.743c-.791 0-1.13.339-1.13 1.13zm44.77-5.702c0 5.138 3.388 7.396 8.469 7.396 1.412 0 2.88-.113 3.953-.282.677-.113.847-.282.847-.847v-4.743c0-.395-.17-.621-.565-.621-.621 0-1.581.282-2.71.282-2.033 0-2.993-1.242-2.993-3.613v-11.067h5.76c.79 0 1.129-.339 1.129-1.129v-3.953c0-.79-.339-1.129-1.129-1.129h-5.76v-8.018c0-.79-.338-1.129-1.129-1.129h-4.743c-.79 0-1.129.339-1.129 1.129v8.018h-4.009c-.79 0-1.129.339-1.129 1.129v3.953c0 .79.339 1.129 1.129 1.129h4.009zm18.916 5.702c0 .791.339 1.13 1.13 1.13h4.743c.79 0 1.129-.339 1.129-1.13v-9.711c0-3.049.621-4.63 1.807-6.494 1.242-1.976 3.331-3.557 5.815-3.557 2.541 0 3.953 1.355 3.953 3.896v15.866c0 .791.338 1.13 1.129 1.13h4.743c.79 0 1.129-.339 1.129-1.13v-18.181c0-4.63-3.275-7.792-8.978-7.792-3.67 0-6.944 1.468-9.598 3.953v-16.374c0-.791-.339-1.13-1.129-1.13h-4.743c-.791 0-1.13.339-1.13 1.13zm53.87-7.622c-.282-.283-.508-.395-.734-.395-.339 0-.564.169-.847.508-1.75 1.863-3.896 3.218-6.888 3.218-3.557 0-6.437-1.807-7.397-5.307h19.197c.791 0 1.13-.339 1.13-1.13v-1.694c0-6.436-4.179-13.551-13.438-13.551-7.341 0-13.777 5.421-13.777 13.834 0 8.921 6.662 13.833 14.002 13.833 5.195 0 8.131-1.468 11.745-5.025.226-.226.338-.452.338-.678a.906.906 0 00-.282-.621zm-15.866-7.849c.96-2.54 3.388-4.629 6.832-4.629 3.219 0 5.59 1.75 6.493 4.629zm40.478 15.471c0 .791.339 1.13 1.129 1.13h5.082c.791 0 1.129-.339 1.129-1.13v-24.448l17.334 24.448c.452.678.904 1.13 2.033 1.13h4.009c.79 0 1.129-.339 1.129-1.13v-37.265c0-.791-.339-1.129-1.129-1.129h-5.082c-.79 0-1.129.338-1.129 1.129v23.601l-16.544-23.601c-.451-.678-.903-1.129-2.032-1.129h-4.8c-.79 0-1.129.338-1.129 1.129zm51.94 1.694c7.735 0 14.115-4.573 14.115-13.833 0-8.639-6.211-13.834-14.115-13.834-7.905 0-14.116 5.195-14.116 13.834 0 9.26 6.38 13.833 14.116 13.833zm0-6.211c-4.235 0-6.889-3.105-6.889-7.566 0-4.912 3.162-7.679 6.889-7.679 3.726 0 6.888 2.767 6.888 7.679 0 4.461-2.654 7.566-6.888 7.566zm19.778 4.517c0 .791.339 1.13 1.129 1.13h4.743c.79 0 1.129-.339 1.129-1.13v-10.332c0-3.388.96-5.647 2.372-7.284 1.016-1.186 2.428-2.146 4.347-2.146 1.807 0 2.88.904 3.106 2.428.113.678.282.904.903.904h4.574c.734 0 1.129-.339 1.129-1.13 0-4.968-3.275-8.413-8.526-8.413-3.501 0-6.042 1.299-7.905 3.388v-1.694c0-.79-.339-1.129-1.129-1.129H320.2c-.79 0-1.129.339-1.129 1.129zm31.812-5.702c0 5.138 3.387 7.396 8.469 7.396 1.412 0 2.88-.113 3.952-.282.678-.113.847-.282.847-.847v-4.743c0-.395-.169-.621-.564-.621-.621 0-1.581.282-2.71.282-2.033 0-2.993-1.242-2.993-3.613v-11.067h5.759c.791 0 1.13-.339 1.13-1.129v-3.953c0-.79-.339-1.129-1.13-1.129h-5.759v-8.018c0-.79-.339-1.129-1.129-1.129h-4.743c-.791 0-1.129.339-1.129 1.129v8.018h-4.009c-.791 0-1.129.339-1.129 1.129v3.953c0 .79.338 1.129 1.129 1.129h4.009zm18.916 5.702c0 .791.339 1.13 1.129 1.13h4.743c.791 0 1.129-.339 1.129-1.13v-9.711c0-3.049.621-4.63 1.807-6.494 1.242-1.976 3.331-3.557 5.816-3.557 2.541 0 3.952 1.355 3.952 3.896v15.866c0 .791.339 1.13 1.129 1.13h4.743c.791 0 1.13-.339 1.13-1.13v-18.181c0-4.63-3.275-7.792-8.978-7.792-3.67 0-6.945 1.468-9.599 3.953v-16.374c0-.791-.338-1.13-1.129-1.13h-4.743c-.79 0-1.129.339-1.129 1.13z"/></g></svg>