<svg fill="none" height="75" width="485" xmlns="http://www.w3.org/2000/svg"><g fill="#373f57"><path clip-rule="evenodd" d="M32.067 28.228l6.211 2.906c.634.253 1.394.127 1.775-.253.123-.122.258-.244.399-.37.302-.272.614-.554.869-.893.507-.505.634-1.263.253-1.769l-2.916-6.19c1.014-1.643 1.775-3.538 2.283-5.433l6.592-2.274c.633-.253 1.014-.758 1.14-1.516v-1.769c0-.632-.507-1.264-1.14-1.516l-6.466-2.4c-.507-1.896-1.267-3.79-2.282-5.433L39.407 0c12.502 3.778 21.546 15.297 21.546 29.003 0 5.277-1.354 10.23-3.73 14.542-.152-.355-.636-.59-1.002-.59l-5.224.256a17.36 17.36 0 00-3.058-3.058l.255-5.223c0-.382-.255-.891-.637-1.019a6.209 6.209 0 00-1.401-.51c-.383-.127-.892 0-1.147.255l-3.44 3.822a12.366 12.366 0 00-4.333 0l-3.44-3.822c-.255-.382-.764-.51-1.147-.254a1.736 1.736 0 01-.324.115c-.13.037-.241.068-.313.14-.255.127-.51.254-.637.254-.382.128-.637.637-.637 1.02l.255 5.222c-1.147.892-2.294 1.911-3.058 3.058l-5.224-.255c-.383 0-.892.255-1.02.637a6.23 6.23 0 00-.51 1.401c-.127.382 0 .892.256 1.146l3.822 3.44a12.371 12.371 0 000 4.331l-3.822 3.44a.868.868 0 00-.36.497C8.818 53.898 0 42.434 0 29.003c0-4.623 1.038-8.997 2.893-12.91.523 1.902 1.284 3.797 2.298 5.44L2.15 27.848c-.254.632-.127 1.39.253 1.769.123.122.245.258.372.397.267.295.553.61.896.866.507.506 1.268.632 1.775.253l6.212-2.906c1.648 1.011 3.549 1.769 5.45 2.274l2.283 6.57c.253.632.76 1.01 1.52 1.137h1.775c.635 0 1.268-.505 1.522-1.137l2.282-6.57c2.155-.505 3.93-1.263 5.578-2.274zm7.18 29.293c3.27 0 5.92-2.614 5.92-5.838 0-3.225-2.65-5.839-5.92-5.839-3.268 0-5.919 2.614-5.919 5.839 0 3.224 2.65 5.838 5.92 5.838zm-8.99-46.033c0 4.589-3.73 8.308-8.332 8.308s-8.332-3.72-8.332-8.308 3.73-8.308 8.332-8.308c4.601 0 8.331 3.72 8.331 8.308z" fill-rule="evenodd"/><path d="M89.5 47.87c0 .791.34 1.13 1.13 1.13h5.082c.79 0 1.129-.339 1.129-1.13V31.667h15.527v16.205c0 .79.339 1.13 1.129 1.13h5.082c.791 0 1.129-.34 1.129-1.13V10.605c0-.79-.338-1.129-1.129-1.129h-5.082c-.79 0-1.129.339-1.129 1.13v14.172H96.841V10.606c0-.791-.339-1.13-1.13-1.13H90.63c-.79 0-1.13.339-1.13 1.13zm57.851-.338c.395 1.186.79 1.468 1.524 1.468h4.009c.791 0 1.129-.339 1.129-1.13V23.593c0-.79-.338-1.13-1.129-1.13h-4.743c-.79 0-1.129.34-1.129 1.13v1.016c-1.92-1.75-4.122-2.71-7.679-2.71-7.34 0-13.607 5.082-13.607 13.833 0 9.373 6.323 13.834 13.438 13.834 3.839 0 5.985-1.186 7.904-2.823l.283.79zm-.339-10.558c0 1.806-.395 2.71-1.355 4.008-1.186 1.468-3.162 2.372-5.477 2.372-3.952 0-7.227-2.88-7.227-7.623s3.444-7.622 7.34-7.622c2.258 0 3.896.677 5.138 1.863 1.186 1.13 1.581 2.315 1.581 4.066zm34.93 3.387c-.226-.225-.452-.338-.678-.338-.282 0-.452.112-.677.338-1.92 2.09-4.066 2.993-6.494 2.993-4.121 0-7.34-2.993-7.34-7.566 0-4.743 3.388-7.68 7.397-7.68 2.71 0 4.347.848 6.267 2.768.226.226.452.338.734.338s.452-.112.678-.338l2.766-3.445c.226-.282.339-.508.339-.734 0-.282-.169-.564-.452-.847-2.089-2.145-5.42-3.952-10.219-3.952-8.131 0-14.737 5.477-14.737 13.833 0 9.204 6.832 13.834 14.454 13.834 4.404 0 7.679-1.186 11.124-4.856.225-.226.338-.452.338-.678 0-.225-.113-.451-.282-.62zm8.114 7.51c0 .79.339 1.13 1.13 1.13h4.742c.791 0 1.13-.34 1.13-1.13v-8.808l1.016-1.017 7.397 10.164c.338.508.79.79 1.355.79h6.945c.451 0 .677-.226.677-.565 0-.225-.056-.338-.169-.508L203.212 32.74l8.921-9.147a.806.806 0 00.226-.565c0-.338-.226-.564-.677-.564h-7.002c-.564 0-1.129.338-1.524.79l-6.098 6.324v-20.1c0-.791-.339-1.13-1.13-1.13h-4.742c-.791 0-1.13.339-1.13 1.13V47.87zm44.77-5.703c0 5.138 3.388 7.397 8.469 7.397 1.412 0 2.88-.113 3.953-.283.677-.112.847-.282.847-.846v-4.743c0-.396-.17-.621-.565-.621-.621 0-1.581.282-2.71.282-2.033 0-2.993-1.242-2.993-3.614V28.674h5.759c.791 0 1.13-.34 1.13-1.13v-3.952c0-.79-.339-1.13-1.13-1.13h-5.759v-8.017c0-.79-.338-1.13-1.129-1.13h-4.743c-.79 0-1.129.34-1.129 1.13v8.018h-4.009c-.79 0-1.129.338-1.129 1.129v3.952c0 .79.339 1.13 1.129 1.13h4.009zm18.916 5.703c0 .79.339 1.13 1.129 1.13h4.743c.791 0 1.13-.34 1.13-1.13v-9.712c0-3.049.621-4.63 1.806-6.493 1.243-1.976 3.332-3.557 5.816-3.557 2.541 0 3.952 1.355 3.952 3.896V47.87c0 .79.339 1.13 1.13 1.13h4.743c.79 0 1.129-.34 1.129-1.13V29.69c0-4.63-3.275-7.792-8.978-7.792-3.67 0-6.945 1.468-9.598 3.952V9.476c0-.79-.339-1.129-1.13-1.129h-4.743c-.79 0-1.129.339-1.129 1.13V47.87zm53.87-7.623c-.282-.282-.508-.395-.734-.395-.339 0-.565.17-.847.508-1.75 1.864-3.896 3.219-6.888 3.219-3.558 0-6.437-1.807-7.397-5.308h19.197c.791 0 1.13-.339 1.13-1.129v-1.694c0-6.437-4.179-13.55-13.439-13.55-7.34 0-13.776 5.42-13.776 13.832 0 8.922 6.662 13.834 14.002 13.834 5.195 0 8.131-1.468 11.745-5.025.225-.226.338-.452.338-.678a.907.907 0 00-.282-.621zM291.746 32.4c.96-2.54 3.388-4.63 6.832-4.63 3.218 0 5.59 1.75 6.493 4.63zm40.478 15.47c0 .791.339 1.13 1.129 1.13h5.082c.79 0 1.129-.339 1.129-1.13V23.424l17.334 24.448c.452.677.904 1.13 2.033 1.13h4.009c.79 0 1.129-.34 1.129-1.13V10.605c0-.79-.339-1.129-1.129-1.129h-5.082c-.79 0-1.129.339-1.129 1.13v23.6l-16.544-23.6c-.451-.678-.903-1.13-2.032-1.13h-4.8c-.79 0-1.129.339-1.129 1.13zm51.939 1.695c7.736 0 14.116-4.574 14.116-13.834 0-8.638-6.211-13.833-14.116-13.833-7.904 0-14.115 5.195-14.115 13.833 0 9.26 6.38 13.834 14.115 13.834zm0-6.211c-4.234 0-6.888-3.106-6.888-7.566 0-4.912 3.162-7.68 6.888-7.68 3.727 0 6.889 2.768 6.889 7.68 0 4.46-2.654 7.566-6.889 7.566zm19.779 4.517c0 .79.338 1.13 1.129 1.13h4.743c.79 0 1.129-.34 1.129-1.13V37.538c0-3.388.96-5.646 2.371-7.283 1.017-1.186 2.428-2.146 4.348-2.146 1.807 0 2.88.903 3.106 2.428.112.677.282.903.903.903h4.573c.734 0 1.13-.338 1.13-1.129 0-4.969-3.275-8.413-8.526-8.413-3.501 0-6.042 1.299-7.905 3.388v-1.694c0-.79-.339-1.13-1.129-1.13h-4.743c-.791 0-1.129.34-1.129 1.13V47.87zm31.812-5.703c0 5.138 3.387 7.397 8.469 7.397 1.412 0 2.88-.113 3.952-.283.678-.112.847-.282.847-.846v-4.743c0-.396-.169-.621-.564-.621-.621 0-1.581.282-2.711.282-2.032 0-2.992-1.242-2.992-3.614V28.674h5.759c.791 0 1.129-.34 1.129-1.13v-3.952c0-.79-.338-1.13-1.129-1.13h-5.759v-8.017c0-.79-.339-1.13-1.129-1.13h-4.743c-.791 0-1.129.34-1.129 1.13v8.018h-4.009c-.791 0-1.13.338-1.13 1.129v3.952c0 .79.339 1.13 1.13 1.13h4.009zm18.916 5.703c0 .79.339 1.13 1.129 1.13h4.743c.79 0 1.129-.34 1.129-1.13v-9.712c0-3.049.621-4.63 1.807-6.493 1.242-1.976 3.331-3.557 5.816-3.557 2.541 0 3.952 1.355 3.952 3.896V47.87c0 .79.339 1.13 1.129 1.13h4.743c.791 0 1.129-.34 1.129-1.13V29.69c0-4.63-3.274-7.792-8.977-7.792-3.67 0-6.945 1.468-9.599 3.952V9.476c0-.79-.339-1.129-1.129-1.129h-4.743c-.79 0-1.129.339-1.129 1.13V47.87z"/></g></svg>